<svg id="Layer_1" data-name="Layer 1" xmlns="http://www.w3.org/2000/svg" xmlns:xlink="http://www.w3.org/1999/xlink" viewBox="0 0 288 247.66"><defs><style>.cls-1{fill:#b6b6b6;}.cls-2{stroke:#f7fafb;stroke-miterlimit:10;stroke-width:0.25px;fill:url(#linear-gradient);}.cls-3{fill:#1b1464;}</style><linearGradient id="linear-gradient" x1="3.17" y1="124.01" x2="287.34" y2="124.01" gradientUnits="userSpaceOnUse"><stop offset="0.29" stop-color="#de058a"/><stop offset="0.45" stop-color="#e60b55"/><stop offset="0.66" stop-color="#e8184e"/><stop offset="0.89" stop-color="#ffa300"/><stop offset="1" stop-color="#fcee21"/></linearGradient></defs><polygon class="cls-1" points="216.29 0.96 74.21 0.96 3.17 124.02 74.21 247.06 216.29 247.06 287.34 124.02 216.29 0.96"/><path class="cls-2" d="M215.72,2,286.18,124,215.72,246.06H74.79L4.32,124,74.79,2H215.72m.57-1H74.21L3.17,124l71,123.05H216.29l71-123-71-123Z"/><path class="cls-3" d="M50.09,118.36l-3,6.65H41.23l12.49-25.6h7l3,25.6H58l-.52-6.65Zm7.14-4.17-.5-5.51c-.11-1.41-.23-3.47-.35-5H56.3c-.67,1.57-1.37,3.56-2.06,5l-2.53,5.51Z"/><path class="cls-3" d="M66.55,125l2.36-12.54c.47-2.35.75-4.39,1-6h4.83l-.35,3.08h.08A7.81,7.81,0,0,1,81,106c3,0,4.77,1.86,4.77,5.09a21.45,21.45,0,0,1-.32,3.12L83.38,125H77.91l1.94-10.28a13.1,13.1,0,0,0,.2-2.09c0-1.3-.44-2.23-1.85-2.23-1.78,0-3.86,2.24-4.63,6.34L72,125Z"/><path class="cls-3" d="M87.94,125l3.53-18.59h5.47L93.41,125Zm4.32-23.56a3.06,3.06,0,0,1,3.14-3.09,2.58,2.58,0,0,1,2.75,2.69,3.05,3.05,0,0,1-3.24,3.08A2.53,2.53,0,0,1,92.26,101.45Z"/><path class="cls-3" d="M98,125l2.32-12.54c.44-2.35.73-4.39,1-6H106l-.33,3h.06a7.57,7.57,0,0,1,6.35-3.45c3,0,4.25,1.88,4.4,3.52a7.73,7.73,0,0,1,6.41-3.52c2.87,0,4.54,1.85,4.54,5a22.5,22.5,0,0,1-.32,3.19l-2,10.82h-5.3l1.88-10.15a13.59,13.59,0,0,0,.25-2.26c0-1.3-.56-2.2-1.84-2.2-1.82,0-3.64,2.45-4.33,6.2L114.16,125h-5.27l1.91-10.21a12.15,12.15,0,0,0,.25-2.13c0-1.27-.41-2.27-1.76-2.27-1.84,0-3.79,2.59-4.45,6.25L103.31,125Z"/><path class="cls-3" d="M141.77,125c0-1.08.14-2.35.24-3.68h-.09c-1.71,3.09-4.09,4.1-6.25,4.1-3.33,0-5.63-2.59-5.63-6.47,0-6.26,4.17-13,13.31-13a22.12,22.12,0,0,1,6.15.93l-2,9.72a46.15,46.15,0,0,0-.75,8.36Zm1.58-14.69a6.6,6.6,0,0,0-1.49-.16c-3.54,0-6.11,4.33-6.12,7.78,0,1.83.74,3.09,2.25,3.09s3.66-1.87,4.5-6.42Z"/><path class="cls-3" d="M161.27,101.22l-1,5.2h4l-.81,4.17h-4l-1.25,6.31a13.44,13.44,0,0,0-.31,2.35,1.39,1.39,0,0,0,1.59,1.56,10.77,10.77,0,0,0,1.5-.08l-.63,4.29a10.81,10.81,0,0,1-3.23.41c-3.29,0-4.84-1.68-4.84-4a17.12,17.12,0,0,1,.39-3.45l1.44-7.39h-2.38l.79-4.17H155l.73-3.91Z"/><path class="cls-3" d="M164,125l3.53-18.59H173L169.45,125Zm4.32-23.56a3.06,3.06,0,0,1,3.13-3.09,2.58,2.58,0,0,1,2.75,2.69,3,3,0,0,1-3.23,3.08A2.53,2.53,0,0,1,168.3,101.45Z"/><path class="cls-3" d="M187.76,124.43a12.75,12.75,0,0,1-5.28,1c-4.58,0-7.82-2.81-7.82-7.63,0-6.6,5.06-11.77,12.13-11.77a10.73,10.73,0,0,1,3.77.63l-1.34,4.2a6.48,6.48,0,0,0-2.52-.46c-3.89,0-6.31,3.31-6.31,6.79A3.5,3.5,0,0,0,184,121a9.14,9.14,0,0,0,3.68-.77Z"/><path class="cls-3" d="M191.55,120.13a12,12,0,0,0,4.85,1.28c1.54,0,2.34-.76,2.34-1.69s-.6-1.54-2.31-2.38c-2.15-1-3.94-2.63-3.94-4.93,0-3.86,3.39-6.41,8.17-6.41a10.42,10.42,0,0,1,4.78,1l-1.3,3.87a8.86,8.86,0,0,0-3.72-.81c-1.45,0-2.41.62-2.41,1.62,0,.78.75,1.41,2.26,2.14,2,1,4.15,2.5,4.15,5.08,0,4.25-3.61,6.55-8.53,6.55a10.44,10.44,0,0,1-5.67-1.45Z"/><path class="cls-3" d="M229.87,125a21.19,21.19,0,0,1-1.39-1.74,10.9,10.9,0,0,1-6.86,2.16c-4.75,0-7.91-2.62-7.91-6.77,0-3.89,2.89-6.36,6.18-7.9l0-.1a8.54,8.54,0,0,1-1.39-4.33c0-4.15,3.29-7.34,8-7.34,3.82,0,6.49,2.27,6.49,5.7,0,3-2.24,5.16-6.34,7.08v.1c1,1.61,2.39,3.5,3.42,4.91a20,20,0,0,0,3.52-6.52h5a23.8,23.8,0,0,1-6.05,10c1,1.44,2.3,3.11,3.73,4.77Zm-3.56-4.91c-1.29-1.69-3.05-4.08-4.53-6.4a5.15,5.15,0,0,0-2.5,4c0,2,1.32,3.59,3.88,3.59A4.6,4.6,0,0,0,226.31,120.1Zm-2.88-14.33a5.27,5.27,0,0,0,1.12,3.16c2-.9,3.6-2.29,3.6-4.19a2,2,0,0,0-2.08-2.2C224.58,102.54,223.43,103.94,223.43,105.77Z"/><path class="cls-3" d="M44.1,150.09a12.12,12.12,0,0,0,6,1.62c2.12,0,4.05-1,4.05-3,0-1.46-1.11-2.39-3.45-3.63-2.72-1.46-5.31-3.47-5.31-6.78,0-5.18,4.52-8.31,10.08-8.31a12.66,12.66,0,0,1,6.07,1.25l-1.73,4.57a10.1,10.1,0,0,0-4.76-1.12c-2.56,0-3.9,1.27-3.9,2.67s1.57,2.42,3.74,3.63c3.11,1.63,5.07,3.7,5.07,6.77,0,5.7-4.72,8.63-10.42,8.63a13,13,0,0,1-7.32-1.83Z"/><path class="cls-3" d="M72.66,132.22l-1,5.2h4l-.82,4.17h-4l-1.25,6.31a13.39,13.39,0,0,0-.3,2.35,1.38,1.38,0,0,0,1.58,1.56,10.69,10.69,0,0,0,1.5-.08L71.77,156a10.74,10.74,0,0,1-3.22.41c-3.3,0-4.84-1.68-4.84-4A16.42,16.42,0,0,1,64.1,149l1.44-7.39H63.16l.78-4.17h2.39l.74-3.91Z"/><path class="cls-3" d="M94.8,144.66c0,6.78-4.66,11.77-11.1,11.77-4.73,0-7.89-3.06-7.89-7.69,0-6.42,4.5-11.74,11.1-11.74C91.91,137,94.8,140.42,94.8,144.66Zm-13.33,4c0,2.18,1.09,3.63,3,3.63,3,0,4.67-4.39,4.67-7.55,0-1.73-.75-3.54-2.93-3.54C83.06,141.17,81.47,145.76,81.47,148.63Z"/><path class="cls-3" d="M96.42,156,98.51,145c.52-2.8.76-5.93.95-7.53h4.74c-.1,1.25-.2,2.51-.34,3.81H104c1.31-2.47,3.38-4.23,5.92-4.23.35,0,.7,0,1,0l-1.06,5.33c-.24,0-.54,0-.87,0-3.48,0-5.12,3.11-5.8,6.76l-1.3,6.91Z"/><path class="cls-3" d="M118.22,137.42l1.14,8.1c.28,1.93.48,3.25.62,4.43h.08c.4-1.13.82-2.32,1.63-4.34l3.37-8.19h5.77l-6.62,13.35c-2.47,4.94-4.69,8.3-7.16,10.63a12.52,12.52,0,0,1-6,3.17l-1.22-4.7a11.18,11.18,0,0,0,3.16-1.46,10,10,0,0,0,3-3.23,1.07,1.07,0,0,0,.08-.89l-3.66-16.87Z"/><path class="cls-3" d="M135.18,130.84a35.11,35.11,0,0,1,6.72-.6,11.91,11.91,0,0,1,6.34,1.34,5.2,5.2,0,0,1,3,4.69c0,3.23-2.38,5.27-5.15,6.07v.1a5.56,5.56,0,0,1,4,5.58,7.16,7.16,0,0,1-3.5,6.08c-2.18,1.47-5.41,2.09-9.65,2.09a34.91,34.91,0,0,1-6.46-.47Zm1.37,21a16.93,16.93,0,0,0,2.1.09c3,0,5.65-1.17,5.65-4,0-2.52-2.14-3.28-4.69-3.28h-1.7Zm2.2-11.22h1.82c3,0,5.05-1.27,5.05-3.46,0-1.85-1.5-2.64-3.59-2.64a10.7,10.7,0,0,0-2.15.17Z"/><path class="cls-3" d="M172.05,144.66c0,6.78-4.66,11.77-11.1,11.77-4.73,0-7.89-3.06-7.89-7.69,0-6.42,4.51-11.74,11.1-11.74C169.16,137,172.05,140.42,172.05,144.66Zm-13.32,4c0,2.18,1.08,3.63,3,3.63,3,0,4.67-4.39,4.67-7.55,0-1.73-.75-3.54-2.93-3.54C160.31,141.17,158.72,145.76,158.73,148.63Z"/><path class="cls-3" d="M185.85,156c0-1.08.14-2.35.24-3.68H186c-1.71,3.09-4.09,4.1-6.25,4.1-3.33,0-5.63-2.59-5.63-6.47,0-6.26,4.17-13,13.31-13a22,22,0,0,1,6.14.93l-1.95,9.72a45.27,45.27,0,0,0-.75,8.36Zm1.58-14.69a6.6,6.6,0,0,0-1.49-.16c-3.54,0-6.12,4.33-6.12,7.78,0,1.83.74,3.09,2.25,3.09s3.66-1.87,4.5-6.42Z"/><path class="cls-3" d="M194.91,156,197,145c.52-2.8.75-5.93,1-7.53h4.73c-.1,1.25-.19,2.51-.34,3.81h.12c1.31-2.47,3.38-4.23,5.93-4.23.34,0,.7,0,1,0l-1.07,5.33c-.24,0-.54,0-.86,0-3.48,0-5.13,3.11-5.81,6.76l-1.3,6.91Z"/><path class="cls-3" d="M230.71,129l-3.77,19.76a54,54,0,0,0-.88,7.21h-5l.26-3h-.07a7.14,7.14,0,0,1-6.09,3.43c-3.16,0-5.75-2.49-5.75-7,0-6.47,4.66-12.42,11.69-12.42a7.39,7.39,0,0,1,2.53.45l1.63-8.41Zm-7.85,12.78a3.62,3.62,0,0,0-2.16-.65c-3.28,0-5.59,3.78-5.59,7.35,0,2.24,1,3.51,2.55,3.51s3.51-1.67,4.23-5.23Z"/><path class="cls-3" d="M230.88,151.13a12,12,0,0,0,4.85,1.28c1.54,0,2.34-.76,2.34-1.69s-.6-1.54-2.32-2.38c-2.14-1.05-3.93-2.63-3.93-4.93,0-3.86,3.39-6.41,8.17-6.41a10.45,10.45,0,0,1,4.78,1l-1.31,3.87a8.77,8.77,0,0,0-3.71-.81c-1.45,0-2.42.62-2.42,1.62,0,.78.76,1.41,2.27,2.14,2,1,4.15,2.5,4.15,5.08,0,4.25-3.61,6.55-8.53,6.55a10.44,10.44,0,0,1-5.67-1.45Z"/></svg>