<svg xmlns="http://www.w3.org/2000/svg" xmlns:xlink="http://www.w3.org/1999/xlink" viewBox="0 0 288 247.66"><defs><style>.cls-1{opacity:0.69;}.cls-2{fill:#ededed;}.cls-3{fill:url(#linear-gradient);}.cls-4{fill:url(#linear-gradient-2);}.cls-5{fill:#1b1464;}</style><linearGradient id="linear-gradient" x1="1.71" y1="-473.7" x2="286.59" y2="-473.7" gradientTransform="matrix(1, 0, 0, -1, 0, -350.21)" gradientUnits="userSpaceOnUse"><stop offset="0" stop-color="#fff"/><stop offset="1" stop-color="#ededed"/></linearGradient><linearGradient id="linear-gradient-2" x1="1.41" y1="-473.91" x2="286.29" y2="-473.91" gradientTransform="matrix(1, 0, 0, -1, 0, -350.21)" gradientUnits="userSpaceOnUse"><stop offset="0.29" stop-color="#de058a"/><stop offset="0.45" stop-color="#e60b55"/><stop offset="0.66" stop-color="#e8184e"/><stop offset="0.89" stop-color="#ffa300"/><stop offset="1" stop-color="#fcee21"/></linearGradient></defs><g id="Layer_2" data-name="Layer 2"><g class="cls-1"><polygon class="cls-2" points="215.4 0.1 72.91 0.1 1.71 123.44 72.91 246.88 215.4 246.88 286.59 123.44 215.4 0.1"/><path class="cls-3" d="M214.8,1.1l70.69,122.34L214.8,245.88H73.51L2.81,123.44,73.51,1.1H214.8m.6-1H72.91L1.71,123.44l71.2,123.44H215.4l71.19-123.44L215.4.1Z"/></g><path class="cls-4" d="M214.6,1.3l70.59,122.34L214.5,246.08H73.21L2.61,123.64,73.21,1.3H214.6m.5-1H72.6L1.41,123.64,72.6,247.08H215.1l71.19-123.44L215.1.3Z"/><path class="cls-5" d="M50.72,112l-3,6.65H41.87L54.36,93h7l3,25.61H58.63L58.11,112Zm7.15-4.17-.5-5.52c-.11-1.41-.23-3.47-.35-5h-.08c-.67,1.56-1.37,3.55-2.06,5l-2.53,5.52Z"/><path class="cls-5" d="M67.19,118.61l2.36-12.54c.46-2.36.75-4.39,1-6.06h4.83L75,103.1h.08a7.79,7.79,0,0,1,6.5-3.51c3,0,4.77,1.87,4.77,5.09a21.45,21.45,0,0,1-.32,3.12L84,118.61H78.54l1.94-10.29a11.92,11.92,0,0,0,.21-2.08c0-1.31-.45-2.24-1.85-2.24-1.78,0-3.86,2.24-4.63,6.35l-1.55,8.26Z"/><path class="cls-5" d="M88.58,118.61,92.11,100h5.47l-3.53,18.6ZM92.9,95.05A3.07,3.07,0,0,1,96,92a2.57,2.57,0,0,1,2.74,2.69,3,3,0,0,1-3.23,3.08A2.52,2.52,0,0,1,92.9,95.05Z"/><path class="cls-5" d="M98.65,118.61,101,106.07c.45-2.36.74-4.39,1-6.06h4.7l-.34,3h.06a7.62,7.62,0,0,1,6.36-3.45c3,0,4.25,1.88,4.4,3.52a7.73,7.73,0,0,1,6.41-3.52c2.87,0,4.54,1.85,4.54,5a22.63,22.63,0,0,1-.32,3.2l-2,10.82h-5.3l1.87-10.16a12.63,12.63,0,0,0,.26-2.26c0-1.3-.56-2.2-1.84-2.2-1.82,0-3.64,2.45-4.34,6.2l-1.57,8.42h-5.27l1.91-10.22a12,12,0,0,0,.25-2.12c0-1.27-.41-2.28-1.76-2.28-1.85,0-3.79,2.59-4.46,6.25L104,118.61Z"/><path class="cls-5" d="M142.41,118.61c0-1.09.14-2.36.24-3.68h-.09c-1.71,3.08-4.09,4.09-6.26,4.09-3.33,0-5.62-2.59-5.62-6.47,0-6.26,4.17-13,13.31-13a22,22,0,0,1,6.14.93l-2,9.73a46,46,0,0,0-.74,8.36Zm1.58-14.7a6.6,6.6,0,0,0-1.49-.16c-3.54,0-6.12,4.33-6.12,7.79,0,1.82.74,3.08,2.24,3.08s3.66-1.87,4.51-6.42Z"/><path class="cls-5" d="M161.91,94.81l-1,5.2h4l-.81,4.17h-4l-1.24,6.31a12.54,12.54,0,0,0-.31,2.36,1.38,1.38,0,0,0,1.58,1.55,12.62,12.62,0,0,0,1.51-.07l-.63,4.28a10.85,10.85,0,0,1-3.23.41c-3.29,0-4.84-1.67-4.84-4a16.49,16.49,0,0,1,.39-3.45l1.44-7.39h-2.38l.79-4.17h2.38l.74-3.91Z"/><path class="cls-5" d="M164.62,118.61l3.53-18.6h5.47l-3.53,18.6Zm4.31-23.56a3.08,3.08,0,0,1,3.14-3.1,2.58,2.58,0,0,1,2.75,2.69,3,3,0,0,1-3.23,3.08A2.54,2.54,0,0,1,168.93,95.05Z"/><path class="cls-5" d="M188.4,118a12.73,12.73,0,0,1-5.28,1c-4.58,0-7.82-2.82-7.82-7.64,0-6.59,5.06-11.76,12.13-11.76a10.51,10.51,0,0,1,3.77.63l-1.35,4.19a6.42,6.42,0,0,0-2.51-.46c-3.89,0-6.31,3.31-6.31,6.79a3.49,3.49,0,0,0,3.65,3.86,9.22,9.22,0,0,0,3.68-.77Z"/><path class="cls-5" d="M192.19,113.72A12,12,0,0,0,197,115c1.54,0,2.34-.76,2.34-1.69s-.6-1.54-2.32-2.39c-2.14-1.05-3.93-2.63-3.93-4.93,0-3.86,3.39-6.41,8.17-6.41a10.37,10.37,0,0,1,4.77,1l-1.3,3.87a8.77,8.77,0,0,0-3.71-.81c-1.45,0-2.42.62-2.42,1.63,0,.77.76,1.4,2.26,2.13,2,1,4.16,2.5,4.16,5.08,0,4.26-3.61,6.56-8.53,6.56a10.44,10.44,0,0,1-5.67-1.46Z"/><path class="cls-5" d="M230.51,118.61a19.39,19.39,0,0,1-1.39-1.75,10.94,10.94,0,0,1-6.86,2.16c-4.75,0-7.91-2.62-7.91-6.77,0-3.88,2.88-6.35,6.17-7.9l0-.1a8.46,8.46,0,0,1-1.4-4.33c0-4.15,3.3-7.34,8-7.34,3.82,0,6.49,2.28,6.49,5.7,0,3-2.24,5.16-6.35,7.08v.1c1,1.62,2.4,3.5,3.43,4.91a19.88,19.88,0,0,0,3.51-6.51h5a23.82,23.82,0,0,1-6,10,57.79,57.79,0,0,0,3.73,4.78ZM227,113.7c-1.29-1.7-3-4.09-4.53-6.41a5.15,5.15,0,0,0-2.5,4,3.51,3.51,0,0,0,3.87,3.6A4.68,4.68,0,0,0,227,113.7Zm-2.88-14.33a5.2,5.2,0,0,0,1.12,3.15c2-.9,3.6-2.29,3.6-4.19a2,2,0,0,0-2.09-2.2C225.22,96.13,224.07,97.53,224.07,99.37Z"/><path class="cls-5" d="M44.74,143.68a12,12,0,0,0,6,1.62c2.12,0,4.05-1,4.05-3,0-1.46-1.12-2.39-3.46-3.63-2.71-1.45-5.3-3.46-5.3-6.78,0-5.18,4.52-8.31,10.08-8.31a12.54,12.54,0,0,1,6.07,1.26l-1.73,4.56a10.26,10.26,0,0,0-4.76-1.12c-2.56,0-3.9,1.27-3.91,2.67s1.58,2.42,3.74,3.64c3.12,1.62,5.08,3.69,5.08,6.77,0,5.69-4.72,8.63-10.42,8.63a13,13,0,0,1-7.32-1.83Z"/><path class="cls-5" d="M73.3,125.81l-1,5.2h4l-.81,4.17h-4l-1.25,6.31a13.42,13.42,0,0,0-.31,2.36,1.39,1.39,0,0,0,1.59,1.55,12.46,12.46,0,0,0,1.5-.07l-.63,4.28a10.76,10.76,0,0,1-3.23.41c-3.29,0-4.84-1.67-4.84-4a16.59,16.59,0,0,1,.4-3.45l1.43-7.39H63.8l.78-4.17H67l.74-3.91Z"/><path class="cls-5" d="M95.44,138.26c0,6.78-4.67,11.76-11.1,11.76-4.73,0-7.89-3.05-7.89-7.68,0-6.43,4.5-11.75,11.1-11.75C92.55,130.59,95.44,134,95.44,138.26Zm-13.33,4c0,2.17,1.09,3.62,3,3.62,3,0,4.67-4.39,4.67-7.55,0-1.73-.76-3.53-2.93-3.53C83.69,134.77,82.11,139.35,82.11,142.23Z"/><path class="cls-5" d="M97.05,149.61l2.1-11.07c.52-2.8.76-5.93.95-7.53h4.74c-.1,1.25-.2,2.51-.34,3.81h.12c1.31-2.47,3.37-4.23,5.92-4.23.35,0,.7,0,1,0L110.5,136c-.24,0-.55,0-.87,0-3.48,0-5.12,3.11-5.81,6.77l-1.3,6.91Z"/><path class="cls-5" d="M118.86,131l1.13,8.1c.29,1.93.48,3.25.63,4.43h.08c.4-1.13.82-2.32,1.63-4.34L125.7,131h5.77l-6.62,13.35c-2.47,4.95-4.69,8.31-7.16,10.63a12.48,12.48,0,0,1-6,3.17l-1.22-4.69a11.53,11.53,0,0,0,3.16-1.47,9.75,9.75,0,0,0,3-3.23,1.11,1.11,0,0,0,.09-.89L113.11,131Z"/><path class="cls-5" d="M135.81,124.43a35.22,35.22,0,0,1,6.73-.6,11.94,11.94,0,0,1,6.34,1.34,5.22,5.22,0,0,1,3,4.69c0,3.23-2.38,5.27-5.16,6.07v.1a5.56,5.56,0,0,1,4,5.58,7.19,7.19,0,0,1-3.49,6.09c-2.18,1.47-5.41,2.08-9.66,2.08a36,36,0,0,1-6.45-.46Zm1.37,21a17,17,0,0,0,2.11.1c3,0,5.65-1.18,5.65-4,0-2.52-2.14-3.28-4.69-3.28h-1.71Zm2.21-11.21h1.82c3,0,5-1.28,5-3.47,0-1.84-1.49-2.63-3.58-2.63a10,10,0,0,0-2.15.17Z"/><path class="cls-5" d="M172.69,138.26c0,6.78-4.67,11.76-11.1,11.76-4.73,0-7.89-3.05-7.89-7.68,0-6.43,4.5-11.75,11.1-11.75C169.8,130.59,172.69,134,172.69,138.26Zm-13.33,4c0,2.17,1.09,3.62,3,3.62,3,0,4.67-4.39,4.67-7.55,0-1.73-.75-3.53-2.93-3.53C161,134.77,159.36,139.35,159.36,142.23Z"/><path class="cls-5" d="M186.48,149.61c.05-1.09.15-2.36.25-3.68h-.09c-1.71,3.08-4.09,4.09-6.26,4.09-3.33,0-5.62-2.59-5.62-6.47,0-6.26,4.16-13,13.31-13a22,22,0,0,1,6.14.93l-2,9.73a46,46,0,0,0-.74,8.36Zm1.59-14.7a6.63,6.63,0,0,0-1.5-.16c-3.54,0-6.11,4.33-6.11,7.79,0,1.82.73,3.08,2.24,3.08s3.66-1.87,4.51-6.42Z"/><path class="cls-5" d="M195.55,149.61l2.09-11.07c.52-2.8.76-5.93,1-7.53h4.74c-.1,1.25-.2,2.51-.34,3.81h.12c1.31-2.47,3.38-4.23,5.92-4.23.35,0,.71,0,1,0L209,136c-.24,0-.54,0-.86,0-3.49,0-5.13,3.11-5.81,6.77l-1.3,6.91Z"/><path class="cls-5" d="M231.34,122.63l-3.76,19.76a54,54,0,0,0-.88,7.22h-5l.27-3h-.07A7.14,7.14,0,0,1,215.8,150c-3.16,0-5.75-2.49-5.75-7,0-6.46,4.66-12.42,11.69-12.42a7.39,7.39,0,0,1,2.53.45l1.63-8.41Zm-7.84,12.78a3.63,3.63,0,0,0-2.17-.65c-3.27,0-5.59,3.78-5.59,7.35,0,2.25,1,3.51,2.56,3.51s3.51-1.67,4.23-5.22Z"/><path class="cls-5" d="M231.52,144.72a12,12,0,0,0,4.85,1.29c1.54,0,2.34-.76,2.34-1.69s-.6-1.54-2.32-2.39c-2.14-1.05-3.93-2.63-3.93-4.93,0-3.86,3.39-6.41,8.17-6.41a10.37,10.37,0,0,1,4.77,1l-1.3,3.87a8.77,8.77,0,0,0-3.71-.81c-1.45,0-2.42.62-2.42,1.63,0,.77.76,1.4,2.26,2.13,2,1,4.16,2.5,4.16,5.08,0,4.26-3.61,6.56-8.53,6.56a10.44,10.44,0,0,1-5.67-1.46Z"/></g></svg>