<svg id="Layer_1" data-name="Layer 1" xmlns="http://www.w3.org/2000/svg" xmlns:xlink="http://www.w3.org/1999/xlink" viewBox="0 0 289.29 246.76"><defs><style>.cls-1{fill:url(#linear-gradient);}.cls-2{fill:#ccc;}</style><linearGradient id="linear-gradient" x1="2.55" y1="123.37" x2="286.74" y2="123.37" gradientUnits="userSpaceOnUse"><stop offset="0.29" stop-color="#de058a"/><stop offset="0.45" stop-color="#e60b55"/><stop offset="0.66" stop-color="#e8184e"/><stop offset="0.89" stop-color="#ffa300"/><stop offset="1" stop-color="#fcee21"/></linearGradient></defs><path class="cls-1" d="M215.11,1.32l70.47,122.05-70.47,122H74.17l-70.46-122,70.46-122H215.11m.58-1H73.6l-71,123.05,71.05,123H215.69l71.05-123L215.69.32Z"/><path class="cls-2" d="M65.74,116.72l-3,6.65H56.89L69.37,97.76h7l3,25.61H73.64l-.52-6.65Zm7.15-4.17-.5-5.52c-.11-1.4-.24-3.46-.36-5H72c-.66,1.56-1.37,3.55-2.06,5l-2.52,5.52Z"/><path class="cls-2" d="M82.2,123.37l2.36-12.54c.47-2.36.76-4.39,1-6.06H90.4l-.34,3.09h.07a7.82,7.82,0,0,1,6.5-3.51c3,0,4.77,1.87,4.77,5.09a21.4,21.4,0,0,1-.31,3.12L99,123.37H93.56l1.94-10.29a11.92,11.92,0,0,0,.21-2.08c0-1.31-.45-2.24-1.85-2.24-1.79,0-3.87,2.24-4.63,6.35l-1.56,8.26Z"/><path class="cls-2" d="M103.59,123.37l3.54-18.6h5.47l-3.53,18.6Zm4.32-23.56a3.07,3.07,0,0,1,3.14-3.1,2.58,2.58,0,0,1,2.75,2.69,3,3,0,0,1-3.23,3.08A2.54,2.54,0,0,1,107.91,99.81Z"/><path class="cls-2" d="M113.66,123.37,116,110.83c.44-2.36.73-4.39,1-6.06h4.69l-.33,3h.06a7.62,7.62,0,0,1,6.36-3.45c3,0,4.24,1.89,4.4,3.52a7.74,7.74,0,0,1,6.4-3.52c2.87,0,4.54,1.85,4.54,5a22.63,22.63,0,0,1-.32,3.2l-2,10.82h-5.3l1.87-10.16a13.59,13.59,0,0,0,.25-2.26c0-1.29-.56-2.2-1.83-2.2-1.83,0-3.65,2.45-4.34,6.2l-1.58,8.42h-5.27l1.92-10.22a12,12,0,0,0,.24-2.12c0-1.27-.41-2.28-1.76-2.28-1.84,0-3.79,2.6-4.45,6.25L119,123.37Z"/><path class="cls-2" d="M157.42,123.37c0-1.09.15-2.36.24-3.68h-.09c-1.7,3.08-4.09,4.1-6.25,4.1-3.33,0-5.63-2.6-5.63-6.48,0-6.26,4.17-13,13.31-13a21.67,21.67,0,0,1,6.15.94l-2,9.72a46,46,0,0,0-.74,8.36Zm1.59-14.7a6.7,6.7,0,0,0-1.5-.16c-3.54,0-6.11,4.33-6.12,7.79,0,1.83.74,3.08,2.25,3.08s3.66-1.86,4.51-6.42Z"/><path class="cls-2" d="M176.93,99.57l-1,5.2h4l-.81,4.17h-4l-1.25,6.31a13.54,13.54,0,0,0-.31,2.36,1.39,1.39,0,0,0,1.59,1.56,12.45,12.45,0,0,0,1.5-.08l-.63,4.28a10.76,10.76,0,0,1-3.23.41c-3.29,0-4.84-1.67-4.84-4a16.59,16.59,0,0,1,.4-3.45l1.43-7.39h-2.37l.78-4.17h2.39l.74-3.91Z"/><path class="cls-2" d="M179.63,123.37l3.53-18.6h5.47l-3.53,18.6ZM184,99.81a3.07,3.07,0,0,1,3.14-3.1,2.58,2.58,0,0,1,2.75,2.69,3,3,0,0,1-3.23,3.08A2.53,2.53,0,0,1,184,99.81Z"/><path class="cls-2" d="M203.42,122.78a12.76,12.76,0,0,1-5.28,1c-4.59,0-7.82-2.81-7.82-7.64,0-6.59,5.05-11.76,12.12-11.76a10.84,10.84,0,0,1,3.78.63l-1.35,4.19a6.42,6.42,0,0,0-2.51-.46c-3.9,0-6.32,3.31-6.32,6.8a3.49,3.49,0,0,0,3.66,3.85,9,9,0,0,0,3.67-.77Z"/><path class="cls-2" d="M207.21,118.48a12,12,0,0,0,4.84,1.29c1.54,0,2.34-.76,2.34-1.69s-.6-1.54-2.31-2.39c-2.14-1-3.93-2.63-3.93-4.93,0-3.85,3.38-6.41,8.17-6.41a10.4,10.4,0,0,1,4.77,1l-1.3,3.87a9,9,0,0,0-3.72-.81c-1.45,0-2.41.63-2.41,1.63,0,.77.76,1.4,2.26,2.13,2,1,4.16,2.5,4.16,5.08,0,4.26-3.62,6.56-8.54,6.56a10.49,10.49,0,0,1-5.67-1.46Z"/><path class="cls-2" d="M219.23,127.9a67.08,67.08,0,0,0,4.33-10.8l5.93-.38a58.75,58.75,0,0,1-6.29,10.84Z"/><path class="cls-2" d="M69.15,153.66a17.34,17.34,0,0,1-6.75,1.11c-6.79,0-11.32-4.14-11.32-10.87a15,15,0,0,1,6.46-12.84,16.14,16.14,0,0,1,9.4-2.7,12.71,12.71,0,0,1,5.61,1.07l-1.49,4.44a12,12,0,0,0-4.65-.82,9.18,9.18,0,0,0-5.86,2A10.46,10.46,0,0,0,57,143.26c0,4.1,2.31,6.82,6.81,6.82a12.85,12.85,0,0,0,4.86-.85Z"/><path class="cls-2" d="M71.92,154.37l3.54-18.6h5.47l-3.54,18.6Zm4.32-23.56a3.07,3.07,0,0,1,3.14-3.1,2.58,2.58,0,0,1,2.75,2.69,3,3,0,0,1-3.23,3.08A2.53,2.53,0,0,1,76.24,130.81Z"/><path class="cls-2" d="M82,154.37l2.36-12.54c.47-2.36.76-4.39,1-6.06H90.2l-.35,3.09h.07a7.82,7.82,0,0,1,6.5-3.51c3,0,4.77,1.87,4.77,5.09a21.4,21.4,0,0,1-.31,3.12l-2.06,10.81H93.35l1.94-10.29A11.92,11.92,0,0,0,95.5,142c0-1.31-.45-2.24-1.85-2.24-1.79,0-3.86,2.24-4.63,6.35l-1.56,8.26Z"/><path class="cls-2" d="M119,153.3a16.23,16.23,0,0,1-7,1.47c-5.31,0-8-3-8-7.86,0-5.65,4.1-11.56,10.81-11.56,3.78,0,6.47,2.12,6.48,5.58,0,4.72-4.61,6.45-12.06,6.25a4,4,0,0,0,.59,1.92,4.32,4.32,0,0,0,3.56,1.42,11.74,11.74,0,0,0,5.21-1.18Zm-4.84-13.94a4.62,4.62,0,0,0-4.37,3.82c4.24,0,6.38-.54,6.38-2.24C116.12,140,115.35,139.36,114.11,139.36Z"/><path class="cls-2" d="M122.42,154.37l2.32-12.54c.44-2.36.73-4.39,1-6.06h4.7l-.33,3h.06a7.62,7.62,0,0,1,6.36-3.45c3,0,4.24,1.89,4.4,3.52a7.74,7.74,0,0,1,6.4-3.52c2.87,0,4.54,1.85,4.54,5a22.63,22.63,0,0,1-.32,3.2l-2,10.82H144.2l1.87-10.16a13.59,13.59,0,0,0,.25-2.26c0-1.29-.56-2.2-1.84-2.2-1.82,0-3.64,2.45-4.33,6.2l-1.58,8.42H133.3l1.92-10.22a13,13,0,0,0,.24-2.12c0-1.27-.41-2.28-1.76-2.28-1.84,0-3.79,2.6-4.45,6.25l-1.53,8.37Z"/><path class="cls-2" d="M166.18,154.37c0-1.09.15-2.36.24-3.68h-.09c-1.7,3.08-4.09,4.1-6.25,4.1-3.33,0-5.63-2.6-5.63-6.48,0-6.26,4.17-13,13.31-13a21.67,21.67,0,0,1,6.15.94L172,146a46,46,0,0,0-.75,8.36Zm1.59-14.7a6.7,6.7,0,0,0-1.5-.16c-3.54,0-6.11,4.33-6.12,7.79,0,1.83.74,3.08,2.25,3.08s3.66-1.86,4.51-6.42Z"/><path class="cls-2" d="M185.69,130.57l-1,5.2h4l-.81,4.17h-4l-1.25,6.31a13.54,13.54,0,0,0-.31,2.36,1.39,1.39,0,0,0,1.59,1.56,12.56,12.56,0,0,0,1.5-.08l-.63,4.28a10.81,10.81,0,0,1-3.23.41c-3.29,0-4.84-1.67-4.84-4a16.59,16.59,0,0,1,.4-3.45l1.43-7.39h-2.38l.79-4.17h2.39l.74-3.91Z"/><path class="cls-2" d="M188.39,154.37l3.53-18.6h5.47l-3.53,18.6Zm4.32-23.56a3.07,3.07,0,0,1,3.14-3.1,2.57,2.57,0,0,1,2.74,2.69,3,3,0,0,1-3.23,3.08A2.52,2.52,0,0,1,192.71,130.81Z"/><path class="cls-2" d="M212.18,153.78a12.76,12.76,0,0,1-5.28,1c-4.59,0-7.83-2.81-7.83-7.64,0-6.59,5.06-11.76,12.13-11.76A10.84,10.84,0,0,1,215,136l-1.35,4.19a6.44,6.44,0,0,0-2.52-.46c-3.89,0-6.31,3.31-6.31,6.8a3.49,3.49,0,0,0,3.65,3.85,9,9,0,0,0,3.68-.77Z"/><path class="cls-2" d="M216,149.48a12,12,0,0,0,4.85,1.29c1.54,0,2.34-.76,2.34-1.69s-.6-1.54-2.31-2.39c-2.14-1.05-3.94-2.63-3.94-4.93,0-3.85,3.39-6.41,8.17-6.41a10.42,10.42,0,0,1,4.78,1l-1.3,3.87a9,9,0,0,0-3.72-.81c-1.45,0-2.41.63-2.41,1.63,0,.77.75,1.4,2.26,2.13,2,1,4.16,2.5,4.16,5.08,0,4.26-3.62,6.56-8.54,6.56a10.46,10.46,0,0,1-5.67-1.46Z"/><path class="cls-2" d="M230.87,151.58a3.72,3.72,0,0,1,3.7-3.86,3,3,0,0,1,3.14,3.25,3.62,3.62,0,0,1-3.75,3.77A3,3,0,0,1,230.87,151.58Z"/></svg>