<svg xmlns="http://www.w3.org/2000/svg" xmlns:xlink="http://www.w3.org/1999/xlink" viewBox="0 0 243.75 211.24"><defs><style>.cls-1{opacity:0.69;}.cls-2{fill:#ededed;}.cls-3{fill:url(#linear-gradient);}.cls-4{fill:url(#linear-gradient-2);}.cls-5{fill:#1b1464;}</style><linearGradient id="linear-gradient" x1="0.17" y1="-368.75" x2="243.83" y2="-368.75" gradientTransform="matrix(1, 0, 0, -1, 0, -263.3)" gradientUnits="userSpaceOnUse"><stop offset="0" stop-color="#fff"/><stop offset="1" stop-color="#ededed"/></linearGradient><linearGradient id="linear-gradient-2" x1="-0.08" y1="-368.92" x2="243.58" y2="-368.92" gradientTransform="matrix(1, 0, 0, -1, 0, -263.3)" gradientUnits="userSpaceOnUse"><stop offset="0.29" stop-color="#de058a"/><stop offset="0.45" stop-color="#e60b55"/><stop offset="0.66" stop-color="#e8184e"/><stop offset="0.89" stop-color="#ffa300"/><stop offset="1" stop-color="#fcee21"/></linearGradient></defs><g id="Layer_2" data-name="Layer 2"><g class="cls-1"><polygon class="cls-2" points="182.94 -0.09 61.07 -0.09 0.17 105.41 61.07 210.98 182.94 210.98 243.83 105.41 182.94 -0.09"/><path class="cls-3" d="M182.43.77l60.46,104.64L182.43,210.13H61.58L1.12,105.41,61.58.77H182.43m.51-.86H61.07L.17,105.41,61.07,211H182.94l60.89-105.57L182.94-.09Z"/></g><path class="cls-4" d="M182.25.94l60.38,104.64L182.17,210.3H61.32L1,105.58,61.32.94H182.25m.43-.85H60.81L-.08,105.58,60.81,211.15H182.68l60.9-105.57L182.68.09Z"/><path class="cls-5" d="M84.8,100.66l1.56-10.58c.43-2.76,1-6.28,1.72-10H88c-1.43,3.32-3,6.84-4.42,9.66l-5.23,10.49H74.05l-.91-10.38c-.22-2.81-.43-6.36-.56-9.77H72.5c-.74,3.4-1.5,7.25-2.14,10l-2.53,10.58h-5l6.43-25.61h7.32l.82,9.74c.14,2.39.42,5.3.43,8.14H78c1-2.84,2.37-5.84,3.47-8.15l4.75-9.73h7.41l-3.46,25.61Z"/><path class="cls-5" d="M114,89.31c0,6.78-4.67,11.77-11.1,11.77C98.17,101.08,95,98,95,93.39c0-6.43,4.5-11.75,11.1-11.75C111.11,81.64,114,85.06,114,89.31Zm-13.33,4c0,2.17,1.09,3.62,3,3.62,3,0,4.67-4.39,4.67-7.55,0-1.73-.75-3.53-2.93-3.53C102.26,85.82,100.67,90.4,100.67,93.28Z"/><path class="cls-5" d="M126.13,76.86l-1,5.2h4l-.81,4.17h-4l-1.25,6.31a13.54,13.54,0,0,0-.31,2.36,1.39,1.39,0,0,0,1.59,1.56,12.56,12.56,0,0,0,1.5-.08l-.63,4.28a10.81,10.81,0,0,1-3.23.41c-3.29,0-4.84-1.67-4.84-4a17.2,17.2,0,0,1,.39-3.45L119,86.23h-2.38l.79-4.17h2.39l.74-3.91Z"/><path class="cls-5" d="M128.84,100.66l3.53-18.6h5.47l-3.53,18.6Zm4.32-23.56A3.07,3.07,0,0,1,136.3,74,2.57,2.57,0,0,1,139,76.69a3,3,0,0,1-3.23,3.08A2.52,2.52,0,0,1,133.16,77.1Z"/><path class="cls-5" d="M158.53,89.31c0,6.78-4.66,11.77-11.09,11.77-4.73,0-7.89-3.06-7.89-7.69,0-6.43,4.5-11.75,11.1-11.75C155.65,81.64,158.53,85.06,158.53,89.31Zm-13.32,4c0,2.17,1.09,3.62,3,3.62,3,0,4.67-4.39,4.67-7.55,0-1.73-.75-3.53-2.92-3.53C146.79,85.82,145.2,90.4,145.21,93.28Z"/><path class="cls-5" d="M160.15,100.66l2.36-12.54c.47-2.36.76-4.39,1-6.06h4.83L168,85.15h.07a7.82,7.82,0,0,1,6.5-3.51c3,0,4.77,1.87,4.77,5.09a21.4,21.4,0,0,1-.31,3.12L177,100.66h-5.47l1.94-10.29a11.92,11.92,0,0,0,.21-2.08c0-1.31-.45-2.24-1.85-2.24-1.79,0-3.87,2.24-4.63,6.35l-1.56,8.26Z"/><path class="cls-5" d="M70.78,130.48a27.42,27.42,0,0,1-8.29,1.43,12.5,12.5,0,0,1-8.54-2.8,10.35,10.35,0,0,1-3.22-7.89A15.11,15.11,0,0,1,56,109.51a17.55,17.55,0,0,1,11.3-3.72A17.16,17.16,0,0,1,74,106.93l-1.63,4.61A13.84,13.84,0,0,0,67,110.49a9.72,9.72,0,0,0-10.23,10.33c0,4.3,2.54,6.46,6.58,6.46a7.51,7.51,0,0,0,2.79-.45l1-5.39h-4l.86-4.37h9.3Z"/><path class="cls-5" d="M75,131.66l2.09-11.07c.52-2.8.76-5.93,1-7.53h4.74c-.1,1.26-.2,2.51-.34,3.81h.12c1.31-2.47,3.38-4.23,5.92-4.23.35,0,.71,0,1,0L88.4,118c-.24,0-.54,0-.86,0-3.49,0-5.13,3.11-5.81,6.77l-1.3,6.91Z"/><path class="cls-5" d="M100.85,131.66c.05-1.09.15-2.36.25-3.68H101c-1.71,3.08-4.09,4.1-6.26,4.1-3.33,0-5.62-2.6-5.62-6.48,0-6.26,4.16-13,13.31-13a21.65,21.65,0,0,1,6.14.94l-2,9.72a46,46,0,0,0-.74,8.36Zm1.59-14.7a6.63,6.63,0,0,0-1.5-.16c-3.54,0-6.11,4.33-6.11,7.79,0,1.83.73,3.08,2.24,3.08s3.66-1.87,4.51-6.42Z"/><path class="cls-5" d="M108.43,139.18,112,120.25c.41-2.21.86-5.29,1.09-7.19H118l-.34,2.71h.08a7.48,7.48,0,0,1,6-3.13c4,0,6,3.24,6,7,0,6.46-4.3,12.39-10.77,12.39a7.07,7.07,0,0,1-3.45-.78h-.08l-1.5,7.88ZM116.25,127a3.58,3.58,0,0,0,2.49.88c2.92,0,5.22-4.15,5.22-7.81,0-1.47-.64-3-2.41-3-2,0-4,2.29-4.62,5.94Z"/><path class="cls-5" d="M131.27,131.66l5.11-27h5.47l-2.06,10.77h.08a7.78,7.78,0,0,1,5.91-2.82c2.89,0,4.69,1.83,4.69,5a20.86,20.86,0,0,1-.35,3.34l-2,10.64h-5.47l1.93-10.18a12.39,12.39,0,0,0,.23-2.31c0-1.22-.51-2.12-1.87-2.12-1.91,0-3.86,2.35-4.57,6.09l-1.61,8.52Z"/><path class="cls-5" d="M152.66,131.66l3.54-18.6h5.47l-3.54,18.6ZM157,108.1a3.07,3.07,0,0,1,3.14-3.1,2.58,2.58,0,0,1,2.75,2.69,3,3,0,0,1-3.23,3.08A2.54,2.54,0,0,1,157,108.1Z"/><path class="cls-5" d="M176.45,131.07a12.73,12.73,0,0,1-5.28,1c-4.58,0-7.82-2.81-7.82-7.64,0-6.59,5.05-11.76,12.13-11.76a10.73,10.73,0,0,1,3.77.63l-1.35,4.19a6.42,6.42,0,0,0-2.51-.46c-3.89,0-6.31,3.31-6.31,6.8a3.49,3.49,0,0,0,3.65,3.85,9.12,9.12,0,0,0,3.67-.77Z"/><path class="cls-5" d="M180.24,126.77a12,12,0,0,0,4.85,1.29c1.54,0,2.34-.76,2.34-1.69s-.6-1.54-2.32-2.39c-2.14-1-3.93-2.63-3.93-4.93,0-3.85,3.39-6.41,8.17-6.41a10.37,10.37,0,0,1,4.77,1l-1.3,3.87a8.92,8.92,0,0,0-3.71-.81c-1.45,0-2.42.63-2.42,1.63,0,.77.76,1.4,2.26,2.13,2,1,4.16,2.5,4.16,5.08,0,4.26-3.61,6.56-8.53,6.56a10.44,10.44,0,0,1-5.67-1.46Z"/></g></svg>