<svg id="Layer_1" data-name="Layer 1" xmlns="http://www.w3.org/2000/svg" xmlns:xlink="http://www.w3.org/1999/xlink" viewBox="0 0 243.75 211.24"><defs><style>.cls-1{fill:#b6b6b6;}.cls-2{fill:url(#linear-gradient);}.cls-3{fill:url(#linear-gradient-2);}.cls-4{fill:#1b1464;}</style><linearGradient id="linear-gradient" x1="2.17" y1="105.46" x2="243.31" y2="105.46" gradientUnits="userSpaceOnUse"><stop offset="0" stop-color="#fff"/><stop offset="1" stop-color="#ededed"/></linearGradient><linearGradient id="linear-gradient-2" x1="2.17" y1="105.46" x2="243.31" y2="105.46" gradientUnits="userSpaceOnUse"><stop offset="0.29" stop-color="#de058a"/><stop offset="0.45" stop-color="#e60b55"/><stop offset="0.66" stop-color="#e8184e"/><stop offset="0.89" stop-color="#ffa300"/><stop offset="1" stop-color="#fcee21"/></linearGradient></defs><polygon class="cls-1" points="183.03 1.04 62.45 1.04 2.17 105.46 62.45 209.88 183.03 209.88 243.31 105.46 183.03 1.04"/><path class="cls-2" d="M182.54,1.89l59.79,103.57L182.54,209H62.94L3.15,105.46,62.94,1.89h119.6M183,1H62.45L2.17,105.46,62.45,209.88H183l60.28-104.42L183,1Z"/><path class="cls-3" d="M182.54,1.89l59.79,103.57L182.54,209H62.94L3.15,105.46,62.94,1.89h119.6M183,1H62.45L2.17,105.46,62.45,209.88H183l60.28-104.42L183,1Z"/><path class="cls-4" d="M85.67,94.79l1.56-10.58c.42-2.76,1-6.28,1.71-10h-.1c-1.44,3.33-3,6.84-4.42,9.66L79.18,94.37H74.92L74,84c-.23-2.81-.43-6.35-.56-9.77h-.08c-.74,3.4-1.5,7.25-2.15,10L68.7,94.79h-5l6.43-25.61h7.32l.82,9.74c.15,2.4.43,5.3.43,8.15h.15c1-2.85,2.38-5.85,3.47-8.16L87,69.18h7.42L91,94.79Z"/><path class="cls-4" d="M114.86,83.44c0,6.78-4.66,11.77-11.1,11.77-4.73,0-7.88-3.06-7.88-7.69,0-6.43,4.5-11.74,11.1-11.74C112,75.78,114.86,79.2,114.86,83.44Zm-13.32,4c0,2.17,1.08,3.62,3,3.62,3,0,4.67-4.38,4.67-7.54,0-1.73-.75-3.54-2.92-3.54C103.12,80,101.53,84.53,101.54,87.41Z"/><path class="cls-4" d="M127,71l-1,5.19h4l-.82,4.18h-4L124,86.67a13.61,13.61,0,0,0-.3,2.36,1.38,1.38,0,0,0,1.58,1.56,10.69,10.69,0,0,0,1.5-.08l-.63,4.28a10.7,10.7,0,0,1-3.22.42c-3.3,0-4.84-1.68-4.84-4a16.41,16.41,0,0,1,.39-3.44l1.44-7.39H117.5l.78-4.18h2.39l.74-3.91Z"/><path class="cls-4" d="M129.7,94.79l3.54-18.6h5.47l-3.54,18.6ZM134,71.23a3.07,3.07,0,0,1,3.14-3.1,2.59,2.59,0,0,1,2.75,2.7,3,3,0,0,1-3.23,3.08A2.54,2.54,0,0,1,134,71.23Z"/><path class="cls-4" d="M159.4,83.44c0,6.78-4.67,11.77-11.1,11.77-4.73,0-7.89-3.06-7.89-7.69,0-6.43,4.5-11.74,11.1-11.74C156.51,75.78,159.4,79.2,159.4,83.44Zm-13.33,4c0,2.17,1.09,3.62,3,3.62,3,0,4.67-4.38,4.67-7.54,0-1.73-.75-3.54-2.93-3.54C147.66,80,146.07,84.53,146.07,87.41Z"/><path class="cls-4" d="M161,94.79l2.36-12.54c.46-2.35.75-4.39,1-6.06h4.83l-.35,3.09H169a7.78,7.78,0,0,1,6.5-3.5c3,0,4.77,1.86,4.77,5.08A21.58,21.58,0,0,1,179.9,84l-2.06,10.8h-5.47l1.94-10.29a11.92,11.92,0,0,0,.21-2.08c0-1.3-.44-2.23-1.85-2.23-1.78,0-3.86,2.24-4.63,6.34l-1.55,8.26Z"/><path class="cls-4" d="M71.65,124.61a27.46,27.46,0,0,1-8.3,1.44,12.52,12.52,0,0,1-8.54-2.8,10.38,10.38,0,0,1-3.21-7.9,15,15,0,0,1,5.23-11.7,17.49,17.49,0,0,1,11.3-3.72,17.25,17.25,0,0,1,6.78,1.13l-1.64,4.62a13.56,13.56,0,0,0-5.43-1.06A9.73,9.73,0,0,0,57.61,115c0,4.3,2.55,6.45,6.58,6.45A7.31,7.31,0,0,0,67,121l1-5.39H64l.87-4.36h9.3Z"/><path class="cls-4" d="M75.82,125.79l2.1-11.07c.52-2.79.75-5.92,1-7.53H83.6c-.09,1.26-.19,2.52-.34,3.81h.12c1.32-2.47,3.38-4.22,5.93-4.22.34,0,.7,0,1,0l-1.07,5.33c-.24,0-.54,0-.86,0-3.48,0-5.12,3.1-5.81,6.76l-1.3,6.91Z"/><path class="cls-4" d="M101.72,125.79c0-1.08.14-2.36.24-3.68h-.09c-1.71,3.09-4.09,4.1-6.25,4.1-3.33,0-5.63-2.59-5.63-6.48,0-6.26,4.17-13,13.31-13a21.75,21.75,0,0,1,6.15.93l-2,9.72a46,46,0,0,0-.75,8.36Zm1.58-14.7a7.24,7.24,0,0,0-1.49-.16c-3.54,0-6.11,4.34-6.12,7.79,0,1.83.74,3.08,2.25,3.08s3.66-1.86,4.5-6.41Z"/><path class="cls-4" d="M109.3,133.31l3.59-18.93c.41-2.21.85-5.29,1.08-7.19h4.9l-.33,2.71h.07a7.48,7.48,0,0,1,6-3.12c4,0,6,3.24,6,7,0,6.45-4.3,12.38-10.77,12.38a7.14,7.14,0,0,1-3.45-.77h-.08l-1.51,7.87Zm7.81-12.14a3.54,3.54,0,0,0,2.49.89c2.93,0,5.23-4.16,5.23-7.81,0-1.48-.64-3-2.41-3-2,0-4,2.28-4.62,5.93Z"/><path class="cls-4" d="M132.14,125.79l5.1-27h5.48l-2.06,10.77h.07a7.79,7.79,0,0,1,5.91-2.81c2.9,0,4.69,1.82,4.69,5a21,21,0,0,1-.35,3.35l-2,10.63h-5.47l1.93-10.18a12.37,12.37,0,0,0,.24-2.3c0-1.23-.51-2.12-1.88-2.12-1.91,0-3.86,2.34-4.56,6.09l-1.61,8.51Z"/><path class="cls-4" d="M153.53,125.79l3.53-18.6h5.47L159,125.79Zm4.32-23.56a3.07,3.07,0,0,1,3.14-3.1,2.58,2.58,0,0,1,2.74,2.7,3,3,0,0,1-3.23,3.08A2.53,2.53,0,0,1,157.85,102.23Z"/><path class="cls-4" d="M177.32,125.21a12.78,12.78,0,0,1-5.28,1c-4.59,0-7.83-2.81-7.83-7.64,0-6.59,5.06-11.76,12.13-11.76a10.73,10.73,0,0,1,3.77.63l-1.34,4.2a6.24,6.24,0,0,0-2.52-.47c-3.89,0-6.31,3.32-6.31,6.8a3.5,3.5,0,0,0,3.65,3.86,9,9,0,0,0,3.68-.78Z"/><path class="cls-4" d="M181.1,120.9a11.84,11.84,0,0,0,4.85,1.29c1.54,0,2.34-.76,2.34-1.69s-.6-1.54-2.31-2.38c-2.14-1.05-3.94-2.63-3.94-4.94,0-3.85,3.39-6.4,8.17-6.4a10.44,10.44,0,0,1,4.78,1l-1.3,3.87a9,9,0,0,0-3.72-.81c-1.45,0-2.41.63-2.41,1.63,0,.77.75,1.41,2.26,2.14,2,1,4.16,2.49,4.16,5.07,0,4.26-3.62,6.56-8.54,6.56a10.53,10.53,0,0,1-5.67-1.45Z"/></svg>