<svg xmlns="http://www.w3.org/2000/svg" xmlns:xlink="http://www.w3.org/1999/xlink" viewBox="0 0 200.44 172.9"><defs><style>.cls-1{opacity:0.55;}.cls-2{fill:#ededed;}.cls-3{fill:url(#linear-gradient);}.cls-4{fill:url(#linear-gradient-2);}</style><linearGradient id="linear-gradient" x1="0.72" y1="-969.06" x2="199.5" y2="-969.06" gradientTransform="matrix(1, 0, 0, -1, 0, -882.71)" gradientUnits="userSpaceOnUse"><stop offset="0" stop-color="#fff"/><stop offset="1" stop-color="#ededed"/></linearGradient><linearGradient id="linear-gradient-2" x1="0.93" y1="-969.27" x2="199.71" y2="-969.27" gradientTransform="matrix(1, 0, 0, -1, 0, -882.71)" gradientUnits="userSpaceOnUse"><stop offset="0" stop-color="#8b078f"/><stop offset="0.49" stop-color="#5865c5"/><stop offset="1" stop-color="#24c7fe"/></linearGradient></defs><g id="Layer_2" data-name="Layer 2"><g class="cls-1"><polygon class="cls-2" points="149.83 0.25 50.4 0.25 0.72 86.31 50.4 172.44 149.83 172.44 199.57 86.31 149.83 0.25"/><path class="cls-3" d="M149.48,1,198.8,86.31l-49.32,85.43H50.82L1.56,86.31,50.89,1h98.59m.35-.7H50.4L.72,86.31,50.4,172.44h99.43L199.5,86.31,149.83.25Z"/></g><path class="cls-4" d="M149.62,1.16l49.32,85.36L149.62,172H51L1.7,86.52,51,1.16h98.59m.42-.7H50.61L.93,86.52l49.68,86.13H150l49.67-86.13L150,.46Z"/></g></svg>