<svg id="Layer_1" data-name="Layer 1" xmlns="http://www.w3.org/2000/svg" xmlns:xlink="http://www.w3.org/1999/xlink" viewBox="0 0 200.44 172.9"><defs><style>.cls-1{fill:#b6b6b6;}.cls-2{fill:url(#linear-gradient);}.cls-3{fill:url(#linear-gradient-2);}</style><linearGradient id="linear-gradient" x1="0.29" y1="86.44" x2="198.69" y2="86.44" gradientUnits="userSpaceOnUse"><stop offset="0" stop-color="#fff"/><stop offset="1" stop-color="#ededed"/></linearGradient><linearGradient id="linear-gradient-2" x1="0.29" y1="86.46" x2="198.69" y2="86.46" gradientUnits="userSpaceOnUse"><stop offset="0" stop-color="#8b078f"/><stop offset="0.49" stop-color="#5865c5"/><stop offset="1" stop-color="#24c7fe"/></linearGradient></defs><polygon class="cls-1" points="149.09 0.53 49.89 0.53 0.29 86.44 49.89 172.35 149.09 172.35 198.69 86.44 149.09 0.53"/><path class="cls-2" d="M148.51,1.53l49,84.91-49,84.91h-98l-49-84.91,49-84.91h98m.58-1H49.89L.29,86.44l49.6,85.91h99.2l49.6-85.91L149.09.53Z"/><path class="cls-3" d="M148.51,1.55l49,84.91-49,84.91h-98l-49-84.91,49-84.91h98m.58-1H49.89L.29,86.46l49.6,85.91h99.2l49.6-85.91L149.09.55Z"/></svg>