<svg id="Layer_1" data-name="Layer 1" xmlns="http://www.w3.org/2000/svg" xmlns:xlink="http://www.w3.org/1999/xlink" viewBox="0 0 284.87 249.37"><defs><style>.cls-1{fill:#b6b6b6;}.cls-2{fill:url(#linear-gradient);}.cls-3{fill:#1b1464;}.cls-4{fill:url(#linear-gradient-2);}</style><linearGradient id="linear-gradient" x1="-0.06" y1="123.78" x2="284.11" y2="123.78" gradientUnits="userSpaceOnUse"><stop offset="0" stop-color="#fff"/><stop offset="1" stop-color="#ededed"/></linearGradient><linearGradient id="linear-gradient-2" x1="0.21" y1="124.14" x2="284.38" y2="124.14" gradientUnits="userSpaceOnUse"><stop offset="0" stop-color="#8b078f"/><stop offset="0.49" stop-color="#5865c5"/><stop offset="1" stop-color="#24c7fe"/></linearGradient></defs><polygon class="cls-1" points="213.07 0.73 70.98 0.73 -0.06 123.78 70.98 246.84 213.07 246.84 284.11 123.78 213.07 0.73"/><path class="cls-2" d="M212.49,1.73,283,123.78,212.49,245.83H71.56l-70.47-122,70.47-122H212.49m.58-1H71l-71,123.05L71,246.83H213.07l71-123-71-123Z"/><path class="cls-3" d="M121.31,117.87a11.78,11.78,0,0,0,5.43,1.37c3.06,0,4.88-1.54,4.88-3.51,0-2.22-1.82-3.3-5-3.3h-1l.8-4.16h.87c2.57,0,5.48-1,5.48-3.25,0-1.22-.92-2.13-3-2.13a10.71,10.71,0,0,0-5.09,1.21l-.76-4.1a15,15,0,0,1,6.93-1.69c4.15,0,7.75,1.92,7.75,5.81,0,3-2.43,5.3-5.51,6.07l0,.08a5.29,5.29,0,0,1,4.31,5.42c0,5.2-5.29,8.16-10.69,8.16-3.15,0-5.9-.77-7-1.69Z"/><path class="cls-3" d="M145.43,98.21a41,41,0,0,1,7.08-.56c4,0,7.17.89,9.34,2.76,2.07,1.71,3.37,4.24,3.38,8A14.91,14.91,0,0,1,160,120.18c-3,2.38-6.73,3.42-12.28,3.42a43.8,43.8,0,0,1-7-.49ZM147,119a15.9,15.9,0,0,0,2.39.14,9.48,9.48,0,0,0,7.27-3,11.49,11.49,0,0,0,2.65-7.72c0-4-2.24-6.44-6.76-6.44a13.08,13.08,0,0,0-2.33.17Z"/><path class="cls-3" d="M63.39,147.78l-3,6.65H54.54L67,128.82h7l3,25.61H71.3l-.52-6.65Zm7.15-4.17-.5-5.52c-.11-1.41-.23-3.46-.35-5h-.08c-.67,1.56-1.37,3.55-2.06,5L65,143.61Z"/><path class="cls-3" d="M79.86,154.43l2.36-12.54c.46-2.36.75-4.39,1-6.06h4.83l-.35,3.09h.08a7.79,7.79,0,0,1,6.5-3.51c3,0,4.77,1.87,4.77,5.09a21.45,21.45,0,0,1-.32,3.12l-2.06,10.81H91.21l1.94-10.29a11.92,11.92,0,0,0,.21-2.08c0-1.31-.45-2.24-1.85-2.24-1.78,0-3.86,2.24-4.63,6.35l-1.55,8.26Z"/><path class="cls-3" d="M101.25,154.43l3.53-18.6h5.47l-3.53,18.6Zm4.32-23.56a3.07,3.07,0,0,1,3.14-3.1,2.57,2.57,0,0,1,2.74,2.69,3,3,0,0,1-3.23,3.08A2.52,2.52,0,0,1,105.57,130.87Z"/><path class="cls-3" d="M111.32,154.43l2.31-12.54c.45-2.36.74-4.39,1-6.06h4.7l-.34,3H119a7.62,7.62,0,0,1,6.36-3.45c3,0,4.25,1.88,4.4,3.52a7.75,7.75,0,0,1,6.41-3.52c2.87,0,4.54,1.85,4.54,5a22.63,22.63,0,0,1-.32,3.2l-2,10.82h-5.3L135,144.27a12.63,12.63,0,0,0,.26-2.26c0-1.29-.56-2.2-1.84-2.2-1.82,0-3.64,2.45-4.34,6.2l-1.57,8.42H122.2l1.91-10.22a12,12,0,0,0,.25-2.12c0-1.27-.41-2.28-1.76-2.28-1.85,0-3.79,2.6-4.46,6.25l-1.52,8.37Z"/><path class="cls-3" d="M155.08,154.43c0-1.09.14-2.36.24-3.68h-.09c-1.71,3.09-4.09,4.1-6.26,4.1-3.33,0-5.62-2.6-5.62-6.48,0-6.26,4.17-13,13.31-13a21.65,21.65,0,0,1,6.14.94l-2,9.72a46,46,0,0,0-.74,8.36Zm1.58-14.7a6.6,6.6,0,0,0-1.49-.16c-3.54,0-6.12,4.33-6.12,7.79,0,1.82.74,3.08,2.24,3.08s3.66-1.86,4.51-6.42Z"/><path class="cls-3" d="M174.58,130.63l-1,5.2h4l-.81,4.17h-4l-1.24,6.31a12.65,12.65,0,0,0-.31,2.36,1.39,1.39,0,0,0,1.58,1.56,12.62,12.62,0,0,0,1.51-.08l-.63,4.28a10.85,10.85,0,0,1-3.23.41c-3.29,0-4.84-1.67-4.84-4a16.49,16.49,0,0,1,.39-3.45l1.44-7.39h-2.38l.79-4.17h2.38l.74-3.91Z"/><path class="cls-3" d="M177.29,154.43l3.53-18.6h5.47l-3.53,18.6Zm4.31-23.56a3.08,3.08,0,0,1,3.14-3.1,2.58,2.58,0,0,1,2.75,2.69,3,3,0,0,1-3.23,3.08A2.54,2.54,0,0,1,181.6,130.87Z"/><path class="cls-3" d="M207,143.08c0,6.78-4.66,11.77-11.1,11.77-4.73,0-7.89-3.06-7.89-7.69,0-6.43,4.51-11.75,11.1-11.75C204.09,135.41,207,138.83,207,143.08Zm-13.32,4c0,2.17,1.08,3.62,3,3.62,3,0,4.67-4.39,4.67-7.55,0-1.73-.75-3.53-2.93-3.53C195.24,139.59,193.65,144.17,193.66,147.05Z"/><path class="cls-3" d="M208.6,154.43,211,141.89c.46-2.36.75-4.39,1-6.06h4.83l-.35,3.09h.08a7.79,7.79,0,0,1,6.5-3.51c3,0,4.77,1.87,4.77,5.09a21.45,21.45,0,0,1-.32,3.12l-2,10.81H220l1.94-10.29a13,13,0,0,0,.2-2.08c0-1.31-.44-2.24-1.85-2.24-1.78,0-3.86,2.24-4.63,6.35l-1.55,8.26Z"/><path class="cls-4" d="M212.76,2.09l70.46,122.05L212.76,246.19H71.83l-70.47-122,70.47-122H212.76m.58-1H71.25L.21,124.14l71,123.05H213.34l71-123-71-123Z"/></svg>