<svg xmlns="http://www.w3.org/2000/svg" xmlns:xlink="http://www.w3.org/1999/xlink" viewBox="0 0 284.87 249.38"><defs><style>.cls-1{opacity:0.55;}.cls-2{fill:#ededed;}.cls-3{fill:url(#linear-gradient);}.cls-4{fill:url(#linear-gradient-2);}.cls-5{fill:#1b1464;}</style><linearGradient id="linear-gradient" x1="0.04" y1="-1682.36" x2="284.14" y2="-1682.36" gradientTransform="matrix(1, 0, 0, -1, 0, -1557.82)" gradientUnits="userSpaceOnUse"><stop offset="0" stop-color="#fff"/><stop offset="1" stop-color="#ededed"/></linearGradient><linearGradient id="linear-gradient-2" x1="0.34" y1="-1682.66" x2="284.44" y2="-1682.66" gradientTransform="matrix(1, 0, 0, -1, 0, -1557.82)" gradientUnits="userSpaceOnUse"><stop offset="0" stop-color="#8b078f"/><stop offset="0.49" stop-color="#5865c5"/><stop offset="1" stop-color="#24c7fe"/></linearGradient></defs><g id="Layer_2" data-name="Layer 2"><g class="cls-1"><polygon class="cls-2" points="213.14 1.49 71.04 1.49 0.04 124.49 71.04 247.59 213.14 247.59 284.24 124.49 213.14 1.49"/><path class="cls-3" d="M212.64,2.49l70.5,122-70.5,122.1h-141L1.24,124.49l70.5-122h140.9m.5-1H71l-71,123,71,123.1h142.1l71-123.1-71-123Z"/></g><path class="cls-4" d="M212.84,2.79l70.5,122-70.5,122.1H71.94L1.44,124.79l70.5-122h140.9m.6-1H71.34l-71,123,71,123.1h142.1l71-123.1-71-123Z"/><path class="cls-5" d="M128.71,114.7a11.78,11.78,0,0,0,5.43,1.37c3.06,0,4.89-1.54,4.89-3.51,0-2.22-1.83-3.3-5.05-3.3h-1l.8-4.16h.87c2.57,0,5.48-1,5.48-3.25,0-1.22-.92-2.13-3-2.13a10.71,10.71,0,0,0-5.09,1.21l-.76-4.1a15,15,0,0,1,6.93-1.69c4.15,0,7.75,1.92,7.75,5.81,0,3-2.43,5.3-5.51,6.07l0,.07a5.31,5.31,0,0,1,4.31,5.43c0,5.19-5.29,8.15-10.69,8.15-3.15,0-5.9-.76-7-1.68Z"/><path class="cls-5" d="M152.83,95a41,41,0,0,1,7.08-.56c4,0,7.17.89,9.34,2.76,2.07,1.71,3.37,4.24,3.38,8A14.92,14.92,0,0,1,167.38,117c-3,2.37-6.73,3.42-12.28,3.42a43.55,43.55,0,0,1-7-.49Zm1.55,20.81a17.35,17.35,0,0,0,2.39.14,9.48,9.48,0,0,0,7.27-3,11.51,11.51,0,0,0,2.65-7.72c0-4-2.24-6.44-6.76-6.44a13.08,13.08,0,0,0-2.33.17Z"/><path class="cls-5" d="M70.79,144.6l-3,6.66H61.94l12.49-25.61h7l3,25.61H78.7l-.52-6.66Zm7.15-4.17-.5-5.51c-.11-1.41-.23-3.47-.35-5H77c-.67,1.57-1.37,3.56-2.06,5l-2.53,5.51Z"/><path class="cls-5" d="M87.26,151.26l2.36-12.54c.46-2.36.75-4.39,1-6.06h4.83l-.35,3.08h.08a7.81,7.81,0,0,1,6.5-3.5c3,0,4.77,1.86,4.77,5.09a21.45,21.45,0,0,1-.32,3.12l-2.06,10.81H98.61L100.55,141a11.92,11.92,0,0,0,.21-2.08c0-1.31-.44-2.24-1.85-2.24-1.78,0-3.86,2.24-4.63,6.35l-1.55,8.26Z"/><path class="cls-5" d="M108.65,151.26l3.53-18.6h5.47l-3.53,18.6ZM113,127.69a3.06,3.06,0,0,1,3.14-3.09,2.57,2.57,0,0,1,2.74,2.69,3,3,0,0,1-3.23,3.08A2.53,2.53,0,0,1,113,127.69Z"/><path class="cls-5" d="M118.72,151.26,121,138.72c.45-2.36.74-4.39,1-6.06h4.7l-.33,3h0a7.59,7.59,0,0,1,6.36-3.45c3,0,4.25,1.88,4.4,3.52a7.73,7.73,0,0,1,6.41-3.52c2.87,0,4.54,1.85,4.54,5a22.5,22.5,0,0,1-.32,3.19l-2,10.83h-5.3l1.87-10.16a12.63,12.63,0,0,0,.26-2.26c0-1.3-.56-2.2-1.84-2.2-1.82,0-3.64,2.45-4.34,6.2l-1.57,8.42H129.6L131.51,141a12.15,12.15,0,0,0,.25-2.13c0-1.27-.41-2.27-1.76-2.27-1.85,0-3.79,2.59-4.46,6.25L124,151.26Z"/><path class="cls-5" d="M162.48,151.26c0-1.09.14-2.36.24-3.69h-.09c-1.71,3.09-4.09,4.1-6.25,4.1-3.34,0-5.63-2.59-5.63-6.47,0-6.26,4.17-13,13.31-13a22,22,0,0,1,6.14.93l-2,9.72a46.15,46.15,0,0,0-.74,8.37Zm1.58-14.7a6.6,6.6,0,0,0-1.49-.16c-3.54,0-6.12,4.33-6.12,7.79,0,1.82.74,3.08,2.25,3.08s3.65-1.87,4.5-6.42Z"/><path class="cls-5" d="M182,127.46l-1,5.2h4l-.81,4.17h-4L179,143.14a12.55,12.55,0,0,0-.31,2.35,1.38,1.38,0,0,0,1.58,1.56,12.62,12.62,0,0,0,1.51-.07l-.63,4.28a10.85,10.85,0,0,1-3.23.41c-3.29,0-4.84-1.68-4.84-4a16.42,16.42,0,0,1,.39-3.45l1.44-7.39h-2.38l.79-4.17h2.38l.74-3.91Z"/><path class="cls-5" d="M184.69,151.26l3.53-18.6h5.47l-3.53,18.6ZM189,127.69a3.08,3.08,0,0,1,3.14-3.09,2.58,2.58,0,0,1,2.75,2.69,3,3,0,0,1-3.23,3.08A2.54,2.54,0,0,1,189,127.69Z"/><path class="cls-5" d="M214.38,139.91c0,6.77-4.66,11.76-11.1,11.76-4.73,0-7.89-3.06-7.89-7.69,0-6.42,4.51-11.74,11.1-11.74C211.49,132.24,214.38,135.66,214.38,139.91Zm-13.32,4c0,2.18,1.08,3.63,3,3.63,3,0,4.67-4.39,4.67-7.55,0-1.73-.75-3.53-2.93-3.53C202.64,136.42,201.05,141,201.06,143.87Z"/><path class="cls-5" d="M216,151.26l2.36-12.54c.47-2.36.75-4.39,1-6.06h4.83l-.35,3.08h.08a7.81,7.81,0,0,1,6.5-3.5c3,0,4.77,1.86,4.77,5.09a21.45,21.45,0,0,1-.32,3.12l-2,10.81h-5.47L229.3,141a13,13,0,0,0,.2-2.08c0-1.31-.44-2.24-1.85-2.24-1.78,0-3.86,2.24-4.63,6.35l-1.55,8.26Z"/></g></svg>