<svg id="Layer_1" data-name="Layer 1" xmlns="http://www.w3.org/2000/svg" xmlns:xlink="http://www.w3.org/1999/xlink" viewBox="0 0 284.17 246.64"><defs><style>.cls-1{fill:url(#linear-gradient);}.cls-2{fill:#ccc;}</style><linearGradient id="linear-gradient" y1="123.43" x2="284.17" y2="123.43" gradientUnits="userSpaceOnUse"><stop offset="0" stop-color="#8b078f"/><stop offset="0.49" stop-color="#5865c5"/><stop offset="1" stop-color="#24c7fe"/></linearGradient></defs><path class="cls-1" d="M212.55,1.38,283,123.43l-70.47,122H71.62l-70.47-122,70.47-122H212.55m.58-1H71L0,123.43l71,123H213.13l71-123-71-123Z"/><path class="cls-2" d="M61.8,116.43l-3,6.65H53L65.44,97.47h7l3,25.61H69.71l-.52-6.65ZM69,112.26l-.5-5.52c-.11-1.4-.23-3.46-.35-5H68c-.67,1.57-1.37,3.56-2.06,5l-2.53,5.52Z"/><path class="cls-2" d="M78.27,123.08l2.36-12.54c.46-2.35.75-4.39,1-6.05h4.83l-.35,3.08h.08a7.78,7.78,0,0,1,6.5-3.5c3,0,4.77,1.86,4.77,5.08a21.58,21.58,0,0,1-.32,3.13l-2.06,10.8H89.62l1.94-10.29a11.92,11.92,0,0,0,.21-2.08c0-1.3-.45-2.23-1.85-2.23-1.78,0-3.86,2.24-4.63,6.34l-1.55,8.26Z"/><path class="cls-2" d="M99.66,123.08l3.53-18.59h5.47l-3.53,18.59ZM104,99.52a3.07,3.07,0,0,1,3.14-3.1,2.58,2.58,0,0,1,2.74,2.7,3,3,0,0,1-3.23,3.08A2.53,2.53,0,0,1,104,99.52Z"/><path class="cls-2" d="M109.73,123.08,112,110.54c.45-2.35.74-4.39,1-6.05h4.7l-.34,3h.06a7.59,7.59,0,0,1,6.36-3.45c3,0,4.25,1.88,4.4,3.52a7.7,7.7,0,0,1,6.41-3.52c2.87,0,4.54,1.85,4.54,5a22.63,22.63,0,0,1-.32,3.2l-2,10.82h-5.3l1.87-10.16a12.42,12.42,0,0,0,.26-2.25c0-1.3-.56-2.21-1.84-2.21-1.82,0-3.64,2.45-4.34,6.2l-1.57,8.42h-5.27l1.91-10.22a11.93,11.93,0,0,0,.25-2.12c0-1.27-.41-2.28-1.76-2.28-1.85,0-3.79,2.6-4.46,6.26L115,123.08Z"/><path class="cls-2" d="M153.49,123.08c0-1.08.14-2.36.24-3.68h-.09c-1.71,3.09-4.09,4.1-6.25,4.1-3.34,0-5.63-2.59-5.63-6.47,0-6.27,4.17-13,13.31-13a21.68,21.68,0,0,1,6.14.93l-2,9.72a46,46,0,0,0-.74,8.36Zm1.58-14.7a7.28,7.28,0,0,0-1.49-.15c-3.54,0-6.12,4.33-6.12,7.78,0,1.83.74,3.08,2.24,3.08s3.66-1.86,4.51-6.41Z"/><path class="cls-2" d="M176.07,122.5a12.73,12.73,0,0,1-5.27,1c-4.59,0-7.83-2.81-7.83-7.63,0-6.6,5.06-11.77,12.13-11.77a10.73,10.73,0,0,1,3.77.63l-1.34,4.2a6.3,6.3,0,0,0-2.52-.46c-3.89,0-6.31,3.31-6.31,6.79a3.5,3.5,0,0,0,3.65,3.86,9,9,0,0,0,3.68-.78Z"/><path class="cls-2" d="M179,123.08l3.53-18.59H188l-3.53,18.59Zm4.32-23.56a3.07,3.07,0,0,1,3.14-3.1,2.59,2.59,0,0,1,2.75,2.7A3.05,3.05,0,0,1,186,102.2,2.53,2.53,0,0,1,183.32,99.52Z"/><path class="cls-2" d="M208.7,111.73c0,6.78-4.67,11.77-11.1,11.77-4.73,0-7.89-3.06-7.89-7.69,0-6.43,4.5-11.74,11.1-11.74C205.81,104.07,208.7,107.49,208.7,111.73Zm-13.33,4c0,2.18,1.09,3.63,3,3.63,3,0,4.66-4.39,4.66-7.55,0-1.73-.75-3.54-2.92-3.54C197,108.24,195.36,112.82,195.37,115.7Zm12.27-19.2-4.94,5.76h-4l3.57-5.76Z"/><path class="cls-2" d="M210.31,123.08l2.36-12.54c.47-2.35.76-4.39,1-6.05h4.84l-.35,3.08h.07a7.81,7.81,0,0,1,6.5-3.5c3,0,4.77,1.86,4.77,5.08a21.53,21.53,0,0,1-.31,3.13l-2.06,10.8h-5.47l1.94-10.29a11.92,11.92,0,0,0,.21-2.08c0-1.3-.45-2.23-1.85-2.23-1.79,0-3.86,2.24-4.63,6.34l-1.56,8.26Z"/><path class="cls-2" d="M119.29,154.08l.65-3.52,5.34-4.11c4.92-4,8.1-6.92,8.1-9.9,0-1.73-1.21-3-3.4-3a9.71,9.71,0,0,0-5.23,1.46l-1.11-3.92A15.21,15.21,0,0,1,131.3,129c5,0,7.71,2.91,7.71,6.73,0,5-4,8.54-8.38,11.87l-2.45,1.77v.08H137l-.86,4.66Z"/><path class="cls-2" d="M145.5,128.86a40.77,40.77,0,0,1,7.07-.56c4,0,7.17.9,9.34,2.77,2.08,1.71,3.38,4.24,3.38,8A14.94,14.94,0,0,1,160,150.84c-3,2.37-6.73,3.41-12.28,3.41a43.65,43.65,0,0,1-7-.49ZM147,149.68a17.71,17.71,0,0,0,2.4.13,9.43,9.43,0,0,0,7.26-3,11.47,11.47,0,0,0,2.65-7.71c0-4-2.24-6.44-6.76-6.44a13.08,13.08,0,0,0-2.33.17Z"/></svg>