<svg id="Layer_1" data-name="Layer 1" xmlns="http://www.w3.org/2000/svg" xmlns:xlink="http://www.w3.org/1999/xlink" viewBox="0 0 285.25 246.31"><defs><style>.cls-1{fill:url(#linear-gradient);}.cls-2{fill:#ccc;}</style><linearGradient id="linear-gradient" x1="0.54" y1="123.15" x2="284.71" y2="123.15" gradientUnits="userSpaceOnUse"><stop offset="0" stop-color="#8b078f"/><stop offset="0.49" stop-color="#5865c5"/><stop offset="1" stop-color="#24c7fe"/></linearGradient></defs><path class="cls-1" d="M213.09,1.1l70.47,122.05-70.47,122H72.16L1.7,123.15,72.16,1.1H213.09m.58-1H71.58L.54,123.15l71,123H213.67l71-123-71-123Z"/><path class="cls-2" d="M61.8,117.37l-3,6.65H53l12.49-25.6h7l3,25.6H69.71l-.52-6.65ZM69,113.2l-.5-5.51c-.11-1.41-.23-3.47-.35-5H68c-.67,1.57-1.37,3.56-2.06,5l-2.53,5.52Z"/><path class="cls-2" d="M78.27,124l2.36-12.54c.46-2.35.75-4.39,1-6h4.83l-.35,3.08h.08a7.78,7.78,0,0,1,6.5-3.5c3,0,4.77,1.86,4.77,5.09a21.59,21.59,0,0,1-.32,3.12L95.09,124H89.62l1.94-10.28a12.14,12.14,0,0,0,.21-2.09c0-1.3-.44-2.23-1.85-2.23-1.78,0-3.86,2.24-4.63,6.34L83.74,124Z"/><path class="cls-2" d="M99.66,124l3.53-18.59h5.47L105.13,124ZM104,100.46a3.06,3.06,0,0,1,3.14-3.09,2.57,2.57,0,0,1,2.74,2.69,3,3,0,0,1-3.23,3.08A2.53,2.53,0,0,1,104,100.46Z"/><path class="cls-2" d="M109.73,124,112,111.48c.45-2.35.74-4.39,1-6h4.7l-.33,3h.05a7.59,7.59,0,0,1,6.36-3.45c3,0,4.25,1.88,4.4,3.52A7.73,7.73,0,0,1,134.6,105c2.87,0,4.54,1.85,4.54,5a22.49,22.49,0,0,1-.32,3.2l-2,10.82h-5.3l1.87-10.15a12.63,12.63,0,0,0,.26-2.26c0-1.3-.56-2.21-1.84-2.21-1.82,0-3.64,2.45-4.34,6.2L125.88,124h-5.27l1.91-10.21a12.15,12.15,0,0,0,.25-2.13c0-1.27-.41-2.28-1.76-2.28-1.85,0-3.79,2.6-4.46,6.26L115,124Z"/><path class="cls-2" d="M153.49,124c0-1.08.14-2.35.24-3.68h-.09c-1.71,3.09-4.09,4.1-6.25,4.1-3.34,0-5.63-2.59-5.63-6.47,0-6.27,4.17-13,13.31-13a21.62,21.62,0,0,1,6.14.93l-2,9.72a46,46,0,0,0-.74,8.36Zm1.58-14.7a7.28,7.28,0,0,0-1.49-.15c-3.54,0-6.12,4.33-6.12,7.78,0,1.83.74,3.08,2.25,3.08s3.65-1.86,4.5-6.41Z"/><path class="cls-2" d="M176.07,123.44a12.7,12.7,0,0,1-5.27,1c-4.59,0-7.83-2.81-7.83-7.63C163,110.19,168,105,175.1,105a10.73,10.73,0,0,1,3.77.63l-1.34,4.2a6.3,6.3,0,0,0-2.52-.46c-3.89,0-6.31,3.31-6.31,6.79a3.5,3.5,0,0,0,3.65,3.86,9.14,9.14,0,0,0,3.68-.77Z"/><path class="cls-2" d="M179,124l3.54-18.59H188L184.47,124Zm4.32-23.56a3.06,3.06,0,0,1,3.14-3.09,2.58,2.58,0,0,1,2.75,2.69,3.05,3.05,0,0,1-3.23,3.08A2.53,2.53,0,0,1,183.32,100.46Z"/><path class="cls-2" d="M208.7,112.67c0,6.78-4.67,11.77-11.1,11.77-4.73,0-7.89-3.06-7.89-7.69,0-6.43,4.5-11.74,11.1-11.74C205.81,105,208.7,108.43,208.7,112.67Zm-13.33,4c0,2.18,1.09,3.63,3,3.63,3,0,4.67-4.39,4.67-7.55,0-1.73-.76-3.54-2.93-3.54C197,109.18,195.37,113.77,195.37,116.64Zm12.27-19.2-4.94,5.77h-4l3.57-5.77Z"/><path class="cls-2" d="M210.31,124l2.36-12.54c.47-2.35.76-4.39,1-6h4.84l-.35,3.08h.07a7.81,7.81,0,0,1,6.5-3.5c3,0,4.78,1.86,4.78,5.09a21.59,21.59,0,0,1-.32,3.12L227.14,124h-5.47l1.94-10.28a12.14,12.14,0,0,0,.21-2.09c0-1.3-.45-2.23-1.85-2.23-1.79,0-3.86,2.24-4.63,6.34L215.78,124Z"/><path class="cls-2" d="M121.37,149.47a11.82,11.82,0,0,0,5.43,1.37c3.06,0,4.89-1.54,4.89-3.52,0-2.21-1.83-3.3-5-3.29h-1l.8-4.17h.88c2.56,0,5.47-1,5.47-3.24,0-1.22-.92-2.13-3-2.13a10.74,10.74,0,0,0-5.09,1.21l-.76-4.11a15.16,15.16,0,0,1,6.93-1.68c4.15,0,7.75,1.91,7.75,5.8,0,3.06-2.42,5.31-5.51,6.08l0,.07a5.31,5.31,0,0,1,4.31,5.43c0,5.19-5.28,8.15-10.69,8.15-3.15,0-5.9-.76-7-1.68Z"/><path class="cls-2" d="M145.5,129.8a41.87,41.87,0,0,1,7.07-.56c4,0,7.17.9,9.34,2.77,2.08,1.71,3.38,4.24,3.38,8A14.94,14.94,0,0,1,160,151.78c-3,2.37-6.73,3.41-12.28,3.41a45.19,45.19,0,0,1-7-.48ZM147,150.62a17.71,17.71,0,0,0,2.4.13,9.43,9.43,0,0,0,7.26-3,11.47,11.47,0,0,0,2.65-7.71c0-4-2.24-6.44-6.76-6.44a13.08,13.08,0,0,0-2.33.17Z"/></svg>