<svg id="Layer_1" data-name="Layer 1" xmlns="http://www.w3.org/2000/svg" xmlns:xlink="http://www.w3.org/1999/xlink" viewBox="0 0 284.71 248.01"><defs><style>.cls-1{fill:#b6b6b6;}.cls-2{fill:url(#linear-gradient);}.cls-3{fill:url(#linear-gradient-2);}.cls-4{fill:#1b1464;}</style><linearGradient id="linear-gradient" x1="0.53" y1="124" x2="284.71" y2="124" gradientUnits="userSpaceOnUse"><stop offset="0" stop-color="#fff"/><stop offset="1" stop-color="#ededed"/></linearGradient><linearGradient id="linear-gradient-2" x1="0.53" y1="123.58" x2="284.71" y2="123.58" gradientUnits="userSpaceOnUse"><stop offset="0" stop-color="#8b078f"/><stop offset="0.49" stop-color="#5865c5"/><stop offset="1" stop-color="#24c7fe"/></linearGradient></defs><polygon class="cls-1" points="213.66 0.95 71.58 0.95 0.53 124 71.58 247.05 213.66 247.05 284.7 124 213.66 0.95"/><path class="cls-2" d="M213.08,2,283.55,124,213.08,246.05H72.15L1.69,124,72.15,2H213.08m.58-1H71.58L.53,124,71.58,247.05H213.66l71-123-71-123Z"/><path class="cls-3" d="M213.08,1.53l70.47,122.05L213.08,245.64H72.15L1.69,123.58l70.46-122H213.08m.58-1H71.58L.53,123.58,71.58,246.64H213.66l71-123.06-71-123Z"/><path class="cls-4" d="M119.82,117.25l.66-3.52,5.33-4.11c4.93-4,8.1-6.92,8.1-9.9,0-1.73-1.21-3-3.4-3a9.71,9.71,0,0,0-5.23,1.46l-1.1-3.92a15.18,15.18,0,0,1,7.66-2.13c5,0,7.71,2.91,7.71,6.73,0,5-4.05,8.54-8.39,11.87l-2.45,1.77v.08h8.86l-.87,4.66Z"/><path class="cls-4" d="M146,92a40.93,40.93,0,0,1,7.07-.56c4,0,7.18.9,9.34,2.77,2.08,1.71,3.38,4.24,3.38,8A14.94,14.94,0,0,1,160.58,114c-3,2.37-6.74,3.41-12.28,3.41a43.8,43.8,0,0,1-7-.49Zm1.54,20.82a17.81,17.81,0,0,0,2.4.13,9.41,9.41,0,0,0,7.26-3,11.47,11.47,0,0,0,2.66-7.71c0-4-2.25-6.44-6.77-6.44a12.88,12.88,0,0,0-2.32.17Z"/><path class="cls-4" d="M64,141.6l-3,6.65H55.14l12.48-25.61h7l3,25.61H71.89l-.52-6.65Zm7.15-4.17-.5-5.52c-.11-1.4-.23-3.46-.36-5H70.2c-.66,1.57-1.37,3.56-2.06,5l-2.52,5.52Z"/><path class="cls-4" d="M80.45,148.25l2.36-12.54c.47-2.35.76-4.39,1-6.05h4.83l-.34,3.08h.07a7.81,7.81,0,0,1,6.5-3.5c3,0,4.77,1.86,4.77,5.09a21.54,21.54,0,0,1-.31,3.12l-2.06,10.8H91.81L93.75,138a12.14,12.14,0,0,0,.21-2.09c0-1.3-.45-2.23-1.85-2.23-1.79,0-3.87,2.24-4.63,6.34l-1.56,8.26Z"/><path class="cls-4" d="M101.85,148.25l3.53-18.59h5.47l-3.53,18.59Zm4.31-23.56a3.08,3.08,0,0,1,3.14-3.09,2.58,2.58,0,0,1,2.75,2.69,3,3,0,0,1-3.23,3.08A2.54,2.54,0,0,1,106.16,124.69Z"/><path class="cls-4" d="M111.91,148.25l2.32-12.54c.45-2.35.73-4.39,1-6.05h4.69l-.33,3h.06a7.59,7.59,0,0,1,6.36-3.45c3,0,4.24,1.88,4.4,3.52a7.69,7.69,0,0,1,6.41-3.52c2.87,0,4.53,1.85,4.53,5a22.63,22.63,0,0,1-.32,3.2l-2,10.82h-5.3l1.87-10.16a13.36,13.36,0,0,0,.25-2.25c0-1.3-.56-2.21-1.83-2.21-1.83,0-3.65,2.45-4.34,6.2l-1.58,8.42h-5.27L124.71,138a11.87,11.87,0,0,0,.24-2.12c0-1.27-.41-2.28-1.76-2.28-1.84,0-3.79,2.6-4.45,6.26l-1.53,8.36Z"/><path class="cls-4" d="M155.67,148.25c0-1.08.15-2.36.24-3.68h-.09c-1.7,3.09-4.09,4.1-6.25,4.1-3.33,0-5.63-2.59-5.63-6.47,0-6.27,4.17-13,13.31-13a21.69,21.69,0,0,1,6.15.93l-2,9.72a46,46,0,0,0-.74,8.36Zm1.59-14.7a7.38,7.38,0,0,0-1.5-.15c-3.54,0-6.11,4.33-6.12,7.78,0,1.83.74,3.08,2.25,3.08s3.66-1.86,4.51-6.41Z"/><path class="cls-4" d="M175.18,124.46l-1,5.2h4l-.81,4.17h-4l-1.25,6.3a13.67,13.67,0,0,0-.31,2.36,1.39,1.39,0,0,0,1.59,1.56,10.69,10.69,0,0,0,1.5-.08l-.63,4.28a10.73,10.73,0,0,1-3.23.42c-3.29,0-4.84-1.68-4.84-4a16.52,16.52,0,0,1,.4-3.45l1.43-7.39h-2.37l.78-4.17h2.39l.74-3.91Z"/><path class="cls-4" d="M177.88,148.25l3.53-18.59h5.47l-3.53,18.59Zm4.32-23.56a3.06,3.06,0,0,1,3.14-3.09,2.58,2.58,0,0,1,2.75,2.69,3.05,3.05,0,0,1-3.23,3.08A2.53,2.53,0,0,1,182.2,124.69Z"/><path class="cls-4" d="M207.58,136.9c0,6.78-4.67,11.77-11.1,11.77-4.73,0-7.89-3.06-7.89-7.69,0-6.43,4.5-11.74,11.1-11.74C204.69,129.24,207.58,132.66,207.58,136.9Zm-13.33,4c0,2.18,1.09,3.63,3,3.63,3,0,4.66-4.39,4.66-7.55,0-1.73-.75-3.54-2.92-3.54C195.83,133.41,194.24,138,194.25,140.87Z"/><path class="cls-4" d="M209.19,148.25l2.36-12.54c.47-2.35.76-4.39,1-6.05h4.84l-.35,3.08h.07a7.81,7.81,0,0,1,6.5-3.5c3,0,4.77,1.86,4.77,5.09a21.54,21.54,0,0,1-.31,3.12L226,148.25h-5.47L222.49,138a12.14,12.14,0,0,0,.21-2.09c0-1.3-.45-2.23-1.85-2.23-1.79,0-3.86,2.24-4.63,6.34l-1.56,8.26Z"/></svg>