<svg xmlns="http://www.w3.org/2000/svg" xmlns:xlink="http://www.w3.org/1999/xlink" viewBox="0 0 284.71 248.01"><defs><style>.cls-1{opacity:0.55;}.cls-2{fill:#ededed;}.cls-3{fill:url(#linear-gradient);}.cls-4{fill:url(#linear-gradient-2);}.cls-5{fill:#1b1464;}</style><linearGradient id="linear-gradient" x1="-0.34" y1="-1761.91" x2="283.76" y2="-1761.91" gradientTransform="matrix(1, 0, 0, -1, 0, -1637.7)" gradientUnits="userSpaceOnUse"><stop offset="0" stop-color="#fff"/><stop offset="1" stop-color="#ededed"/></linearGradient><linearGradient id="linear-gradient-2" x1="-0.04" y1="-1762.21" x2="284.06" y2="-1762.21" gradientTransform="matrix(1, 0, 0, -1, 0, -1637.7)" gradientUnits="userSpaceOnUse"><stop offset="0" stop-color="#8b078f"/><stop offset="0.49" stop-color="#5865c5"/><stop offset="1" stop-color="#24c7fe"/></linearGradient></defs><g id="Layer_2" data-name="Layer 2"><g class="cls-1"><polygon class="cls-2" points="212.76 1.16 70.66 1.16 -0.34 124.16 70.66 247.26 212.76 247.26 283.86 124.16 212.76 1.16"/><path class="cls-3" d="M212.26,2.16l70.5,122-70.5,122.1h-141L.86,124.16l70.5-122h140.9m.5-1H70.66l-71,123,71,123.1h142.1l71-123.1-71-123Z"/></g><path class="cls-4" d="M212.46,2.46l70.5,122-70.5,122.1H71.56L1.06,124.46l70.5-122h140.9m.6-1H71l-71,123,71,123.1h142.1l71-123.1-71-123Z"/><path class="cls-5" d="M119.21,117.78l.65-3.52,5.34-4.12c4.93-4,8.1-6.91,8.1-9.89,0-1.74-1.21-3-3.4-3a9.71,9.71,0,0,0-5.23,1.46l-1.1-3.93a15.18,15.18,0,0,1,7.66-2.13c5,0,7.7,2.91,7.7,6.74,0,5-4,8.54-8.38,11.87L128.1,113v.07H137l-.86,4.67Z"/><path class="cls-5" d="M145.42,92.56a40.93,40.93,0,0,1,7.07-.56c4,0,7.17.9,9.34,2.77,2.08,1.71,3.38,4.23,3.38,8A14.9,14.9,0,0,1,160,114.53c-3,2.38-6.74,3.42-12.29,3.42a43.76,43.76,0,0,1-7-.49ZM147,113.37a16,16,0,0,0,2.4.14,9.46,9.46,0,0,0,7.26-3,11.49,11.49,0,0,0,2.65-7.71c0-4.06-2.24-6.45-6.76-6.45a12.08,12.08,0,0,0-2.33.18Z"/><path class="cls-5" d="M63.38,142.13l-3,6.65H54.52L67,123.17h7l3,25.61H71.28l-.52-6.65ZM70.53,138l-.5-5.52c-.11-1.4-.24-3.46-.36-5h-.08c-.66,1.56-1.37,3.55-2.06,5L65,138Z"/><path class="cls-5" d="M79.84,148.78l2.36-12.54c.47-2.36.76-4.39,1-6.06H88l-.35,3.09h.08a7.82,7.82,0,0,1,6.5-3.51c3,0,4.77,1.87,4.77,5.09a21.72,21.72,0,0,1-.32,3.13l-2,10.8H91.2l1.94-10.29a11.92,11.92,0,0,0,.21-2.08c0-1.31-.45-2.23-1.86-2.23-1.78,0-3.86,2.23-4.63,6.34l-1.55,8.26Z"/><path class="cls-5" d="M101.23,148.78l3.54-18.6h5.47l-3.54,18.6Zm4.32-23.56a3.07,3.07,0,0,1,3.14-3.1,2.58,2.58,0,0,1,2.75,2.69,3,3,0,0,1-3.23,3.08A2.53,2.53,0,0,1,105.55,125.22Z"/><path class="cls-5" d="M111.3,148.78l2.32-12.54c.44-2.36.73-4.39,1-6.06h4.7l-.33,3H119a7.59,7.59,0,0,1,6.36-3.45c3,0,4.24,1.89,4.39,3.52a7.77,7.77,0,0,1,6.41-3.52c2.87,0,4.54,1.85,4.54,5a22.63,22.63,0,0,1-.32,3.2l-2,10.82h-5.29L135,138.62a13.59,13.59,0,0,0,.25-2.26c0-1.29-.56-2.2-1.84-2.2-1.82,0-3.64,2.45-4.33,6.2l-1.58,8.42h-5.27l1.92-10.22a13,13,0,0,0,.24-2.12c0-1.27-.41-2.28-1.76-2.28-1.84,0-3.79,2.6-4.45,6.25l-1.53,8.37Z"/><path class="cls-5" d="M155.06,148.78c0-1.09.14-2.36.24-3.68h-.09c-1.7,3.09-4.09,4.1-6.25,4.1-3.33,0-5.63-2.6-5.63-6.48,0-6.26,4.17-13,13.31-13a21.67,21.67,0,0,1,6.15.94l-2,9.72a46,46,0,0,0-.75,8.36Zm1.59-14.7a6.7,6.7,0,0,0-1.5-.16c-3.54,0-6.11,4.33-6.12,7.79,0,1.83.74,3.08,2.25,3.08s3.66-1.86,4.51-6.42Z"/><path class="cls-5" d="M174.56,125l-1,5.2h4l-.81,4.17h-4l-1.25,6.31a13.54,13.54,0,0,0-.31,2.36,1.39,1.39,0,0,0,1.59,1.56,12.56,12.56,0,0,0,1.5-.08l-.63,4.28a10.81,10.81,0,0,1-3.23.41c-3.29,0-4.84-1.67-4.84-4a17.2,17.2,0,0,1,.39-3.45l1.44-7.39h-2.38l.79-4.17h2.39l.74-3.91Z"/><path class="cls-5" d="M177.27,148.78l3.53-18.6h5.47l-3.53,18.6Zm4.32-23.56a3.07,3.07,0,0,1,3.14-3.1,2.57,2.57,0,0,1,2.74,2.69,3,3,0,0,1-3.23,3.08A2.52,2.52,0,0,1,181.59,125.22Z"/><path class="cls-5" d="M207,137.43c0,6.78-4.66,11.77-11.09,11.77-4.73,0-7.89-3.06-7.89-7.69,0-6.43,4.5-11.75,11.1-11.75C204.08,129.76,207,133.18,207,137.43Zm-13.32,4c0,2.17,1.09,3.62,3,3.62,3,0,4.67-4.39,4.67-7.55,0-1.73-.75-3.53-2.92-3.53C195.22,133.94,193.63,138.52,193.64,141.4Z"/><path class="cls-5" d="M208.58,148.78l2.36-12.54c.47-2.36.76-4.39,1-6.06h4.83l-.34,3.09h.07a7.82,7.82,0,0,1,6.5-3.51c3,0,4.77,1.87,4.77,5.09a21.67,21.67,0,0,1-.31,3.13l-2.06,10.8h-5.47l1.94-10.29a11.92,11.92,0,0,0,.21-2.08c0-1.31-.45-2.23-1.85-2.23-1.79,0-3.87,2.23-4.63,6.34l-1.56,8.26Z"/></g></svg>