<svg id="Layer_1" data-name="Layer 1" xmlns="http://www.w3.org/2000/svg" xmlns:xlink="http://www.w3.org/1999/xlink" viewBox="0 0 241.45 210.27"><defs><style>.cls-1{fill:#b6b6b6;}.cls-2{fill:url(#linear-gradient);}.cls-3{fill:url(#linear-gradient-2);}.cls-4{fill:#1b1464;}</style><linearGradient id="linear-gradient" x1="0.15" y1="104.93" x2="241.3" y2="104.93" gradientUnits="userSpaceOnUse"><stop offset="0" stop-color="#fff"/><stop offset="1" stop-color="#ededed"/></linearGradient><linearGradient id="linear-gradient-2" x1="0.31" y1="104.93" x2="241.45" y2="104.93" gradientUnits="userSpaceOnUse"><stop offset="0.29" stop-color="#de058a"/><stop offset="0.45" stop-color="#e60b55"/><stop offset="0.66" stop-color="#e8184e"/><stop offset="0.89" stop-color="#ffa300"/><stop offset="1" stop-color="#fcee21"/></linearGradient></defs><polygon class="cls-1" points="181.01 0.51 60.44 0.51 0.15 104.93 60.44 209.35 181.01 209.35 241.3 104.93 181.01 0.51"/><path class="cls-2" d="M180.52,1.36l59.8,103.57L180.52,208.5H60.93L1.13,104.93,60.93,1.36H180.52M181,.51H60.44L.15,104.93,60.44,209.35H181L241.3,104.93,181,.51Z"/><path class="cls-3" d="M180.67,1.36l59.8,103.57L180.67,208.5H61.08L1.29,104.93,61.08,1.36H180.67m.49-.85H60.59L.31,104.93,60.59,209.35H181.16l60.29-104.42L181.16.51Z"/><path class="cls-4" d="M61.21,105.31l-3,6.65H52.36L64.85,86.35h7l3,25.61H69.11l-.52-6.65Zm7.15-4.17-.5-5.52c-.11-1.4-.23-3.46-.36-5h-.08c-.66,1.57-1.36,3.56-2.06,5l-2.52,5.52Z"/><path class="cls-4" d="M77.67,112l2.1-11.07c.52-2.79.76-5.92,1-7.53h4.74c-.1,1.26-.2,2.51-.34,3.82h.12C86.55,94.7,88.61,93,91.16,93c.35,0,.7,0,1,0l-1.07,5.33c-.24,0-.54,0-.86,0-3.48,0-5.12,3.1-5.81,6.76L83.14,112Z"/><path class="cls-4" d="M105.37,111.38a12.75,12.75,0,0,1-5.28,1c-4.58,0-7.82-2.81-7.82-7.64C92.27,98.13,97.33,93,104.4,93a10.73,10.73,0,0,1,3.77.63l-1.35,4.2a6.23,6.23,0,0,0-2.51-.47c-3.89,0-6.31,3.32-6.31,6.8a3.5,3.5,0,0,0,3.65,3.86,9,9,0,0,0,3.68-.78Z"/><path class="cls-4" d="M108.19,112l5.1-27h5.48l-2.06,10.76h.07A7.79,7.79,0,0,1,122.69,93c2.9,0,4.69,1.82,4.69,5a21,21,0,0,1-.35,3.35L125,112h-5.47l1.93-10.18a12.37,12.37,0,0,0,.24-2.3c0-1.23-.51-2.12-1.88-2.12-1.91,0-3.86,2.34-4.56,6.09L113.66,112Z"/><path class="cls-4" d="M135.32,112l-3.18-25.61h5.65l1.15,12.18c.27,2.73.45,5.22.6,7.87h.09c1-2.5,2.15-5.24,3.42-7.88l5.73-12.17h6.11L141.68,112Z"/><path class="cls-4" d="M152,112l3.53-18.6H161L157.47,112Zm4.32-23.56a3.07,3.07,0,0,1,3.14-3.1A2.57,2.57,0,0,1,162.2,88,3,3,0,0,1,159,91.08,2.53,2.53,0,0,1,156.32,88.4Z"/><path class="cls-4" d="M161.2,108.66l6.05-6.48a54.76,54.76,0,0,1,4.55-4.28l0-.09h-8l.88-4.45h14.5l-.63,3.46-5.91,6.33a48,48,0,0,1-4.51,4.28l0,.09h8.71L176,112H160.61Z"/></svg>