<svg xmlns="http://www.w3.org/2000/svg" xmlns:xlink="http://www.w3.org/1999/xlink" viewBox="0 0 241.45 210.27"><defs><style>.cls-1{opacity:0.69;}.cls-2{fill:#ededed;}.cls-3{fill:url(#linear-gradient);}.cls-4{fill:url(#linear-gradient-2);}.cls-5{fill:#1b1464;}</style><linearGradient id="linear-gradient" x1="0.26" y1="-427.19" x2="241.91" y2="-427.19" gradientTransform="matrix(1, 0, 0, -1, 0, -322.14)" gradientUnits="userSpaceOnUse"><stop offset="0" stop-color="#fff"/><stop offset="1" stop-color="#ededed"/></linearGradient><linearGradient id="linear-gradient-2" y1="-427.36" x2="241.65" y2="-427.36" gradientTransform="matrix(1, 0, 0, -1, 0, -322.14)" gradientUnits="userSpaceOnUse"><stop offset="0.29" stop-color="#de058a"/><stop offset="0.45" stop-color="#e60b55"/><stop offset="0.66" stop-color="#e8184e"/><stop offset="0.89" stop-color="#ffa300"/><stop offset="1" stop-color="#fcee21"/></linearGradient></defs><g id="Layer_2" data-name="Layer 2"><g class="cls-1"><polygon class="cls-2" points="181.52 0.38 60.65 0.38 0.26 105.01 60.65 209.72 181.52 209.72 241.91 105.01 181.52 0.38"/><path class="cls-3" d="M181,1.23,241,105,181,208.86H61.16L1.19,105l60-103.78H181m.51-.85H60.65L.26,105l60.39,104.7H181.52L241.91,105,181.52.38Z"/></g><path class="cls-4" d="M180.84,1.4l59.88,103.78L180.75,209H60.9L1,105.18,60.9,1.4H180.84m.42-.85H60.39L0,105.18l60.39,104.7H181.26l60.39-104.7L181.26.55Z"/><path class="cls-5" d="M66.12,106.31l-3,6.65H57.27L69.76,87.35h7l3,25.61H74l-.52-6.65Zm7.15-4.17-.5-5.52c-.11-1.4-.23-3.46-.35-5h-.08c-.67,1.57-1.37,3.56-2.06,5l-2.53,5.52Z"/><path class="cls-5" d="M82.59,113l2.09-11.06c.52-2.8.76-5.93.95-7.53h4.74c-.1,1.25-.2,2.51-.34,3.81h.12C91.46,95.71,93.53,94,96.07,94c.35,0,.7,0,1,0L96,99.32c-.24,0-.54,0-.87,0-3.48,0-5.12,3.11-5.8,6.76L88.06,113Z"/><path class="cls-5" d="M110.29,112.38a12.78,12.78,0,0,1-5.28,1c-4.59,0-7.83-2.81-7.83-7.64,0-6.59,5.06-11.76,12.13-11.76a10.73,10.73,0,0,1,3.77.63l-1.34,4.2a6.26,6.26,0,0,0-2.52-.46c-3.89,0-6.31,3.31-6.31,6.79a3.5,3.5,0,0,0,3.65,3.86,9,9,0,0,0,3.68-.78Z"/><path class="cls-5" d="M113.1,113l5.11-27h5.47l-2.06,10.77h.08A7.77,7.77,0,0,1,127.61,94c2.89,0,4.68,1.82,4.68,5a19.88,19.88,0,0,1-.35,3.35l-2,10.63h-5.47l1.93-10.18a13.28,13.28,0,0,0,.23-2.3c0-1.23-.51-2.12-1.88-2.12-1.91,0-3.86,2.34-4.56,6.09L118.57,113Z"/><path class="cls-5" d="M140.23,113l-3.18-25.61h5.65l1.15,12.18c.27,2.73.46,5.22.61,7.87h.08c1-2.5,2.16-5.24,3.42-7.88l5.74-12.17h6.11L146.59,113Z"/><path class="cls-5" d="M156.91,113l3.54-18.59h5.47L162.38,113Zm4.32-23.56a3.08,3.08,0,0,1,3.14-3.1,2.59,2.59,0,0,1,2.75,2.7,3,3,0,0,1-3.23,3.08A2.54,2.54,0,0,1,161.23,89.4Z"/><path class="cls-5" d="M166.12,109.66l6-6.48a54.76,54.76,0,0,1,4.55-4.28l0-.09H168.8l.87-4.44h14.51l-.64,3.45-5.9,6.33a48,48,0,0,1-4.51,4.28l0,.09h8.72L181,113H165.53Z"/></g></svg>