<svg id="Layer_1" data-name="Layer 1" xmlns="http://www.w3.org/2000/svg" viewBox="0 0 622.93 794.57"><defs><style>.cls-1,.cls-2{fill:#fff;}.cls-2{opacity:0.15;}</style></defs><path class="cls-1" d="M11.43,726.14H65.1V728H10.82Zm-.46,8H65.1v.77H13.59A3.62,3.62,0,0,1,11,734.16Zm3.55-15.88H65.1v2.31H13.59Zm3.08-7.87H43.2L42.12,713H16.52Zm3.09-7.86H46.13l-1.08,2.93H19.45Zm2.93-7.87H49.06l-1.23,3.24H22.38Zm3.08-7.86H52l-1.23,3.54H25.31ZM29.79,679H54.92l-1.39,3.86H28.24Zm3.08-7.86h25l-1.54,4.16h-25Zm26.37-3.39h-25L36,663.22H83.3L85,667.7H60.17l-.47-1.24ZM39,655.36H80.21l1.85,4.78H37.19ZM79,652.58H40.27A13.9,13.9,0,0,1,42.2,650c.77-.82,1.57-1.64,2.39-2.46H74.35A19.45,19.45,0,0,1,79,652.58ZM65.41,643a29.61,29.61,0,0,1,5.24,2H48.29a33.23,33.23,0,0,1,5.55-2,24.31,24.31,0,0,1,6.17-.77A20.29,20.29,0,0,1,65.41,643Zm-4,28.07H86.23l1.69,4.16h-25ZM64.33,679h25l1.54,3.86h-25Zm3.08,7.87h25l1.38,3.54H68.65Zm2.93,7.86H95.48l1.23,3.24H71.58Zm2.93,7.87H98.41l1.23,2.93H74.35Zm2.93,7.86h25.29l1.08,2.62H77.28Zm3.09,7.87h25.29l.92,2.31H80.06Zm2.93,7.86h25.44l.62,1.85H82.83Zm3.08,8h25.45l.3.77H85.61Z"/><path class="cls-1" d="M143,642.41V645H119.07v-2.62Zm-23.91,5.09H143v5.08H119.07Zm0,7.86H143v4.78H119.07Zm0,7.86H143v4.48H119.07Zm0,7.87H143v4.16H119.07Zm0,7.86h62.15l-2.47,3.86H119.07Zm0,7.87h57.22l-1.08,1.85,1.08,1.69H119.07Zm0,7.86h59.84l2,3.24H119.07Zm0,7.87H143v2.93H119.07Zm0,7.86H143V713H119.07Zm0,7.87H143v2.31H119.07Zm0,7.86H143V728H119.07Zm0,8.79v-.77H143v.77ZM159,671.09h27l-2.47,4.16H156.39Zm-2.46,31.46h27.29l1.85,2.93H158.4Zm7.4-39.33h27l-2.78,4.48h-27Zm-2.47,47.19h27.3l1.54,2.62H163.18Zm7.4-55h27l-3.08,4.78h-27Zm-2.46,62.92h27.14l1.39,2.31H168Zm7.4-70.78h26.83l-3.08,5.08h-27Zm-2.32,78.64h27l1.08,1.85h-27ZM202.19,645H175.36l1.7-2.62h26.83Zm-25.6,89.13h26.84l.46.77H177.06Z"/><path class="cls-1" d="M212.21,726.14h53.67V728H211.6Zm-.46,8h54.13v.77H214.37A3.62,3.62,0,0,1,211.75,734.16Zm3.55-15.88h50.58v2.31H214.37Zm3.08-7.87H244L242.9,713H217.3Zm3.09-7.86h25.44l-1.08,2.93h-25.6Zm2.93-7.87h25.44l-1.23,3.24H223.16Zm3.08-7.86h25.29l-1.23,3.54H226.09Zm3.09-7.87H255.7l-1.39,3.86H229Zm3.08-7.86h25l-1.54,4.16h-25ZM260,667.7H235l1.69-4.48h47.35l1.69,4.48H261l-.47-1.24Zm-20.2-12.34H281l1.85,4.78H238Zm39.94-2.78H241.05A13.9,13.9,0,0,1,243,650c.77-.82,1.57-1.64,2.39-2.46h29.76A19.28,19.28,0,0,1,279.76,652.58ZM266.19,643a29.61,29.61,0,0,1,5.24,2H249.07a33.23,33.23,0,0,1,5.55-2,24.37,24.37,0,0,1,6.17-.77A20.29,20.29,0,0,1,266.19,643Zm-4,28.07H287l1.69,4.16h-25Zm2.93,7.86h25l1.54,3.86h-25Zm3.08,7.87h25l1.38,3.54H269.43Zm2.93,7.86h25.14l1.23,3.24H272.36Zm2.93,7.87h25.14l1.23,2.93H275.13Zm2.93,7.86h25.29l1.08,2.62H278.06Zm3.09,7.87h25.29l.92,2.31H280.84Zm2.93,7.86h25.44l.62,1.85H283.62Zm3.08,8h25.45l.31.77H286.39Z"/><path class="cls-1" d="M319.85,657.83v-1.24a2.8,2.8,0,0,1,.31-1.23h79.73v4.78h-80Zm23.91,9.71v.16H319.85v-4.48h25.29A5.93,5.93,0,0,0,343.76,667.54Zm.15,7.71H319.85v-4.16h23.91v2A10.49,10.49,0,0,0,343.91,675.25Zm4.32,3.7h33.93a17.73,17.73,0,0,1,5.24,1.16,24.49,24.49,0,0,1,5.09,2.7H319.85V679h28.38Zm51.66,41.64H320v-2.31h80v1.23A2.68,2.68,0,0,1,399.89,720.59Zm-3,6.48c-.26.31-.54.61-.85.92H320v-1.85h77.57A11.31,11.31,0,0,1,396.88,727.07ZM320,734.16h66.31a18.07,18.07,0,0,1-4.78.77H320Zm.77-47.34h76a18,18,0,0,1,1.32,1.77c.35.57.69,1.16,1,1.77H322.94A9.87,9.87,0,0,1,320.78,686.82ZM323.25,650c.71-.82,1.49-1.64,2.31-2.46h74.33v5.08H321.4A15.39,15.39,0,0,1,323.25,650Zm8.09,46.8a18.87,18.87,0,0,1-3.62-2.08H400v3.24H335.27A15.35,15.35,0,0,1,331.34,696.76Zm2.47-53.66a16.39,16.39,0,0,1,4.55-.69h61.53V645H329.26A20.75,20.75,0,0,1,333.81,643.1Zm42.33,67.31H400V713H375.37A6.62,6.62,0,0,0,376.14,710.41Zm0-6.16a7.54,7.54,0,0,0-.15-1.7H400v2.93h-23.9Z"/><path class="cls-1" d="M433.5,642.41V645H409.6v-2.62Zm-23.9,5.09h23.9v5.08H409.6Zm0,7.86h23.9v4.78H409.6Zm0,7.86h23.9v4.48H409.6Zm0,7.87h23.9v4.16H409.6ZM494.42,679v3.86H409.6V679Zm-84.82,7.87h84.82v3.54H409.6Zm0,7.86h84.82v3.24H409.6Zm0,7.87h23.9v2.93H409.6Zm0,7.86h23.9V713H409.6Zm0,7.87h23.9v2.31H409.6Zm0,7.86h23.9V728H409.6Zm0,8.79v-.77h23.9v.77ZM494.42,645h-23.9v-2.62h23.9Zm-23.9,2.47h23.9v5.08h-23.9Zm0,7.86h23.9v4.78h-23.9Zm0,7.86h23.9v4.48h-23.9Zm0,7.87h23.9v4.16h-23.9Zm0,31.46h23.9v2.93h-23.9Zm0,7.86h23.9V713h-23.9Zm0,7.87h23.9v2.31h-23.9Zm0,7.86h23.9V728h-23.9Zm0,8.79v-.77h23.9v.77Z"/><path class="cls-1" d="M504.29,726.14H558V728H503.67Zm-.47,8H558v.77h-51.5A3.63,3.63,0,0,1,503.82,734.16Zm3.55-15.88H558v2.31h-51.5Zm3.09-7.87h25.59L535,713h-25.6Zm3.08-7.86H539l-1.07,2.93h-25.6Zm2.93-7.87h25.45l-1.24,3.24H515.24Zm3.08-7.86h25.29l-1.23,3.54H518.17Zm3.09-7.87h25.13l-1.38,3.86H521.1Zm3.08-7.86h25l-1.55,4.16h-25Zm26.37-3.39h-25l1.7-4.48h47.34l1.7,4.48H553l-.46-1.24Zm-20.2-12.34h41.18l1.85,4.78H530Zm39.94-2.78h-38.7a13.42,13.42,0,0,1,1.92-2.62c.77-.82,1.57-1.64,2.39-2.46h29.77A19.41,19.41,0,0,1,571.83,652.58ZM558.26,643a29.61,29.61,0,0,1,5.24,2H541.14a33,33,0,0,1,5.56-2,24.29,24.29,0,0,1,6.16-.77A20.29,20.29,0,0,1,558.26,643Zm-4,28.07h24.83l1.7,4.16h-25Zm2.93,7.86h25l1.55,3.86h-25Zm3.09,7.87h25l1.39,3.54H561.5Zm2.93,7.86h25.13l1.24,3.24H564.43Zm2.93,7.87h25.13l1.24,2.93H567.21Zm2.93,7.86h25.29l1.08,2.62H570.14Zm3.08,7.87h25.29l.93,2.31H572.91Zm2.93,7.86h25.44l.62,1.85H575.69Zm3.08,8H603.6l.31.77H578.46Z"/><polygon class="cls-2" points="27.34 582.77 96.13 614.46 128.95 620.84 290.58 632 321.9 632 469.1 619.25 483.44 616.06 542.41 584.18 544.01 579.4 499.84 551.12 470.69 544.33 408.53 542.74 120.04 531.33 41.94 549.11 35.56 553.9 26 579.4 27.34 582.77"/><polygon class="cls-1" points="494.6 128.33 435.63 297.28 418.09 306.84 194.95 306.84 177.42 295.69 120.04 128.33 128 112.39 293.77 18.35 319.04 18.35 485.04 110.8 494.6 128.33"/><polygon class="cls-1" points="196.54 332.35 416.5 332.35 437.22 346.69 493 510.86 485.04 528.39 317.68 620.84 295.17 620.84 129.6 528.39 120.04 510.86 177.42 345.1 196.54 332.35"/><polygon class="cls-1" points="512.13 141.08 456.35 305.25 456.35 335.69 512.13 498.15 521.65 503 598.2 431.17 603.43 412.2 603.43 225.69 598.2 208.02 520.1 136.3 512.13 141.08"/><polygon class="cls-1" points="101.36 141.08 157.15 305.25 157.15 335.69 101.36 498.15 91.84 503 15.29 431.17 10.06 412.2 10.06 225.69 15.29 208.02 93.39 136.3 101.36 141.08"/><path class="cls-1" d="M73.66,774l1.42-2.7a12.13,12.13,0,0,0,6.63,2c3.17,0,4.48-1,4.48-2.57,0-4.24-11.93-.57-11.93-8.08,0-3.38,3-5.66,7.87-5.66A13.68,13.68,0,0,1,89,758.67l-1.45,2.7a9.89,9.89,0,0,0-5.45-1.49c-3,0-4.45,1.1-4.45,2.6,0,4.45,12,.82,12,8.15,0,3.42-3.13,5.59-8.15,5.59A13.59,13.59,0,0,1,73.66,774Z"/><path class="cls-1" d="M175.05,774.9a6.47,6.47,0,0,1-4.13,1.32c-3.81,0-6-2.1-6-5.91V753h3.41v4.13h5.42V760h-5.42v10.22c0,2,1,3.17,3,3.17a4.29,4.29,0,0,0,2.67-.89Z"/><path class="cls-1" d="M268,757.14V776h-3.24v-2.85a7.68,7.68,0,0,1-6.41,3.06c-4.88,0-8.12-2.67-8.12-8.22V757.14h3.42V767.6c0,3.71,1.85,5.56,5.09,5.56,3.56,0,5.84-2.21,5.84-6.27v-9.75Z"/><path class="cls-1" d="M363.55,749.59V776h-3.28v-3a8,8,0,0,1-6.73,3.2c-5.52,0-9.54-3.88-9.54-9.65a9.15,9.15,0,0,1,9.54-9.61,8,8,0,0,1,6.59,3V749.59Zm-3.39,17c0-4-2.74-6.62-6.33-6.62a6.22,6.22,0,0,0-6.38,6.62c0,4,2.74,6.66,6.38,6.66S360.16,770.6,360.16,766.57Z"/><path class="cls-1" d="M440.65,751.3a2.26,2.26,0,0,1,2.32-2.25,2.23,2.23,0,1,1-2.32,2.25Zm.61,5.84h3.42V776h-3.42Z"/><path class="cls-1" d="M520.68,766.57c0-5.62,4.16-9.61,9.82-9.61s9.8,4,9.8,9.61a9.81,9.81,0,0,1-19.62,0Zm16.16,0c0-4-2.7-6.62-6.34-6.62s-6.37,2.6-6.37,6.62,2.74,6.66,6.37,6.66S536.84,770.6,536.84,766.57Z"/></svg>