<svg id="Layer_1" data-name="Layer 1" xmlns="http://www.w3.org/2000/svg" xmlns:xlink="http://www.w3.org/1999/xlink" viewBox="0 0 241.98 295.71"><defs><style>.cls-1,.cls-2{fill:#fff;}.cls-2{font-size:13.19px;font-family:MontserratAlternates-Medium, MontserratAlternates Medium;font-weight:500;letter-spacing:1.24em;}.cls-3{letter-spacing:1.23em;}.cls-4{letter-spacing:1.22em;}.cls-5{fill:url(#linear-gradient);}.cls-6{fill:url(#linear-gradient-2);}.cls-7{fill:url(#linear-gradient-3);}.cls-8{fill:url(#linear-gradient-4);}</style><linearGradient id="linear-gradient" x1="181.01" y1="54.19" x2="42.18" y2="55.52" gradientUnits="userSpaceOnUse"><stop offset="0" stop-color="#8b078f"/><stop offset="0.49" stop-color="#5865c5"/><stop offset="1" stop-color="#24c7fe"/></linearGradient><linearGradient id="linear-gradient-2" x1="183.63" y1="172.32" x2="45.48" y2="168.61" xlink:href="#linear-gradient"/><linearGradient id="linear-gradient-3" x1="172.5" y1="112.85" x2="227.02" y2="112.85" gradientUnits="userSpaceOnUse"><stop offset="0.29" stop-color="#de058a"/><stop offset="0.45" stop-color="#e60b55"/><stop offset="0.66" stop-color="#e8184e"/><stop offset="0.89" stop-color="#ffa300"/><stop offset="1" stop-color="#fcee21"/></linearGradient><linearGradient id="linear-gradient-4" x1="7.07" y1="112.85" x2="61.59" y2="112.85" gradientUnits="userSpaceOnUse"><stop offset="0" stop-color="#3c34eb"/><stop offset="0.15" stop-color="#374def"/><stop offset="0.39" stop-color="#3171f5"/><stop offset="0.63" stop-color="#2c8bf9"/><stop offset="0.84" stop-color="#299afb"/><stop offset="1" stop-color="#28a0fc"/></linearGradient></defs><path class="cls-1" d="M7.58,263.53H27.47v.69H7.35Zm-.17,3H27.47v.29H8.38A1.34,1.34,0,0,1,7.41,266.5Zm1.31-5.89H27.47v.86H8.38Zm1.15-2.91h9.48l-.4,1H9.47ZM11,254.78h9.43l-.4,1.09H10.55Zm1.08-2.91h9.44l-.46,1.2H11.64ZM13.24,249h9.37l-.45,1.32H12.72ZM14.38,246H23.7l-.52,1.43H13.81Zm1.14-2.92h9.26l-.57,1.55H15Zm9.78-1.26H16l.63-1.65H34.22l.63,1.65H25.64l-.17-.45Zm-7.49-4.57H33.07l.69,1.77H17.13Zm14.81-1H18.27a5.35,5.35,0,0,1,.71-1c.29-.3.58-.61.89-.91h11A7.19,7.19,0,0,1,32.62,236.26Zm-5-3.54a11.27,11.27,0,0,1,1.94.74H21.24a12.25,12.25,0,0,1,2.06-.74,8.92,8.92,0,0,1,2.29-.29A7.56,7.56,0,0,1,27.59,232.72Zm-1.49,10.4h9.2l.63,1.55H26.67ZM27.19,246h9.26l.57,1.43H27.76ZM28.33,249h9.26l.51,1.32H28.79Zm1.09,2.92h9.31l.46,1.2H29.87Zm1.08,2.91h9.32l.46,1.09H30.9Zm1.09,2.92H41l.4,1H32Zm1.14,2.91h9.38l.34.86H33Zm1.09,2.92h9.43l.23.69H34.05Zm1.14,3h9.43l.12.29H35.07Z"/><path class="cls-1" d="M56.34,232.49v1H47.48v-1Zm-8.86,1.89h8.86v1.88H47.48Zm0,2.91h8.86v1.77H47.48Zm0,2.92h8.86v1.65H47.48Zm0,2.91h8.86v1.55H47.48Zm0,2.92h23l-.92,1.43H47.48Zm0,2.91H68.69l-.4.69.4.63H47.48Zm0,2.92H69.66l.74,1.2H47.48Zm0,2.91h8.86v1.09H47.48Zm0,2.92h8.86v1H47.48Zm0,2.91h8.86v.86H47.48Zm0,2.92h8.86v.69H47.48Zm0,3.26v-.29h8.86v.29Zm14.8-23.67h10l-.92,1.55H61.31Zm-.91,11.66H71.49l.68,1.09H62.06Zm2.74-14.57h10l-1,1.65h-10ZM63.2,257.7H73.32l.57,1H63.83Zm2.74-20.41H76l-1.15,1.77h-10ZM65,260.61H75.09l.51.86h-10Zm2.74-26.23h10l-1.15,1.88h-10Zm-.86,29.15h10l.4.69h-10Zm11.38-30.07h-10l.63-1h10Zm-9.49,33h10l.17.29H69Z"/><path class="cls-1" d="M82,263.53h19.9v.69H81.78Zm-.17,3H101.9v.29H82.81A1.37,1.37,0,0,1,81.83,266.5Zm1.32-5.89H101.9v.86H82.81Zm1.14-2.91h9.49l-.4,1H83.89Zm1.14-2.92h9.44l-.4,1.09H85Zm1.09-2.91H96l-.45,1.2H86.06ZM87.66,249H97l-.46,1.32H87.15ZM88.81,246h9.32l-.52,1.43H88.24ZM90,243.12h9.26l-.57,1.55H89.38Zm9.78-1.26H90.47l.62-1.65h17.55l.63,1.65h-9.2l-.17-.45Zm-7.49-4.57H107.5l.69,1.77H91.55Zm14.8-1H92.69a5,5,0,0,1,.72-1c.28-.3.58-.61.89-.91h11A7.32,7.32,0,0,1,107,236.26Zm-5-3.54a11.07,11.07,0,0,1,1.95.74H95.67a12.14,12.14,0,0,1,2-.74,9,9,0,0,1,2.29-.29A7.44,7.44,0,0,1,102,232.72Zm-1.48,10.4h9.2l.63,1.55H101.1Zm1.08,2.92h9.26l.57,1.43h-9.26Zm1.15,2.91H112l.51,1.32h-9.32Zm1.08,2.92h9.32l.46,1.2H104.3Zm1.09,2.91h9.32l.45,1.09h-9.37ZM106,257.7h9.38l.4,1h-9.38Zm1.15,2.91h9.37l.34.86h-9.43Zm1.08,2.92h9.43l.23.69h-9.43Zm1.15,3h9.43l.11.29H109.5Z"/><path class="cls-1" d="M121.9,238.21v-.46a1,1,0,0,1,.12-.46h29.55v1.77H121.9Zm8.87,3.6v.05H121.9v-1.65h9.38A2.18,2.18,0,0,0,130.77,241.81Zm0,2.86H121.9v-1.55h8.87v.74A3.89,3.89,0,0,0,130.82,244.67Zm1.6,1.37H145a6.46,6.46,0,0,1,1.94.43,8.6,8.6,0,0,1,1.89,1H121.9V246h10.52Zm19.15,15.43H122v-.86h29.67v.46A.92.92,0,0,1,151.57,261.47Zm-1.11,2.4c-.1.12-.2.23-.32.35H122v-.69h28.76ZM122,266.5h24.58a6.75,6.75,0,0,1-1.77.29H122Zm.29-17.55h28.18a8,8,0,0,1,.49.66c.13.21.25.43.37.66H123.05A3.69,3.69,0,0,1,122.25,249Zm.91-13.66c.27-.3.55-.61.86-.91h27.55v1.88H122.48A6.29,6.29,0,0,1,123.16,235.29Zm3,17.35a7.75,7.75,0,0,1-1.34-.77h26.81v1.2h-24A6.08,6.08,0,0,1,126.16,252.64Zm.92-19.89a6.09,6.09,0,0,1,1.68-.26h22.81v1H125.39A8.07,8.07,0,0,1,127.08,232.75Zm15.69,24.95h8.86v1h-9.15A2.41,2.41,0,0,0,142.77,257.7Zm0-2.29a2.68,2.68,0,0,0-.06-.63h8.92v1.09h-8.86Z"/><path class="cls-1" d="M164,232.49v1h-8.86v-1Zm-8.86,1.89H164v1.88h-8.86Zm0,2.91H164v1.77h-8.86Zm0,2.92H164v1.65h-8.86Zm0,2.91H164v1.55h-8.86ZM186.61,246v1.43H155.17V246ZM155.17,249h31.44v1.32H155.17Zm0,2.92h31.44v1.2H155.17Zm0,2.91H164v1.09h-8.86Zm0,2.92H164v1h-8.86Zm0,2.91H164v.86h-8.86Zm0,2.92H164v.69h-8.86Zm0,3.26v-.29H164v.29Zm31.44-33.33h-8.86v-1h8.86Zm-8.86.92h8.86v1.88h-8.86Zm0,2.91h8.86v1.77h-8.86Zm0,2.92h8.86v1.65h-8.86Zm0,2.91h8.86v1.55h-8.86Zm0,11.66h8.86v1.09h-8.86Zm0,2.92h8.86v1h-8.86Zm0,2.91h8.86v.86h-8.86Zm0,2.92h8.86v.69h-8.86Zm0,3.26v-.29h8.86v.29Z"/><path class="cls-1" d="M190.27,263.53h19.89v.69H190Zm-.17,3h20.06v.29H191.07A1.34,1.34,0,0,1,190.1,266.5Zm1.31-5.89h18.75v.86H191.07Zm1.15-2.91h9.49l-.4,1h-9.49Zm1.14-2.92h9.43l-.4,1.09h-9.49Zm1.09-2.91h9.43l-.46,1.2h-9.43Zm1.14-2.92h9.38l-.46,1.32h-9.43Zm1.14-2.91h9.32l-.51,1.43H196.5Zm1.15-2.92h9.26l-.57,1.55h-9.26Zm9.77-1.26h-9.26l.63-1.65h17.55l.63,1.65h-9.2l-.18-.45Zm-7.49-4.57h15.27l.68,1.77H199.82Zm14.81-1H201a5,5,0,0,1,.72-1c.28-.3.58-.61.88-.91h11A7.19,7.19,0,0,1,215.31,236.26Zm-5-3.54a11.27,11.27,0,0,1,1.94.74h-8.29a12.58,12.58,0,0,1,2.06-.74,9,9,0,0,1,2.29-.29A7.5,7.5,0,0,1,210.28,232.72Zm-1.49,10.4H218l.62,1.55h-9.26Zm1.09,2.92h9.26l.57,1.43h-9.26ZM211,249h9.26l.52,1.32h-9.32Zm1.09,2.92h9.32l.45,1.2h-9.31Zm1.08,2.91h9.32l.46,1.09h-9.38Zm1.09,2.92h9.38l.4,1h-9.38Zm1.14,2.91h9.38l.34.86h-9.43Zm1.09,2.92h9.43l.23.69h-9.43Zm1.14,3h9.43l.12.29h-9.43Z"/><text class="cls-2" transform="translate(5.5 281.87)">ANI<tspan class="cls-3" x="69" y="0">M</tspan><tspan class="cls-4" x="95.83" y="0">A</tspan><tspan x="120.07" y="0">CIÓN</tspan></text><polygon class="cls-5" points="186.68 41.93 164.82 104.56 158.32 108.1 75.61 108.1 69.11 103.97 47.84 41.93 50.79 36.02 112.24 1.16 121.6 1.16 183.13 35.43 186.68 41.93"/><polygon class="cls-6" points="76.19 117.56 157.73 117.56 165.41 122.87 186.09 183.73 183.13 190.23 121.1 224.5 112.75 224.5 51.38 190.23 47.84 183.73 69.11 122.28 76.19 117.56"/><polygon class="cls-7" points="193.18 46.66 172.5 107.51 172.5 118.79 193.18 179.01 196.71 180.81 225.08 154.19 227.02 147.15 227.02 78.02 225.08 71.47 196.13 44.88 193.18 46.66"/><polygon class="cls-8" points="40.91 46.66 61.59 107.51 61.59 118.79 40.91 179.01 37.39 180.81 9.01 154.19 7.07 147.15 7.07 78.02 9.01 71.47 37.96 44.88 40.91 46.66"/></svg>