<svg xmlns="http://www.w3.org/2000/svg" viewBox="0 0 152.36 189"><defs><style>.cls-1{isolation:isolate;}.cls-2,.cls-3{fill:#fff;}.cls-3{font-size:8.21px;font-family:MontserratAlternates-Medium, MontserratAlternates Medium;font-weight:500;letter-spacing:1.24em;}.cls-4{letter-spacing:1.23em;}.cls-5{letter-spacing:1.23em;}.cls-6{letter-spacing:1.24em;}.cls-7{opacity:0.05;mix-blend-mode:multiply;}</style></defs><g class="cls-1"><g id="Layer_1" data-name="Layer 1"><path class="cls-2" d="M9.72,167.89H22.11v.43H9.58Zm-.11,1.85h12.5v.18H10.22A.84.84,0,0,1,9.61,169.74Zm.82-3.67H22.11v.54H10.22Zm.71-1.81h5.91l-.25.6H10.9Zm.72-1.82h5.87l-.25.68H11.57Zm.67-1.81H18.4l-.28.75H12.25Zm.71-1.82h5.84l-.28.82H12.92ZM14,157h5.8l-.32.89H13.6Zm.71-1.82h5.76l-.35,1H14.31Zm6.08-.78H15l.39-1H26.31l.39,1H21l-.11-.28Zm-4.66-2.85h9.5l.43,1.11H15.66Zm9.22-.64H16.38a2.71,2.71,0,0,1,.44-.6l.55-.57h6.87A4.5,4.5,0,0,1,25.31,150.91Zm-3.13-2.2a7,7,0,0,1,1.21.46H18.23a7.46,7.46,0,0,1,1.28-.46,5.47,5.47,0,0,1,1.42-.18A4.66,4.66,0,0,1,22.18,148.71Zm-.93,6.47H27l.39,1H21.61Zm.68,1.82h5.76l.36.89H22.28Zm.71,1.81H28.4l.33.82H22.92Zm.68,1.82h5.8l.28.75H23.6Zm.67,1.81h5.8l.29.68H24.24Zm.68,1.82H30.5l.25.6H24.92Zm.71,1.81h5.84l.21.54H25.56Zm.68,1.82h5.87l.14.43H26.2Zm.71,1.85h5.87l.07.18H26.84Z"/><path class="cls-2" d="M40.08,148.56v.61H34.56v-.61Zm-5.52,1.18h5.52v1.17H34.56Zm0,1.81h5.52v1.11H34.56Zm0,1.82h5.52v1H34.56Zm0,1.81h5.52v1H34.56Zm0,1.82H48.9l-.57.89H34.56Zm0,1.81h13.2l-.24.43.24.39H34.56Zm0,1.82H48.37l.46.75H34.56Zm0,1.81h5.52v.68H34.56Zm0,1.82h5.52v.6H34.56Zm0,1.81h5.52v.54H34.56Zm0,1.82h5.52v.43H34.56Zm0,2v-.18h5.52v.18Zm9.22-14.74H50l-.57,1H43.17Zm-.57,7.26h6.3l.43.68h-6.3Zm1.71-9.07h6.23l-.65,1H44.28Zm-.57,10.89h6.3l.35.6H44.74Zm1.71-12.71h6.22l-.71,1.11H45.34Zm-.57,14.52h6.26l.32.54H45.84Zm1.71-16.33h6.19l-.71,1.17H46.45Zm-.54,18.15h6.23l.25.43H46.91Zm7.08-18.72H47.55l.39-.61h6.19Zm-5.9,20.57H54l.1.18H47.94Z"/><path class="cls-2" d="M56.06,167.89H68.44v.43H55.91ZM56,169.74H68.44v.18H56.55A.83.83,0,0,1,56,169.74Zm.82-3.67H68.44v.54H56.55Zm.71-1.81h5.91l-.25.6H57.23Zm.71-1.82h5.87l-.25.68h-5.9Zm.68-1.81h5.87l-.29.75H58.58Zm.71-1.82h5.84l-.29.82H59.26Zm.71-1.81h5.8l-.32.89H59.94Zm.71-1.82h5.77l-.36,1H60.65Zm6.09-.78H61.32l.39-1H72.64l.39,1H67.3l-.1-.28Zm-4.66-2.85h9.5l.43,1.11H62Zm9.21-.64H62.71a3.14,3.14,0,0,1,.45-.6c.17-.19.36-.38.55-.57h6.87A4.45,4.45,0,0,1,71.64,150.91Zm-3.13-2.2a6.73,6.73,0,0,1,1.21.46H64.56a7.46,7.46,0,0,1,1.28-.46,5.55,5.55,0,0,1,1.43-.18A4.59,4.59,0,0,1,68.51,148.71Zm-.92,6.47h5.73l.39,1H67.94Zm.67,1.82H74l.35.89H68.62Zm.71,1.81h5.77l.32.82h-5.8Zm.68,1.82h5.8l.29.75h-5.8Zm.68,1.81h5.8l.28.68H70.58Zm.67,1.82h5.84l.25.6H71.25Zm.71,1.81h5.84l.21.54H71.89Zm.68,1.82h5.87l.15.43H72.53Zm.71,1.85H79l.08.18H73.17Z"/><path class="cls-2" d="M80.9,152.12v-.28a.62.62,0,0,1,.07-.29h18.4v1.11H80.9Zm5.51,2.24v0H80.9v-1h5.83A1.35,1.35,0,0,0,86.41,154.36Zm0,1.78H80.9v-1h5.51v.47A1.87,1.87,0,0,0,86.45,156.14Zm1,.86h7.83a4,4,0,0,1,1.21.26,5.85,5.85,0,0,1,1.18.63H80.9V157h6.54Zm11.93,9.61H80.93v-.54H99.4v.29A.73.73,0,0,1,99.37,166.61Zm-.7,1.49-.19.22H80.93v-.43h17.9Zm-17.74,1.64h15.3a4.1,4.1,0,0,1-1.1.18H80.93Zm.18-10.93H98.65c.12.15.22.28.31.41s.16.27.23.41H81.61A2.16,2.16,0,0,1,81.11,158.81Zm.57-8.5c.17-.19.34-.38.53-.57H99.37v1.17H81.25A3.48,3.48,0,0,1,81.68,150.31Zm1.87,10.8a4.35,4.35,0,0,1-.84-.48H99.4v.75H84.46A3.66,3.66,0,0,1,83.55,161.11Zm.57-12.39a3.94,3.94,0,0,1,1-.16h14.2v.61H83.07A4.89,4.89,0,0,1,84.12,148.72Zm9.77,15.54H99.4v.6H93.71A1.51,1.51,0,0,0,93.89,164.26Zm0-1.43a2,2,0,0,0,0-.39H99.4v.68H93.89Z"/><path class="cls-2" d="M107.12,148.56v.61h-5.51v-.61Zm-5.51,1.18h5.51v1.17h-5.51Zm0,1.81h5.51v1.11h-5.51Zm0,1.82h5.51v1h-5.51Zm0,1.81h5.51v1h-5.51ZM121.18,157v.89H101.61V157Zm-19.57,1.81h19.57v.82H101.61Zm0,1.82h19.57v.75H101.61Zm0,1.81h5.51v.68h-5.51Zm0,1.82h5.51v.6h-5.51Zm0,1.81h5.51v.54h-5.51Zm0,1.82h5.51v.43h-5.51Zm0,2v-.18h5.51v.18Zm19.57-20.75h-5.51v-.61h5.51Zm-5.51.57h5.51v1.17h-5.51Zm0,1.81h5.51v1.11h-5.51Zm0,1.82h5.51v1h-5.51Zm0,1.81h5.51v1h-5.51Zm0,7.26h5.51v.68h-5.51Zm0,1.82h5.51v.6h-5.51Zm0,1.81h5.51v.54h-5.51Zm0,1.82h5.51v.43h-5.51Zm0,2v-.18h5.51v.18Z"/><path class="cls-2" d="M123.46,167.89h12.38v.43H123.32Zm-.11,1.85h12.49v.18H124A.84.84,0,0,1,123.35,169.74Zm.82-3.67h11.67v.54H124Zm.71-1.81h5.91l-.25.6h-5.91Zm.71-1.82h5.88l-.25.68h-5.91Zm.68-1.81h5.87l-.28.75H126Zm.71-1.82h5.84l-.29.82h-5.87Zm.71-1.81h5.8l-.32.89h-5.83Zm.72-1.82h5.76l-.36,1h-5.76Zm6.08-.78h-5.76l.39-1H140l.39,1H134.7l-.1-.28Zm-4.66-2.85h9.5l.43,1.11H129.4Zm9.22-.64h-8.94a3.14,3.14,0,0,1,.45-.6l.55-.57H138A4.68,4.68,0,0,1,139.05,150.91Zm-3.14-2.2a6.73,6.73,0,0,1,1.21.46H132a7.57,7.57,0,0,1,1.29-.46,5.47,5.47,0,0,1,1.42-.18A4.54,4.54,0,0,1,135.91,148.71Zm-.92,6.47h5.73l.39,1h-5.76Zm.68,1.82h5.76l.36.89H136Zm.71,1.81h5.76l.32.82h-5.8Zm.67,1.82h5.8l.29.75h-5.8Zm.68,1.81h5.8l.29.68H138Zm.68,1.82h5.83l.25.6h-5.84Zm.71,1.81H145l.22.54H139.3Zm.67,1.82h5.88l.14.43h-5.87Zm.72,1.85h5.87l.07.18h-5.87Z"/><text class="cls-3" transform="translate(8.43 179.31)">ANI<tspan class="cls-4" x="42.95" y="0">M</tspan><tspan class="cls-5" x="59.66" y="0">A</tspan><tspan class="cls-6" x="74.75" y="0">CIÓN</tspan></text><polygon class="cls-7" points="13.39 134.8 29.27 142.12 36.84 143.59 74.14 146.16 81.37 146.16 115.34 143.22 118.65 142.48 132.26 135.13 132.63 134.02 122.43 127.5 115.71 125.93 101.36 125.56 34.78 122.93 16.76 127.03 15.29 128.14 13.08 134.02 13.39 134.8"/><polygon class="cls-2" points="121.22 29.93 107.61 68.92 103.57 71.13 52.07 71.13 48.02 68.55 34.78 29.93 36.62 26.25 74.88 4.55 80.71 4.55 119.02 25.88 121.22 29.93"/><polygon class="cls-2" points="52.44 77.01 103.2 77.01 107.98 80.32 120.86 118.21 119.02 122.25 80.39 143.59 75.2 143.59 36.99 122.25 34.78 118.21 48.02 79.95 52.44 77.01"/><polygon class="cls-2" points="125.27 32.87 112.39 70.76 112.39 77.78 125.27 115.27 127.47 116.39 145.13 99.81 146.34 95.44 146.34 52.4 145.13 48.32 127.11 31.77 125.27 32.87"/><polygon class="cls-2" points="30.47 32.87 43.35 70.76 43.35 77.78 30.47 115.27 28.28 116.39 10.61 99.81 9.4 95.44 9.4 52.4 10.61 48.32 28.63 31.77 30.47 32.87"/></g></g></svg>