<svg id="Layer_1" data-name="Layer 1" xmlns="http://www.w3.org/2000/svg" xmlns:xlink="http://www.w3.org/1999/xlink" viewBox="0 0 757.61 489.08"><defs><style>.cls-1{fill:url(#linear-gradient);}.cls-2{fill:url(#linear-gradient-2);}.cls-3{fill:url(#linear-gradient-3);}.cls-4{fill:url(#linear-gradient-4);}.cls-5{fill:url(#linear-gradient-5);}.cls-6{fill:url(#linear-gradient-6);}.cls-7{fill:aqua;}</style><linearGradient id="linear-gradient" x1="2.5" y1="413.81" x2="186.75" y2="413.81" gradientUnits="userSpaceOnUse"><stop offset="0" stop-color="#3c34eb"/><stop offset="0.15" stop-color="#374def"/><stop offset="0.39" stop-color="#3171f5"/><stop offset="0.63" stop-color="#2c8bf9"/><stop offset="0.84" stop-color="#299afb"/><stop offset="1" stop-color="#28a0fc"/></linearGradient><linearGradient id="linear-gradient-2" x1="67.91" y1="332.22" x2="186.75" y2="332.22" xlink:href="#linear-gradient"/><linearGradient id="linear-gradient-3" x1="114.83" y1="250.63" x2="186.75" y2="250.63" xlink:href="#linear-gradient"/><linearGradient id="linear-gradient-4" x1="491.01" y1="379.83" x2="497.85" y2="-91.94" gradientUnits="userSpaceOnUse"><stop offset="0.5" stop-color="#3c34eb"/><stop offset="0.54" stop-color="#374def"/><stop offset="0.61" stop-color="#3171f5"/><stop offset="0.68" stop-color="#2c8bf9"/><stop offset="0.74" stop-color="#299afb"/><stop offset="0.79" stop-color="#28a0fc"/></linearGradient><linearGradient id="linear-gradient-5" x1="261.73" y1="266.39" x2="725.49" y2="266.39" gradientUnits="userSpaceOnUse"><stop offset="0" stop-color="#e9e9ea"/><stop offset="0.52" stop-color="#fff"/><stop offset="1" stop-color="#e9e9ea"/></linearGradient><linearGradient id="linear-gradient-6" x1="239.85" y1="329.01" x2="748.21" y2="329.01" xlink:href="#linear-gradient"/></defs><path class="cls-1" d="M177.81,422.36H11.44a8.56,8.56,0,1,1,0-17.1H177.81a8.56,8.56,0,1,1,0,17.1Z"/><path class="cls-2" d="M177.81,340.77h-101a8.56,8.56,0,1,1,0-17.1h101a8.56,8.56,0,1,1,0,17.1Z"/><path class="cls-3" d="M177.81,259.18h-54a8.56,8.56,0,1,1,0-17.1h54a8.56,8.56,0,1,1,0,17.1Z"/><path class="cls-4" d="M247.57,171.67,479.82,6.89A27.65,27.65,0,0,1,511.76,7L740.49,171.67Z"/><rect class="cls-5" x="261.73" y="46.8" width="463.76" height="439.18"/><path class="cls-6" d="M743.83,169.52H725.26v21.1h0l-53.41,39.54-.7.52L627.8,262.77l-31.3,23.16-65.18,48.25-12.54,9.29-7-4.06a35.15,35.15,0,0,0-35.49.12l-6.93,4.12-11-8.09L391,285.93,359.5,262.77l-43.56-32.08-8-5.86-46.46-34.2h0V169.52H244.23a4.29,4.29,0,0,0-4.38,4.19v310.6a4.28,4.28,0,0,0,4.38,4.19h499.6a4.28,4.28,0,0,0,4.38-4.19V173.71A4.29,4.29,0,0,0,743.83,169.52Z"/><path class="cls-7" d="M730.29,467,518.78,343.47l-7-4.06a35.15,35.15,0,0,0-35.49.12l-6.93,4.12L261.5,467,458.41,335.56,475.72,324a35,35,0,0,1,40.35,0l15.25,10.17Z"/></svg>