<svg xmlns="http://www.w3.org/2000/svg" viewBox="0 0 27.48 45.09"><defs><style>.cls-1{isolation:isolate;}.cls-2{opacity:0.32;mix-blend-mode:multiply;}.cls-3{fill:#00fffb;}</style></defs><g class="cls-1"><g id="Layer_1" data-name="Layer 1"><polygon class="cls-2" points="12.92 27.91 6.38 21.35 0.57 21.35 7.1 27.91 12.92 27.91"/><path class="cls-2" d="M13.5,21.37l-.13,17.16H6.25l6.54,6.56H19.9L20,27.93h5.79c.32-2.26.63-4.52,1-6.87L20.5,14.75c0-.06.07-.13.11-.2l.06-.08.12-.12a1.93,1.93,0,0,1,.3-.27l.16-.11a2.11,2.11,0,0,1,.34-.16l.19-.08.41-.1.18,0c.21,0,.43-.05.65-.06.5,0,1,0,1.51,0H27l0-6.12L20.54.84,20.49,7H18c-.5,0-1,0-1.51,0a6.33,6.33,0,0,0-.64.06l-.19,0a2.73,2.73,0,0,0-.41.1l-.19.07a2.55,2.55,0,0,0-.33.17l-.17.11a1.53,1.53,0,0,0-.3.27l-.09.08,0,0s0,.06-.05.08a1.27,1.27,0,0,0-.13.19l-.07.15s0,.07-.05.1l0,.07a2.64,2.64,0,0,0-.12.4v0l0,.17a3.69,3.69,0,0,0-.05.37,1,1,0,0,0,0,.17c-.05,1.46-.09,4.68-.09,4.85l5.92,5.95c0,.31-.09.61-.13.92Z"/><path class="cls-3" d="M15.55.55c1,0,2,0,3.05.1.66,0,1.32.12,1.94.19L20.49,7H18c-.5,0-1,0-1.51,0-1.62,0-2.81.66-2.89,2.68-.05,1.46-.09,4.68-.09,4.85h6.75c-.33,2.35-.63,4.6-1,6.87H13.5l-.13,17.16H6.25l.13-17.18H.57l.05-6.84H6.46V14c0-1.38,0-2.75,0-4.13a17.93,17.93,0,0,1,.22-2.62,7.79,7.79,0,0,1,3.12-5.1A9,9,0,0,1,15,.56Z"/></g></g></svg>