<svg xmlns="http://www.w3.org/2000/svg" viewBox="0 0 42.85 42.42"><defs><style>.cls-1{isolation:isolate;}.cls-2{opacity:0.32;mix-blend-mode:multiply;}.cls-3{fill:#00fffb;}</style></defs><g class="cls-1"><g id="Layer_1" data-name="Layer 1"><polygon class="cls-2" points="20.59 26.06 14.55 19.95 9.18 19.95 15.22 26.06 20.59 26.06"/><path class="cls-2" d="M21.13,20,21,36H14.43l6,6.11h6.58l.12-16h5.35c.31-2.12.58-4.21.89-6.4L27.6,13.81a1,1,0,0,1,.1-.18l.06-.08a.63.63,0,0,1,.11-.12,2.16,2.16,0,0,1,.27-.25l.16-.1a2.1,2.1,0,0,1,.3-.15l.18-.07.38-.1.17,0a5.54,5.54,0,0,1,.6-.06l1.39,0h2.31l0-5.7-6-6.11-.05,5.7H25.28l-1.39,0a5.54,5.54,0,0,0-.6.06l-.17,0-.38.1-.18.07a1.77,1.77,0,0,0-.31.15l-.15.1a1.6,1.6,0,0,0-.27.25l-.09.08s0,0,0,0l-.06.08a.71.71,0,0,0-.11.17.61.61,0,0,0-.07.14l0,.09,0,.07a3.25,3.25,0,0,0-.11.37,0,0,0,0,1,0,0s0,.11,0,.16,0,.23-.05.35,0,.11,0,.16c-.05,1.36-.08,4.36-.08,4.52l5.47,5.53-.12.87Z"/><path class="cls-3" d="M23,.58c.94,0,1.89.06,2.82.1.61,0,1.22.11,1.8.17l-.05,5.7H25.28l-1.39,0c-1.5.05-2.6.62-2.68,2.5-.05,1.36-.08,4.36-.08,4.52h6.24c-.31,2.18-.59,4.28-.89,6.4H21.13L21,36H14.43l.12-16H9.18l.05-6.36h5.4v-.48c0-1.28,0-2.56,0-3.85a15.33,15.33,0,0,1,.21-2.43,7.24,7.24,0,0,1,2.88-4.76A8.31,8.31,0,0,1,22.5.59Z"/></g></g></svg>