<?xml version="1.0" encoding="utf-8"?>
<!-- Generator: Adobe Illustrator 24.0.1, SVG Export Plug-In . SVG Version: 6.00 Build 0)  -->
<svg version="1.1" id="Layer_1" xmlns="http://www.w3.org/2000/svg" xmlns:xlink="http://www.w3.org/1999/xlink" x="0px" y="0px"
	 viewBox="0 0 259.8 115" style="enable-background:new 0 0 259.8 115;" xml:space="preserve">
<style type="text/css">
	.st0{opacity:0.55;enable-background:new    ;}
	.st1{fill:#FFFFFF;}
	.st2{opacity:0.3;enable-background:new    ;}
	.st3{fill:#3C34EB;}
	.st4{fill:url(#SVGID_1_);}
	.st5{fill:url(#SVGID_2_);}
	.st6{fill:url(#SVGID_3_);}
	.st7{fill:url(#SVGID_4_);}
	.st8{fill:none;}
	.st9{enable-background:new    ;}
	.st10{fill:#C1C1C1;}
</style>
<rect x="81.3" class="st0" width="178.5" height="115"/>
<path class="st1" d="M123.3,115H4.9c-2.7,0-4.9-2.2-4.9-4.9V4.9C0,2.2,2.2,0,4.9,0h118.5c2.7,0,4.9,2.2,4.9,4.9v105.3
	C128.2,112.8,126,115,123.3,115z"/>
<g>
	<polygon class="st2" points="58.2,76 65,79.1 68.2,79.7 84.2,80.8 87.3,80.8 101.8,79.6 103.3,79.3 109.1,76.1 109.3,75.6 
		104.9,72.8 102,72.2 95.9,72 67.4,70.9 59.7,72.6 59,73.1 58.1,75.6 	"/>
	<g>
		<g>
			<path class="st3" d="M56.6,90.1h5.3v0.2h-5.4L56.6,90.1z M56.6,90.9h5.3V91h-5.1C56.7,91,56.6,91,56.6,90.9z M56.9,89.3h5v0.2
				h-5.1L56.9,89.3z M57.2,88.6h2.5l-0.1,0.3h-2.5L57.2,88.6z M57.5,87.8h2.5l-0.1,0.3h-2.5L57.5,87.8z M57.8,87h2.5l-0.1,0.3h-2.5
				L57.8,87z M58.1,86.2h2.5l-0.1,0.3H58L58.1,86.2z M58.5,85.5h2.5l-0.1,0.4h-2.5L58.5,85.5z M58.8,84.7h2.5l-0.2,0.4h-2.5
				L58.8,84.7z M61.4,84.3h-2.5l0.2-0.4h4.7l0.2,0.4H61.4l0-0.1L61.4,84.3z M59.4,83.1h4.1l0.2,0.5h-4.4L59.4,83.1z M63.3,82.9h-3.8
				c0-0.1,0.1-0.2,0.2-0.3c0.1-0.1,0.2-0.2,0.2-0.2h2.9C63,82.5,63.2,82.7,63.3,82.9z M62,81.9c0.2,0.1,0.4,0.1,0.5,0.2h-2.2
				c0.2-0.1,0.4-0.2,0.5-0.2c0.2-0.1,0.4-0.1,0.6-0.1C61.6,81.8,61.8,81.9,62,81.9z M61.6,84.7H64l0.2,0.4h-2.5L61.6,84.7z
				 M61.9,85.5h2.5l0.2,0.4H62L61.9,85.5z M62.2,86.2h2.5l0.1,0.3h-2.5L62.2,86.2z M62.5,87h2.5l0.1,0.3h-2.5L62.5,87z M62.7,87.8
				h2.5l0.1,0.3h-2.5L62.7,87.8z M63,88.6h2.5l0.1,0.3h-2.5L63,88.6z M63.3,89.3h2.5l0.1,0.2h-2.5L63.3,89.3z M63.6,90.1h2.5
				l0.1,0.2h-2.5L63.6,90.1z M63.9,90.9h2.5l0,0.1L63.9,90.9L63.9,90.9z"/>
			<path class="st3" d="M69.6,81.8v0.3h-2.4v-0.3H69.6z M67.3,82.3h2.4v0.5h-2.4V82.3z M67.3,83.1h2.4v0.5h-2.4V83.1z M67.3,83.9
				h2.4v0.4h-2.4V83.9z M67.3,84.7h2.4v0.4h-2.4V84.7z M67.3,85.5h6.1l-0.2,0.4h-5.9V85.5z M67.3,86.2h5.7l-0.1,0.2l0.1,0.2h-5.7
				V86.2z M67.3,87h5.9l0.2,0.3h-6.1C67.3,87.3,67.3,87,67.3,87z M67.3,87.8h2.4v0.3h-2.4V87.8z M67.3,88.6h2.4v0.3h-2.4V88.6z
				 M67.3,89.3h2.4v0.2h-2.4V89.3z M67.3,90.1h2.4v0.2h-2.4V90.1z M67.3,91L67.3,91l2.4-0.1V91H67.3z M71.2,84.7h2.7l-0.2,0.4H71
				L71.2,84.7z M71,87.8h2.7l0.2,0.3h-2.7L71,87.8z M71.7,83.9h2.7l-0.3,0.4h-2.7L71.7,83.9z M71.5,88.6h2.7l0.2,0.3h-2.7L71.5,88.6
				z M72.2,83.1h2.7l-0.3,0.5h-2.7L72.2,83.1z M71.9,89.3h2.7l0.1,0.2h-2.7L71.9,89.3z M72.7,82.3h2.7L75,82.8h-2.7L72.7,82.3z
				 M72.4,90.1h2.7l0.1,0.2h-2.7L72.4,90.1z M75.5,82.1h-2.7l0.2-0.3h2.7L75.5,82.1z M72.9,90.9h2.7l0.1,0.1L72.9,90.9L72.9,90.9z"
				/>
			<path class="st3" d="M76.5,90.1h5.3v0.2h-5.4L76.5,90.1z M76.4,90.9h5.3V91h-5.1C76.6,91,76.5,91,76.4,90.9z M76.8,89.3h5v0.2
				h-5.1L76.8,89.3z M77.1,88.6h2.5l-0.1,0.3H77L77.1,88.6z M77.4,87.8h2.5l-0.1,0.3h-2.5L77.4,87.8z M77.7,87h2.5l-0.1,0.3h-2.5
				L77.7,87z M78,86.2h2.5l-0.1,0.3h-2.5L78,86.2z M78.3,85.5h2.5l-0.1,0.4h-2.5L78.3,85.5z M78.6,84.7h2.5l-0.2,0.4h-2.5L78.6,84.7
				z M81.2,84.3h-2.5l0.2-0.4h4.7l0.2,0.4H81.2l0-0.1L81.2,84.3z M79.2,83.1h4.1l0.2,0.5H79L79.2,83.1z M83.1,82.9h-3.8
				c0.1-0.1,0.1-0.2,0.2-0.3s0.2-0.2,0.2-0.2h2.9C82.9,82.5,83,82.7,83.1,82.9z M81.8,81.9c0.2,0.1,0.4,0.1,0.5,0.2h-2.2
				c0.2-0.1,0.4-0.2,0.6-0.2c0.2-0.1,0.4-0.1,0.6-0.1C81.4,81.8,81.6,81.9,81.8,81.9z M81.4,84.7h2.4l0.2,0.4h-2.5L81.4,84.7z
				 M81.7,85.5h2.5l0.2,0.4h-2.5L81.7,85.5z M82,86.2h2.5l0.1,0.3h-2.5L82,86.2z M82.3,87h2.5l0.1,0.3h-2.5L82.3,87z M82.6,87.8h2.5
				l0.1,0.3h-2.5L82.6,87.8z M82.9,88.6h2.5l0.1,0.3H83L82.9,88.6z M83.2,89.3h2.5l0.1,0.2h-2.5L83.2,89.3z M83.5,90.1H86l0.1,0.2
				h-2.5L83.5,90.1z M83.8,90.9h2.5l0,0.1L83.8,90.9L83.8,90.9z"/>
			<path class="st3" d="M87.1,83.4c0,0,0-0.1,0-0.1s0-0.1,0-0.1H95v0.5h-7.9V83.4z M89.5,84.3L89.5,84.3l-2.4,0v-0.4h2.5
				C89.5,84,89.5,84.1,89.5,84.3z M89.5,85.1h-2.4v-0.4h2.4v0.2C89.5,85,89.5,85.1,89.5,85.1z M89.9,85.5h3.3c0.2,0,0.3,0.1,0.5,0.1
				c0.2,0.1,0.3,0.2,0.5,0.3h-7.2v-0.4H89.9L89.9,85.5z M95,89.6h-7.9v-0.2H95v0.1C95,89.5,95,89.6,95,89.6z M94.7,90.2
				C94.7,90.2,94.7,90.3,94.7,90.2l-7.6,0.1v-0.2L94.7,90.2C94.8,90.2,94.7,90.2,94.7,90.2z M87.1,90.9h6.6C93.5,91,93.3,91,93.2,91
				L87.1,90.9L87.1,90.9z M87.2,86.2h7.5c0.1,0.1,0.1,0.1,0.1,0.2s0.1,0.1,0.1,0.2h-7.5C87.3,86.5,87.2,86.4,87.2,86.2z M87.4,82.6
				c0.1-0.1,0.2-0.2,0.2-0.2H95v0.5h-7.8C87.3,82.8,87.4,82.7,87.4,82.6z M88.2,87.2c-0.1-0.1-0.3-0.1-0.4-0.2H95v0.3h-6.4
				C88.5,87.3,88.4,87.3,88.2,87.2z M88.5,81.9c0.2-0.1,0.3-0.1,0.4-0.1H95v0.3h-7C88.2,82,88.3,82,88.5,81.9z M92.7,88.6H95v0.3
				h-2.4C92.6,88.8,92.6,88.7,92.7,88.6z M92.7,88c0-0.1,0-0.1,0-0.2H95v0.3h-2.4V88z"/>
			<path class="st3" d="M98.3,81.8v0.3H96v-0.3H98.3z M96,82.3h2.4v0.5H96V82.3z M96,83.1h2.4v0.5H96V83.1z M96,83.9h2.4v0.4H96
				V83.9z M96,84.7h2.4v0.4H96V84.7z M104.3,85.5v0.4H96v-0.4H104.3z M96,86.2h8.4v0.3H96V86.2z M96,87h8.4v0.3H96V87z M96,87.8h2.4
				v0.3H96V87.8z M96,88.6h2.4v0.3H96V88.6z M96,89.3h2.4v0.2H96V89.3z M96,90.1h2.4v0.2H96V90.1z M96,91L96,91l2.4-0.1V91H96z
				 M104.3,82.1H102v-0.3h2.4V82.1z M102,82.3h2.4v0.5H102V82.3z M102,83.1h2.4v0.5H102V83.1z M102,83.9h2.4v0.4H102V83.9z
				 M102,84.7h2.4v0.4H102V84.7z M102,87.8h2.4v0.3H102V87.8z M102,88.6h2.4v0.3H102V88.6z M102,89.3h2.4v0.2H102V89.3z M102,90.1
				h2.4v0.2H102V90.1z M102,91L102,91l2.4-0.1V91H102z"/>
			<path class="st3" d="M105.3,90.1h5.3v0.2h-5.4L105.3,90.1z M105.3,90.9h5.3V91h-5.1C105.4,91,105.3,91,105.3,90.9z M105.6,89.3h5
				v0.2h-5.1L105.6,89.3z M105.9,88.6h2.5l-0.1,0.3h-2.5L105.9,88.6z M106.2,87.8h2.5l-0.1,0.3h-2.5L106.2,87.8z M106.5,87h2.5
				l-0.1,0.3h-2.5L106.5,87z M106.8,86.2h2.5l-0.1,0.3h-2.5L106.8,86.2z M107.1,85.5h2.5l-0.1,0.4H107L107.1,85.5z M107.4,84.7h2.5
				l-0.2,0.4h-2.5L107.4,84.7z M110.1,84.3h-2.5l0.2-0.4h4.7l0.2,0.4H110.1l0-0.1L110.1,84.3z M108.1,83.1h4.1l0.2,0.5h-4.4
				L108.1,83.1z M112,82.9h-3.8c0.1-0.1,0.1-0.2,0.2-0.3s0.2-0.2,0.2-0.2h2.9C111.7,82.5,111.9,82.7,112,82.9z M110.7,81.9
				c0.2,0.1,0.4,0.1,0.5,0.2H109c0.2-0.1,0.4-0.2,0.6-0.2c0.2-0.1,0.4-0.1,0.6-0.1C110.3,81.8,110.5,81.9,110.7,81.9z M110.3,84.7
				h2.4l0.2,0.4h-2.5L110.3,84.7z M110.6,85.5h2.5l0.2,0.4h-2.5L110.6,85.5z M110.8,86.2h2.5l0.1,0.3H111L110.8,86.2z M111.1,87h2.5
				l0.1,0.3h-2.5L111.1,87z M111.4,87.8h2.5l0.1,0.3h-2.5L111.4,87.8z M111.7,88.6h2.5l0.1,0.3h-2.5L111.7,88.6z M112,89.3h2.5
				l0.1,0.2h-2.5L112,89.3z M112.3,90.1h2.5l0.1,0.2h-2.5L112.3,90.1z M112.6,90.9h2.5l0,0.1L112.6,90.9L112.6,90.9z"/>
		</g>
		<g>
			
				<linearGradient id="SVGID_1_" gradientUnits="userSpaceOnUse" x1="102.8551" y1="81.6668" x2="65.8485" y2="81.312" gradientTransform="matrix(1 0 0 -1 0 116)">
				<stop  offset="0" style="stop-color:#8B078F"/>
				<stop  offset="0.4907" style="stop-color:#5865C5"/>
				<stop  offset="1" style="stop-color:#24C7FE"/>
			</linearGradient>
			<polygon class="st4" points="104.4,31.1 98.5,47.8 96.8,48.7 74.8,48.7 73,47.6 67.4,31.1 68.2,29.5 84.5,20.2 87,20.2 
				103.4,29.3 			"/>
			
				<linearGradient id="SVGID_2_" gradientUnits="userSpaceOnUse" x1="103.555" y1="50.1836" x2="66.7316" y2="51.1724" gradientTransform="matrix(1 0 0 -1 0 116)">
				<stop  offset="0" style="stop-color:#8B078F"/>
				<stop  offset="0.4907" style="stop-color:#5865C5"/>
				<stop  offset="1" style="stop-color:#24C7FE"/>
			</linearGradient>
			<polygon class="st5" points="74.9,51.2 96.7,51.2 98.7,52.6 104.2,68.9 103.4,70.6 86.9,79.7 84.7,79.7 68.3,70.6 67.4,68.9 
				73,52.5 			"/>
			
				<linearGradient id="SVGID_3_" gradientUnits="userSpaceOnUse" x1="100.59" y1="66.035" x2="115.12" y2="66.035" gradientTransform="matrix(1 0 0 -1 0 116)">
				<stop  offset="0.2858" style="stop-color:#DE058A"/>
				<stop  offset="0.4544" style="stop-color:#E60B55"/>
				<stop  offset="0.662" style="stop-color:#E8184E"/>
				<stop  offset="0.8892" style="stop-color:#FFA300"/>
				<stop  offset="1" style="stop-color:#FCEE21"/>
			</linearGradient>
			<polygon class="st6" points="106.1,32.3 100.6,48.5 100.6,51.5 106.1,67.6 107,68.1 114.6,61 115.1,59.1 115.1,40.7 114.6,38.9 
				106.9,31.9 			"/>
			
				<linearGradient id="SVGID_4_" gradientUnits="userSpaceOnUse" x1="56.5" y1="66.035" x2="71.03" y2="66.035" gradientTransform="matrix(1 0 0 -1 0 116)">
				<stop  offset="0" style="stop-color:#3C34EB"/>
				<stop  offset="0.1458" style="stop-color:#374DEF"/>
				<stop  offset="0.3943" style="stop-color:#3171F5"/>
				<stop  offset="0.6271" style="stop-color:#2C8BF9"/>
				<stop  offset="0.8358" style="stop-color:#299AFB"/>
				<stop  offset="1" style="stop-color:#28A0FC"/>
			</linearGradient>
			<polygon class="st7" points="65.5,32.3 71,48.5 71,51.5 65.5,67.6 64.6,68.1 57,61 56.5,59.1 56.5,40.7 57,38.9 64.7,31.9 			"/>
		</g>
		<g>
			<g>
				<path class="st3" d="M63,94.8l0.1-0.3c0.2,0.1,0.4,0.2,0.7,0.2c0.3,0,0.4-0.1,0.4-0.3c0-0.4-1.2-0.1-1.2-0.8
					c0-0.3,0.3-0.6,0.8-0.6c0.2,0,0.5,0.1,0.7,0.2l-0.1,0.3c-0.2-0.1-0.4-0.2-0.5-0.2c-0.3,0-0.4,0.1-0.4,0.3c0,0.4,1.2,0.1,1.2,0.8
					c0,0.3-0.3,0.6-0.8,0.6C63.4,95,63.1,94.9,63,94.8z"/>
				<path class="st3" d="M73,94.8c-0.1,0.1-0.3,0.1-0.4,0.1c-0.4,0-0.6-0.2-0.6-0.6v-1.7h0.3v0.4h0.5v0.3h-0.5v1
					c0,0.2,0.1,0.3,0.3,0.3c0.1,0,0.2,0,0.3-0.1L73,94.8z"/>
				<path class="st3" d="M82.2,93.1v1.9h-0.3v-0.3c-0.1,0.2-0.4,0.3-0.6,0.3c-0.5,0-0.8-0.3-0.8-0.8v-1.1h0.3v1
					c0,0.4,0.2,0.6,0.5,0.6c0.3,0,0.6-0.2,0.6-0.6v-1C81.8,93.1,82.2,93.1,82.2,93.1z"/>
				<path class="st3" d="M91.6,92.3v2.6h-0.3v-0.3c-0.2,0.2-0.4,0.3-0.7,0.3c-0.6,0-0.9-0.4-0.9-0.9s0.4-0.9,0.9-0.9
					c0.3,0,0.5,0.1,0.7,0.3v-1C91.3,92.3,91.6,92.3,91.6,92.3z M91.3,94c0-0.4-0.3-0.7-0.6-0.7S90,93.6,90,94c0,0.4,0.3,0.7,0.6,0.7
					S91.3,94.4,91.3,94z"/>
				<path class="st3" d="M99.2,92.5c0-0.1,0.1-0.2,0.2-0.2s0.2,0.1,0.2,0.2c0,0.1-0.1,0.2-0.2,0.2C99.3,92.7,99.2,92.6,99.2,92.5z
					 M99.3,93.1h0.3v1.9h-0.3V93.1z"/>
				<path class="st3" d="M107.1,94c0-0.6,0.4-0.9,1-0.9s1,0.4,1,0.9s-0.4,0.9-1,0.9C107.6,95,107.1,94.6,107.1,94z M108.7,94
					c0-0.4-0.3-0.7-0.6-0.7s-0.6,0.3-0.6,0.7c0,0.4,0.3,0.7,0.6,0.7S108.7,94.4,108.7,94z"/>
			</g>
		</g>
	</g>
</g>
<rect x="139.8" y="48.3" class="st8" width="5.4" height="1.5"/>
<g class="st9">
	<path class="st1" d="M143.1,36.4l-1.2,3.8h-1.6l4.1-12h1.9l4.1,12h-1.7l-1.3-3.8H143.1z M147,35.2l-1.2-3.4
		c-0.3-0.8-0.4-1.5-0.6-2.2h0c-0.2,0.7-0.4,1.4-0.6,2.2l-1.2,3.5H147z"/>
	<path class="st1" d="M153.5,35.5L153.5,35.5c0.2-0.3,0.5-0.7,0.8-1l2.5-3h1.9l-3.3,3.5l3.8,5h-1.9l-2.9-4.1l-0.8,0.9v3.2h-1.5V27.5
		h1.5V35.5z"/>
	<path class="st1" d="M165.3,40.1l-0.1-1.1h0c-0.5,0.7-1.4,1.3-2.6,1.3c-1.7,0-2.6-1.2-2.6-2.5c0-2.1,1.8-3.2,5.2-3.2v-0.2
		c0-0.7-0.2-2-2-2c-0.8,0-1.6,0.2-2.2,0.6l-0.4-1c0.7-0.5,1.7-0.8,2.8-0.8c2.6,0,3.3,1.8,3.3,3.5v3.2c0,0.7,0,1.5,0.1,2.1H165.3z
		 M165.1,35.7c-1.7,0-3.6,0.3-3.6,1.9c0,1,0.7,1.5,1.5,1.5c1.1,0,1.8-0.7,2.1-1.4c0.1-0.2,0.1-0.3,0.1-0.5V35.7z"/>
	<path class="st1" d="M168.9,38.5c0.5,0.3,1.3,0.6,2.1,0.6c1.1,0,1.7-0.6,1.7-1.3c0-0.8-0.5-1.1-1.6-1.6c-1.5-0.6-2.3-1.4-2.3-2.4
		c0-1.4,1.1-2.5,3-2.5c0.9,0,1.6,0.2,2.1,0.5l-0.4,1.1c-0.3-0.2-1-0.5-1.8-0.5c-0.9,0-1.4,0.5-1.4,1.2c0,0.7,0.5,1,1.6,1.5
		c1.5,0.5,2.2,1.3,2.3,2.6c0,1.5-1.2,2.6-3.2,2.6c-0.9,0-1.8-0.2-2.4-0.6L168.9,38.5z"/>
	<path class="st1" d="M176.1,27.5h1.6v5.4h0c0.3-0.4,0.6-0.8,1.1-1.1c0.5-0.3,1-0.4,1.6-0.4c1.2,0,3,0.7,3,3.7v5.1h-1.6v-4.9
		c0-1.4-0.5-2.5-2-2.5c-1,0-1.8,0.7-2.1,1.6c-0.1,0.2-0.1,0.5-0.1,0.7v5.2h-1.6V27.5z"/>
	<path class="st1" d="M190.7,40.1l-0.1-1.1h0c-0.5,0.7-1.4,1.3-2.6,1.3c-1.7,0-2.6-1.2-2.6-2.5c0-2.1,1.8-3.2,5.2-3.2v-0.2
		c0-0.7-0.2-2-2-2c-0.8,0-1.6,0.2-2.2,0.6l-0.4-1c0.7-0.5,1.7-0.8,2.8-0.8c2.6,0,3.3,1.8,3.3,3.5v3.2c0,0.7,0,1.5,0.1,2.1H190.7z
		 M190.5,35.7c-1.7,0-3.6,0.3-3.6,1.9c0,1,0.7,1.5,1.5,1.5c1.1,0,1.8-0.7,2.1-1.4c0.1-0.2,0.1-0.3,0.1-0.5V35.7z"/>
	<path class="st1" d="M198.1,38.2c0.7,0.4,1.7,0.8,2.8,0.8c1.6,0,2.5-0.8,2.5-2c0-1.1-0.6-1.8-2.3-2.4c-2-0.7-3.2-1.7-3.2-3.4
		c0-1.9,1.5-3.2,3.9-3.2c1.2,0,2.1,0.3,2.6,0.6l-0.4,1.3c-0.4-0.2-1.2-0.6-2.3-0.6c-1.6,0-2.3,1-2.3,1.8c0,1.1,0.7,1.7,2.4,2.3
		c2,0.8,3,1.8,3,3.5c0,1.8-1.4,3.4-4.2,3.4c-1.2,0-2.4-0.3-3.1-0.8L198.1,38.2z"/>
	<path class="st1" d="M208.8,29.1v2.5h2.2v1.2h-2.2v4.6c0,1.1,0.3,1.7,1.2,1.7c0.4,0,0.7,0,0.9-0.1l0.1,1.2
		c-0.3,0.1-0.8,0.2-1.4,0.2c-0.7,0-1.3-0.2-1.7-0.7c-0.4-0.5-0.6-1.2-0.6-2.2v-4.7H206v-1.2h1.3v-2.1L208.8,29.1z"/>
	<path class="st1" d="M220,37.8c0,0.9,0,1.7,0.1,2.3h-1.4l-0.1-1.4h0c-0.4,0.7-1.3,1.6-2.8,1.6c-1.3,0-3-0.8-3-3.8v-5h1.6v4.7
		c0,1.6,0.5,2.7,1.9,2.7c1,0,1.8-0.7,2.1-1.4c0.1-0.2,0.1-0.5,0.1-0.8v-5.3h1.6V37.8z"/>
	<path class="st1" d="M230,27.5v10.4c0,0.8,0,1.6,0.1,2.2h-1.4l-0.1-1.5h0c-0.5,1-1.5,1.7-2.9,1.7c-2.1,0-3.7-1.8-3.7-4.4
		c0-2.9,1.8-4.6,3.9-4.6c1.3,0,2.2,0.6,2.6,1.3h0v-5.1H230z M228.5,35c0-0.2,0-0.5-0.1-0.7c-0.2-1-1.1-1.8-2.3-1.8
		c-1.6,0-2.6,1.4-2.6,3.3c0,1.7,0.9,3.2,2.5,3.2c1,0,2-0.7,2.3-1.9c0.1-0.2,0.1-0.4,0.1-0.7V35z"/>
	<path class="st1" d="M234.4,29.1c0,0.5-0.4,1-1,1c-0.6,0-0.9-0.4-0.9-1c0-0.5,0.4-1,1-1C234,28.2,234.4,28.6,234.4,29.1z
		 M232.6,40.1v-8.6h1.6v8.6H232.6z"/>
	<path class="st1" d="M244.5,35.8c0,3.2-2.2,4.6-4.3,4.6c-2.3,0-4.1-1.7-4.1-4.4c0-2.9,1.9-4.5,4.3-4.5
		C242.9,31.4,244.5,33.1,244.5,35.8z M237.7,35.9c0,1.9,1.1,3.3,2.6,3.3c1.5,0,2.6-1.4,2.6-3.3c0-1.5-0.7-3.3-2.6-3.3
		C238.5,32.5,237.7,34.2,237.7,35.9z"/>
</g>
<g class="st9">
	<path class="st10" d="M150.1,49.8c0,0.2-0.1,0.4-0.4,0.4c-0.2,0-0.3-0.2-0.3-0.4c0-0.2,0.2-0.4,0.4-0.4
		C150,49.4,150.1,49.5,150.1,49.8z M149.6,55.6v-4.5h0.4v4.5H149.6z"/>
	<path class="st10" d="M151.3,55c0.2,0.2,0.6,0.3,1,0.3c0.7,0,1.1-0.4,1.1-0.9c0-0.5-0.3-0.8-1-1c-0.7-0.3-1.2-0.7-1.2-1.2
		c0-0.7,0.5-1.2,1.4-1.2c0.4,0,0.8,0.1,1,0.3l-0.2,0.4c-0.2-0.1-0.4-0.3-0.9-0.3c-0.6,0-0.9,0.4-0.9,0.8c0,0.5,0.3,0.7,0.9,0.9
		c0.7,0.3,1.2,0.7,1.2,1.3c0,0.8-0.6,1.3-1.5,1.3c-0.4,0-0.9-0.1-1.2-0.3L151.3,55z"/>
	<path class="st10" d="M159.6,55.6l-0.1-0.7h0c-0.2,0.3-0.7,0.8-1.4,0.8c-0.9,0-1.3-0.6-1.3-1.2c0-1,0.9-1.7,2.8-1.7v-0.1
		c0-0.4-0.1-1.3-1.2-1.3c-0.4,0-0.8,0.1-1.1,0.3l-0.1-0.3c0.4-0.3,0.9-0.4,1.3-0.4c1.3,0,1.6,1,1.6,1.8v1.8c0,0.4,0,0.7,0.1,1.1
		H159.6z M159.5,53.2c-1,0-2.3,0.1-2.3,1.2c0,0.7,0.4,0.9,0.9,0.9c0.8,0,1.2-0.5,1.3-0.9c0-0.1,0-0.2,0-0.3V53.2z"/>
	<path class="st10" d="M163.5,52.1c0-0.4,0-0.7,0-1.1h0.4l0,0.8h0c0.3-0.5,0.7-0.9,1.5-0.9c0.6,0,1.1,0.4,1.3,1h0
		c0.1-0.3,0.3-0.5,0.5-0.6c0.3-0.2,0.6-0.4,1.1-0.4c0.4,0,1.5,0.3,1.5,2v2.7h-0.4V53c0-1-0.4-1.6-1.2-1.6c-0.6,0-1,0.4-1.2,0.9
		c0,0.1-0.1,0.3-0.1,0.4v2.9h-0.4v-2.8c0-0.8-0.4-1.4-1.1-1.4c-0.6,0-1.1,0.5-1.3,1c0,0.1-0.1,0.3-0.1,0.4v2.8h-0.4V52.1z"/>
	<path class="st10" d="M171.3,53.3c0,1.5,0.8,2,1.7,2c0.7,0,1-0.1,1.3-0.3l0.1,0.4c-0.2,0.1-0.6,0.3-1.4,0.3c-1.3,0-2.1-1-2.1-2.3
		c0-1.5,0.9-2.5,2-2.5c1.5,0,1.8,1.4,1.8,2.1c0,0.1,0,0.2,0,0.3H171.3z M174.2,52.9c0-0.6-0.3-1.6-1.4-1.6c-1,0-1.4,0.9-1.5,1.6
		H174.2z"/>
	<path class="st10" d="M175.8,52.1c0-0.4,0-0.7,0-1.1h0.4l0,0.8h0c0.3-0.5,0.7-0.9,1.5-0.9c0.6,0,1.1,0.4,1.3,1h0
		c0.1-0.3,0.3-0.5,0.5-0.6c0.3-0.2,0.6-0.4,1.1-0.4c0.4,0,1.5,0.3,1.5,2v2.7h-0.4V53c0-1-0.4-1.6-1.2-1.6c-0.6,0-1,0.4-1.2,0.9
		c0,0.1-0.1,0.3-0.1,0.4v2.9h-0.4v-2.8c0-0.8-0.4-1.4-1.1-1.4c-0.6,0-1.1,0.5-1.3,1c0,0.1-0.1,0.3-0.1,0.4v2.8h-0.4V52.1z"/>
	<path class="st10" d="M183.5,55.6c0-0.3,0-0.7,0-1.1v-5.7h0.4v3h0c0.3-0.6,0.9-1,1.7-1c1.2,0,1.9,1,1.9,2.3c0,1.6-1,2.4-2,2.4
		c-0.7,0-1.3-0.3-1.6-0.9h0l0,0.8H183.5z M184,53.8c0,0.1,0,0.2,0,0.3c0.2,0.7,0.8,1.2,1.5,1.2c1,0,1.6-0.9,1.6-2c0-1-0.6-2-1.6-2
		c-0.7,0-1.3,0.5-1.5,1.2c0,0.1-0.1,0.2-0.1,0.4V53.8z"/>
	<path class="st10" d="M188.8,53.3c0,1.5,0.8,2,1.7,2c0.7,0,1-0.1,1.3-0.3l0.1,0.4c-0.2,0.1-0.6,0.3-1.4,0.3c-1.3,0-2.1-1-2.1-2.3
		c0-1.5,0.9-2.5,2-2.5c1.5,0,1.8,1.4,1.8,2.1c0,0.1,0,0.2,0,0.3H188.8z M191.7,52.9c0-0.6-0.3-1.6-1.4-1.6c-1,0-1.4,0.9-1.5,1.6
		H191.7z"/>
	<path class="st10" d="M193.4,52.4c0-0.5,0-0.9,0-1.4h0.4l0,0.9h0c0.2-0.6,0.7-1,1.3-1c0.1,0,0.1,0,0.2,0v0.4c-0.1,0-0.1,0-0.2,0
		c-0.6,0-1.1,0.5-1.2,1.3c0,0.1,0,0.3,0,0.4v2.5h-0.4V52.4z"/>
	<path class="st10" d="M202.1,53.3c0,1.7-1.2,2.4-2.2,2.4c-1.2,0-2.1-0.9-2.1-2.3c0-1.6,1-2.4,2.1-2.4
		C201.3,51,202.1,51.9,202.1,53.3z M198.3,53.3c0,1.1,0.7,2,1.7,2c0.9,0,1.7-0.9,1.7-2c0-0.8-0.5-2-1.7-2
		C198.8,51.3,198.3,52.4,198.3,53.3z"/>
	<path class="st10" d="M203.3,55.6v-4.2h-0.7v-0.4h0.7v-0.2c0-0.7,0.1-1.3,0.5-1.6c0.3-0.3,0.7-0.4,1-0.4c0.3,0,0.5,0.1,0.7,0.2
		l-0.1,0.4c-0.1-0.1-0.3-0.1-0.6-0.1c-0.8,0-1,0.8-1,1.6v0.3h1.2v0.4h-1.2v4.2H203.3z"/>
	<path class="st10" d="M208.8,55.6l-2.1-6.4h0.5l1.1,3.4c0.3,0.9,0.6,1.7,0.7,2.4h0c0.2-0.7,0.5-1.5,0.8-2.4l1.2-3.4h0.5l-2.4,6.4
		H208.8z"/>
	<path class="st10" d="M212.8,49.8c0,0.2-0.1,0.4-0.4,0.4c-0.2,0-0.4-0.2-0.4-0.4c0-0.2,0.2-0.4,0.4-0.4
		C212.6,49.4,212.8,49.5,212.8,49.8z M212.2,55.6v-4.5h0.4v4.5H212.2z"/>
	<path class="st10" d="M214.2,52.1c0-0.4,0-0.7,0-1.1h0.4l0,0.8h0c0.3-0.5,0.7-0.9,1.5-0.9c0.6,0,1.1,0.4,1.3,1h0
		c0.1-0.3,0.3-0.5,0.5-0.6c0.3-0.2,0.6-0.4,1.1-0.4c0.4,0,1.5,0.3,1.5,2v2.7H220V53c0-1-0.4-1.6-1.2-1.6c-0.6,0-1,0.4-1.2,0.9
		c0,0.1-0.1,0.3-0.1,0.4v2.9h-0.4v-2.8c0-0.8-0.4-1.4-1.1-1.4c-0.6,0-1.1,0.5-1.3,1c0,0.1-0.1,0.3-0.1,0.4v2.8h-0.4V52.1z"/>
	<path class="st10" d="M222,53.3c0,1.5,0.8,2,1.7,2c0.7,0,1-0.1,1.3-0.3l0.1,0.4c-0.2,0.1-0.6,0.3-1.4,0.3c-1.3,0-2.1-1-2.1-2.3
		c0-1.5,0.9-2.5,2-2.5c1.5,0,1.8,1.4,1.8,2.1c0,0.1,0,0.2,0,0.3H222z M224.9,52.9c0-0.6-0.3-1.6-1.4-1.6c-1,0-1.4,0.9-1.5,1.6H224.9
		z"/>
	<path class="st10" d="M230.4,53.3c0,1.7-1.2,2.4-2.2,2.4c-1.2,0-2.1-0.9-2.1-2.3c0-1.6,1-2.4,2.1-2.4
		C229.5,51,230.4,51.9,230.4,53.3z M226.6,53.3c0,1.1,0.7,2,1.7,2c0.9,0,1.7-0.9,1.7-2c0-0.8-0.5-2-1.7-2
		C227.1,51.3,226.6,52.4,226.6,53.3z"/>
	<path class="st10" d="M230.9,56.8c0.2-0.4,0.4-1.4,0.5-2l0.6-0.1c-0.2,0.7-0.6,1.8-0.7,2.1L230.9,56.8z"/>
</g>
<g class="st9">
	<path class="st10" d="M158.3,61.1v1.3h1.3v0.4h-1.3v3c0,0.6,0.2,0.9,0.7,0.9c0.2,0,0.4,0,0.5-0.1l0.1,0.3c-0.1,0.1-0.4,0.1-0.6,0.1
		c-0.3,0-0.6-0.1-0.8-0.3c-0.2-0.2-0.3-0.6-0.3-1.1v-2.9h-0.8v-0.4h0.8v-1.2L158.3,61.1z"/>
	<path class="st10" d="M160.6,60.2h0.4v3h0c0.1-0.3,0.3-0.5,0.6-0.7c0.3-0.2,0.6-0.3,0.9-0.3c0.4,0,1.6,0.2,1.6,1.9v2.7h-0.4v-2.7
		c0-0.8-0.3-1.6-1.3-1.6c-0.6,0-1.2,0.5-1.4,1c0,0.1-0.1,0.3-0.1,0.4v2.8h-0.4V60.2z"/>
	<path class="st10" d="M165.7,64.6c0,1.5,0.8,2,1.7,2c0.7,0,1-0.1,1.3-0.3l0.1,0.4c-0.2,0.1-0.6,0.3-1.4,0.3c-1.3,0-2.1-1-2.1-2.3
		c0-1.5,0.9-2.5,2-2.5c1.5,0,1.8,1.4,1.8,2.1c0,0.1,0,0.2,0,0.3H165.7z M168.6,64.3c0-0.6-0.3-1.6-1.4-1.6c-1,0-1.4,0.9-1.5,1.6
		H168.6z"/>
	<path class="st10" d="M172.3,60.2h0.4v3h0c0.1-0.3,0.3-0.5,0.6-0.7c0.3-0.2,0.6-0.3,0.9-0.3c0.4,0,1.6,0.2,1.6,1.9v2.7h-0.4v-2.7
		c0-0.8-0.3-1.6-1.3-1.6c-0.6,0-1.2,0.5-1.4,1c0,0.1-0.1,0.3-0.1,0.4v2.8h-0.4V60.2z"/>
	<path class="st10" d="M181.3,64.6c0,1.7-1.2,2.4-2.2,2.4c-1.2,0-2.1-0.9-2.1-2.3c0-1.6,1-2.4,2.1-2.4
		C180.4,62.3,181.3,63.2,181.3,64.6z M177.5,64.7c0,1.1,0.7,2,1.7,2c0.9,0,1.7-0.9,1.7-2c0-0.8-0.5-2-1.7-2
		C178,62.7,177.5,63.7,177.5,64.7z"/>
	<path class="st10" d="M182.4,63.5c0-0.4,0-0.7,0-1.1h0.4l0,0.8h0c0.3-0.5,0.7-0.9,1.5-0.9c0.6,0,1.1,0.4,1.3,1h0
		c0.1-0.3,0.3-0.5,0.5-0.6c0.3-0.2,0.6-0.4,1.1-0.4c0.4,0,1.5,0.3,1.5,2v2.7h-0.4v-2.6c0-1-0.4-1.6-1.2-1.6c-0.6,0-1,0.4-1.2,0.9
		c0,0.1-0.1,0.3-0.1,0.4v2.9h-0.4v-2.8c0-0.8-0.4-1.4-1.1-1.4c-0.6,0-1.1,0.5-1.3,1c0,0.1-0.1,0.3-0.1,0.4v2.8h-0.4V63.5z"/>
	<path class="st10" d="M190.2,64.6c0,1.5,0.8,2,1.7,2c0.7,0,1-0.1,1.3-0.3l0.1,0.4c-0.2,0.1-0.6,0.3-1.4,0.3c-1.3,0-2.1-1-2.1-2.3
		c0-1.5,0.9-2.5,2-2.5c1.5,0,1.8,1.4,1.8,2.1c0,0.1,0,0.2,0,0.3H190.2z M193.1,64.3c0-0.6-0.3-1.6-1.4-1.6c-1,0-1.4,0.9-1.5,1.6
		H193.1z"/>
	<path class="st10" d="M196.8,66.9v-4.2h-0.7v-0.4h0.7v-0.2c0-0.7,0.1-1.3,0.5-1.6c0.3-0.3,0.7-0.4,1-0.4c0.3,0,0.5,0.1,0.7,0.2
		l-0.1,0.4c-0.1-0.1-0.3-0.1-0.6-0.1c-0.8,0-1,0.8-1,1.6v0.3h1.2v0.4h-1.2v4.2H196.8z"/>
	<path class="st10" d="M203,64.6c0,1.7-1.2,2.4-2.2,2.4c-1.2,0-2.1-0.9-2.1-2.3c0-1.6,1-2.4,2.1-2.4C202.2,62.3,203,63.2,203,64.6z
		 M199.2,64.7c0,1.1,0.7,2,1.7,2c0.9,0,1.7-0.9,1.7-2c0-0.8-0.5-2-1.7-2C199.8,62.7,199.2,63.7,199.2,64.7z"/>
	<path class="st10" d="M204.2,63.8c0-0.5,0-0.9,0-1.4h0.4l0,0.9h0c0.2-0.6,0.7-1,1.3-1c0.1,0,0.1,0,0.2,0v0.4c-0.1,0-0.1,0-0.2,0
		c-0.6,0-1.1,0.5-1.2,1.3c0,0.1,0,0.3,0,0.4v2.5h-0.4V63.8z"/>
	<path class="st10" d="M209,60.2h0.4v3h0c0.1-0.3,0.3-0.5,0.6-0.7c0.3-0.2,0.6-0.3,0.9-0.3c0.4,0,1.6,0.2,1.6,1.9v2.7h-0.4v-2.7
		c0-0.8-0.3-1.6-1.3-1.6c-0.6,0-1.2,0.5-1.4,1c0,0.1-0.1,0.3-0.1,0.4v2.8H209V60.2z"/>
	<path class="st10" d="M214.7,61.1c0,0.2-0.1,0.4-0.4,0.4c-0.2,0-0.4-0.2-0.4-0.4c0-0.2,0.2-0.4,0.4-0.4
		C214.6,60.7,214.7,60.9,214.7,61.1z M214.1,66.9v-4.5h0.4v4.5H214.1z"/>
	<path class="st10" d="M219.7,62.4c0,0.3,0,0.7,0,1.2v2.7c0,1.2-0.2,1.7-0.6,2.1c-0.4,0.4-1,0.5-1.5,0.5c-0.5,0-1.1-0.1-1.4-0.4
		l0.2-0.4c0.3,0.2,0.8,0.4,1.4,0.4c1,0,1.6-0.5,1.6-1.8v-0.6h0c-0.2,0.5-0.8,0.9-1.6,0.9c-1.1,0-1.9-1-1.9-2.2c0-1.6,1-2.4,2-2.4
		c0.9,0,1.3,0.5,1.5,0.9h0l0-0.8H219.7z M219.3,64.2c0-0.2,0-0.3-0.1-0.4c-0.2-0.5-0.7-1-1.4-1c-1,0-1.6,0.8-1.6,2
		c0,1,0.5,1.9,1.6,1.9c0.6,0,1.2-0.4,1.4-1c0.1-0.1,0.1-0.3,0.1-0.5V64.2z"/>
	<path class="st10" d="M221.2,60.2h0.4v3h0c0.1-0.3,0.3-0.5,0.6-0.7c0.3-0.2,0.6-0.3,0.9-0.3c0.4,0,1.6,0.2,1.6,1.9v2.7h-0.4v-2.7
		c0-0.8-0.3-1.6-1.3-1.6c-0.6,0-1.2,0.5-1.4,1c0,0.1-0.1,0.3-0.1,0.4v2.8h-0.4V60.2z"/>
</g>
<g class="st9">
	<path class="st10" d="M152.9,77.5L152.9,77.5c-0.2,0.5-0.8,0.9-1.6,0.9c-1.1,0-2-0.9-2-2.3c0-1.8,1.1-2.5,2.1-2.5
		c0.8,0,1.3,0.4,1.5,0.9h0l0-0.8h0.4c0,0.3,0,0.7,0,1.2v5.2h-0.4V77.5z M152.9,75.5c0-0.1,0-0.3,0-0.4c-0.2-0.6-0.7-1.1-1.4-1.1
		c-1,0-1.6,0.8-1.6,2c0,1,0.5,2,1.6,2c0.6,0,1.2-0.4,1.4-1.1c0-0.1,0.1-0.3,0.1-0.5V75.5z"/>
	<path class="st10" d="M158.3,77.2c0,0.4,0,0.8,0,1.1H158l0-0.8h0c-0.2,0.4-0.7,0.9-1.6,0.9c-0.6,0-1.5-0.3-1.5-2v-2.6h0.4v2.6
		c0,1,0.3,1.7,1.2,1.7c0.7,0,1.1-0.5,1.3-0.9c0-0.1,0.1-0.3,0.1-0.5v-2.8h0.4V77.2z"/>
	<path class="st10" d="M162.3,78.3l-0.1-0.7h0c-0.2,0.3-0.7,0.8-1.4,0.8c-0.9,0-1.3-0.6-1.3-1.2c0-1,0.9-1.7,2.8-1.7v-0.1
		c0-0.4-0.1-1.3-1.2-1.3c-0.4,0-0.8,0.1-1.1,0.3l-0.1-0.3c0.4-0.3,0.9-0.4,1.3-0.4c1.3,0,1.6,1,1.6,1.8v1.8c0,0.4,0,0.7,0.1,1.1
		H162.3z M162.2,75.9c-1,0-2.3,0.1-2.3,1.2c0,0.7,0.4,0.9,0.9,0.9c0.8,0,1.2-0.5,1.3-0.9c0-0.1,0-0.2,0-0.3V75.9z"/>
	<path class="st10" d="M164.1,71.6h0.4v6.7h-0.4V71.6z"/>
	<path class="st10" d="M166.7,72.4c0,0.2-0.1,0.4-0.4,0.4c-0.2,0-0.4-0.2-0.4-0.4c0-0.2,0.2-0.4,0.4-0.4
		C166.6,72.1,166.7,72.2,166.7,72.4z M166.2,78.3v-4.5h0.4v4.5H166.2z"/>
	<path class="st10" d="M168.8,72.4v1.3h1.3v0.4h-1.3v3c0,0.6,0.2,0.9,0.7,0.9c0.2,0,0.4,0,0.5-0.1l0.1,0.3c-0.1,0.1-0.4,0.1-0.6,0.1
		c-0.3,0-0.6-0.1-0.8-0.3c-0.2-0.2-0.3-0.6-0.3-1.1v-2.9h-0.8v-0.4h0.8v-1.2L168.8,72.4z"/>
	<path class="st10" d="M171,73.7l1.2,3c0.1,0.3,0.3,0.7,0.3,1h0c0.1-0.3,0.2-0.6,0.3-1l1.1-2.9h0.5l-1.4,3.4
		c-0.5,1.4-0.9,2.3-1.5,2.8c-0.4,0.3-0.7,0.4-0.8,0.5l-0.1-0.4c0.2-0.1,0.5-0.2,0.8-0.5c0.2-0.2,0.5-0.6,0.8-1.1
		c0-0.1,0.1-0.2,0.1-0.2c0,0,0-0.1-0.1-0.2l-1.7-4.2H171z"/>
	<path class="st10" d="M177.2,73.7l1.1,2.8c0.2,0.4,0.3,0.8,0.4,1.2h0c0.1-0.4,0.3-0.8,0.5-1.2l1.1-2.8h0.5l-1.8,4.5h-0.4l-1.8-4.5
		H177.2z"/>
	<path class="st10" d="M182.2,72.4c0,0.2-0.1,0.4-0.4,0.4c-0.2,0-0.3-0.2-0.3-0.4c0-0.2,0.2-0.4,0.4-0.4
		C182.1,72.1,182.2,72.2,182.2,72.4z M181.7,78.3v-4.5h0.4v4.5H181.7z"/>
	<path class="st10" d="M187.3,71.6v5.7c0,0.3,0,0.7,0,1.1h-0.4l0-0.9h0c-0.2,0.5-0.8,1-1.6,1c-1.1,0-2-0.9-2-2.3
		c0-1.5,0.9-2.5,2-2.5c0.8,0,1.3,0.4,1.5,0.8h0v-2.9H187.3z M186.8,75.5c0-0.1,0-0.3,0-0.4c-0.2-0.6-0.7-1.1-1.4-1.1
		c-1,0-1.6,0.9-1.6,2c0,1,0.5,2,1.6,2c0.6,0,1.3-0.4,1.5-1.2c0-0.1,0-0.2,0-0.4V75.5z"/>
	<path class="st10" d="M188.8,76c0,1.5,0.8,2,1.7,2c0.7,0,1-0.1,1.3-0.3l0.1,0.4c-0.2,0.1-0.6,0.3-1.4,0.3c-1.3,0-2.1-1-2.1-2.3
		c0-1.5,0.9-2.5,2-2.5c1.5,0,1.8,1.4,1.8,2.1c0,0.1,0,0.2,0,0.3H188.8z M191.7,75.6c0-0.6-0.3-1.6-1.4-1.6c-1,0-1.4,0.9-1.5,1.6
		H191.7z"/>
	<path class="st10" d="M197.2,76c0,1.7-1.2,2.4-2.2,2.4c-1.2,0-2.1-0.9-2.1-2.3c0-1.6,1-2.4,2.1-2.4C196.4,73.6,197.2,74.6,197.2,76
		z M193.4,76c0,1.1,0.7,2,1.7,2c0.9,0,1.7-0.9,1.7-2c0-0.8-0.5-2-1.7-2C194,74,193.4,75.1,193.4,76z"/>
	<path class="st10" d="M198.2,77.7c0.2,0.2,0.6,0.3,1,0.3c0.7,0,1.1-0.4,1.1-0.9c0-0.5-0.3-0.8-1-1c-0.7-0.3-1.2-0.7-1.2-1.2
		c0-0.7,0.5-1.2,1.4-1.2c0.4,0,0.8,0.1,1,0.3l-0.2,0.4c-0.2-0.1-0.4-0.3-0.9-0.3c-0.6,0-0.9,0.4-0.9,0.8c0,0.5,0.3,0.7,0.9,0.9
		c0.7,0.3,1.2,0.7,1.2,1.3c0,0.8-0.6,1.3-1.5,1.3c-0.4,0-0.9-0.1-1.2-0.3L198.2,77.7z"/>
	<path class="st10" d="M206.5,78.3l-0.1-0.7h0c-0.2,0.3-0.7,0.8-1.4,0.8c-0.9,0-1.3-0.6-1.3-1.2c0-1,0.9-1.7,2.8-1.7v-0.1
		c0-0.4-0.1-1.3-1.2-1.3c-0.4,0-0.8,0.1-1.1,0.3l-0.1-0.3c0.4-0.3,0.9-0.4,1.3-0.4c1.3,0,1.6,1,1.6,1.8v1.8c0,0.4,0,0.7,0.1,1.1
		H206.5z M206.4,75.9c-1,0-2.3,0.1-2.3,1.2c0,0.7,0.4,0.9,0.9,0.9c0.8,0,1.2-0.5,1.3-0.9c0-0.1,0-0.2,0-0.3V75.9z"/>
	<path class="st10" d="M208.3,74.8c0-0.4,0-0.7,0-1.1h0.4l0,0.8h0c0.2-0.5,0.8-0.9,1.6-0.9c0.4,0,1.6,0.2,1.6,1.9v2.7h-0.4v-2.7
		c0-0.8-0.3-1.6-1.3-1.6c-0.6,0-1.2,0.5-1.4,1c0,0.1-0.1,0.3-0.1,0.4v2.8h-0.4V74.8z"/>
	<path class="st10" d="M217,71.6v5.7c0,0.3,0,0.7,0,1.1h-0.4l0-0.9h0c-0.2,0.5-0.8,1-1.6,1c-1.1,0-2-0.9-2-2.3c0-1.5,0.9-2.5,2-2.5
		c0.8,0,1.3,0.4,1.5,0.8h0v-2.9H217z M216.5,75.5c0-0.1,0-0.3,0-0.4c-0.2-0.6-0.7-1.1-1.4-1.1c-1,0-1.6,0.9-1.6,2c0,1,0.5,2,1.6,2
		c0.6,0,1.3-0.4,1.5-1.2c0-0.1,0-0.2,0-0.4V75.5z"/>
	<path class="st10" d="M221.2,72.4v1.3h1.3v0.4h-1.3v3c0,0.6,0.2,0.9,0.7,0.9c0.2,0,0.4,0,0.5-0.1l0.1,0.3c-0.1,0.1-0.4,0.1-0.6,0.1
		c-0.3,0-0.6-0.1-0.8-0.3c-0.2-0.2-0.3-0.6-0.3-1.1v-2.9H220v-0.4h0.8v-1.2L221.2,72.4z"/>
	<path class="st10" d="M223.5,71.6h0.4v3h0c0.1-0.3,0.3-0.5,0.6-0.7c0.3-0.2,0.6-0.3,0.9-0.3c0.4,0,1.6,0.2,1.6,1.9v2.7h-0.4v-2.7
		c0-0.8-0.3-1.6-1.3-1.6c-0.6,0-1.2,0.5-1.4,1c0,0.1-0.1,0.3-0.1,0.4v2.8h-0.4V71.6z"/>
	<path class="st10" d="M228.6,76c0,1.5,0.8,2,1.7,2c0.7,0,1-0.1,1.3-0.3l0.1,0.4c-0.2,0.1-0.6,0.3-1.4,0.3c-1.3,0-2.1-1-2.1-2.3
		c0-1.5,0.9-2.5,2-2.5c1.5,0,1.8,1.4,1.8,2.1c0,0.1,0,0.2,0,0.3H228.6z M231.5,75.6c0-0.6-0.3-1.6-1.4-1.6c-1,0-1.4,0.9-1.5,1.6
		H231.5z"/>
</g>
<g class="st9">
	<path class="st10" d="M147.9,86.5c0-0.6,0-1,0-1.5h0.4l0,0.9h0c0.3-0.6,0.9-1,1.7-1c1.2,0,2,1,2,2.3c0,1.6-1,2.5-2.1,2.5
		c-0.6,0-1.2-0.3-1.5-0.8h0v2.6h-0.4V86.5z M148.4,87.9c0,0.1,0,0.2,0,0.4c0.2,0.7,0.8,1.2,1.5,1.2c1,0,1.6-0.8,1.6-2.1
		c0-1-0.6-1.9-1.6-1.9c-0.7,0-1.3,0.5-1.5,1.2c0,0.1-0.1,0.3-0.1,0.4V87.9z"/>
	<path class="st10" d="M153.2,87.3c0,1.5,0.8,2,1.7,2c0.7,0,1-0.1,1.3-0.3l0.1,0.4c-0.2,0.1-0.6,0.3-1.4,0.3c-1.3,0-2.1-1-2.1-2.3
		c0-1.5,0.9-2.5,2-2.5c1.5,0,1.8,1.4,1.8,2.1c0,0.1,0,0.2,0,0.3H153.2z M156.1,87c0-0.6-0.3-1.6-1.4-1.6c-1,0-1.4,0.9-1.5,1.6H156.1
		z"/>
	<path class="st10" d="M161.6,87.3c0,1.7-1.2,2.4-2.2,2.4c-1.2,0-2.1-0.9-2.1-2.3c0-1.6,1-2.4,2.1-2.4
		C160.7,85,161.6,85.9,161.6,87.3z M157.8,87.4c0,1.1,0.7,2,1.7,2c0.9,0,1.7-0.9,1.7-2c0-0.8-0.5-2-1.7-2
		C158.3,85.4,157.8,86.4,157.8,87.4z"/>
	<path class="st10" d="M162.7,86.5c0-0.6,0-1,0-1.5h0.4l0,0.9h0c0.3-0.6,0.9-1,1.7-1c1.2,0,2,1,2,2.3c0,1.6-1,2.5-2.1,2.5
		c-0.6,0-1.2-0.3-1.5-0.8h0v2.6h-0.4V86.5z M163.2,87.9c0,0.1,0,0.2,0,0.4c0.2,0.7,0.8,1.2,1.5,1.2c1,0,1.6-0.8,1.6-2.1
		c0-1-0.6-1.9-1.6-1.9c-0.7,0-1.3,0.5-1.5,1.2c0,0.1-0.1,0.3-0.1,0.4V87.9z"/>
	<path class="st10" d="M168,82.9h0.4v6.7H168V82.9z"/>
	<path class="st10" d="M170,87.3c0,1.5,0.8,2,1.7,2c0.7,0,1-0.1,1.3-0.3l0.1,0.4c-0.2,0.1-0.6,0.3-1.4,0.3c-1.3,0-2.1-1-2.1-2.3
		c0-1.5,0.9-2.5,2-2.5c1.5,0,1.8,1.4,1.8,2.1c0,0.1,0,0.2,0,0.3H170z M172.9,87c0-0.6-0.3-1.6-1.4-1.6c-1,0-1.4,0.9-1.5,1.6H172.9z"
		/>
	<path class="st10" d="M176.5,85.1l0.8,2.6c0.2,0.5,0.3,1,0.4,1.4h0c0.1-0.4,0.3-0.9,0.5-1.4l0.9-2.6h0.4l0.9,2.6
		c0.2,0.6,0.3,1,0.4,1.4h0c0.1-0.4,0.2-0.9,0.4-1.4l0.8-2.6h0.5l-1.5,4.5h-0.4l-0.9-2.5c-0.2-0.5-0.3-1-0.5-1.5h0
		c-0.1,0.5-0.3,1-0.5,1.6l-0.9,2.5h-0.4l-1.4-4.5H176.5z"/>
	<path class="st10" d="M183.5,82.9h0.4v3h0c0.1-0.3,0.3-0.5,0.6-0.7c0.3-0.2,0.6-0.3,0.9-0.3c0.4,0,1.6,0.2,1.6,1.9v2.7h-0.4V87
		c0-0.8-0.3-1.6-1.3-1.6c-0.6,0-1.2,0.5-1.4,1c0,0.1-0.1,0.3-0.1,0.4v2.8h-0.4V82.9z"/>
	<path class="st10" d="M192.4,87.3c0,1.7-1.2,2.4-2.2,2.4c-1.2,0-2.1-0.9-2.1-2.3c0-1.6,1-2.4,2.1-2.4
		C191.5,85,192.4,85.9,192.4,87.3z M188.6,87.4c0,1.1,0.7,2,1.7,2c0.9,0,1.7-0.9,1.7-2c0-0.8-0.5-2-1.7-2
		C189.1,85.4,188.6,86.4,188.6,87.4z"/>
	<path class="st10" d="M195.6,82.9h0.4v6.7h-0.4V82.9z"/>
	<path class="st10" d="M201.5,87.3c0,1.7-1.2,2.4-2.2,2.4c-1.2,0-2.1-0.9-2.1-2.3c0-1.6,1-2.4,2.1-2.4
		C200.7,85,201.5,85.9,201.5,87.3z M197.7,87.4c0,1.1,0.7,2,1.7,2c0.9,0,1.7-0.9,1.7-2c0-0.8-0.5-2-1.7-2
		C198.2,85.4,197.7,86.4,197.7,87.4z"/>
	<path class="st10" d="M202.5,85.1l1.1,2.8c0.2,0.4,0.3,0.8,0.4,1.2h0c0.1-0.4,0.3-0.8,0.5-1.2l1.1-2.8h0.5l-1.8,4.5h-0.4l-1.8-4.5
		H202.5z"/>
	<path class="st10" d="M206.9,87.3c0,1.5,0.8,2,1.7,2c0.7,0,1-0.1,1.3-0.3l0.1,0.4c-0.2,0.1-0.6,0.3-1.4,0.3c-1.3,0-2.1-1-2.1-2.3
		c0-1.5,0.9-2.5,2-2.5c1.5,0,1.8,1.4,1.8,2.1c0,0.1,0,0.2,0,0.3H206.9z M209.8,87c0-0.6-0.3-1.6-1.4-1.6c-1,0-1.4,0.9-1.5,1.6H209.8
		z"/>
	<path class="st10" d="M214.1,83.8v1.3h1.3v0.4h-1.3v3c0,0.6,0.2,0.9,0.7,0.9c0.2,0,0.4,0,0.5-0.1l0.1,0.3c-0.1,0.1-0.4,0.1-0.6,0.1
		c-0.3,0-0.6-0.1-0.8-0.3c-0.2-0.2-0.3-0.6-0.3-1.1v-2.9h-0.8v-0.4h0.8v-1.2L214.1,83.8z"/>
	<path class="st10" d="M216.4,82.9h0.4v3h0c0.1-0.3,0.3-0.5,0.6-0.7c0.3-0.2,0.6-0.3,0.9-0.3c0.4,0,1.6,0.2,1.6,1.9v2.7h-0.4V87
		c0-0.8-0.3-1.6-1.3-1.6c-0.6,0-1.2,0.5-1.4,1c0,0.1-0.1,0.3-0.1,0.4v2.8h-0.4V82.9z"/>
	<path class="st10" d="M221.5,87.3c0,1.5,0.8,2,1.7,2c0.7,0,1-0.1,1.3-0.3l0.1,0.4c-0.2,0.1-0.6,0.3-1.4,0.3c-1.3,0-2.1-1-2.1-2.3
		c0-1.5,0.9-2.5,2-2.5c1.5,0,1.8,1.4,1.8,2.1c0,0.1,0,0.2,0,0.3H221.5z M224.4,87c0-0.6-0.3-1.6-1.4-1.6c-1,0-1.4,0.9-1.5,1.6H224.4
		z"/>
	<path class="st10" d="M226,86.2c0-0.4,0-0.7,0-1.1h0.4l0,0.8h0c0.3-0.5,0.7-0.9,1.5-0.9c0.6,0,1.1,0.4,1.3,1h0
		c0.1-0.3,0.3-0.5,0.5-0.6c0.3-0.2,0.6-0.4,1.1-0.4c0.4,0,1.5,0.3,1.5,2v2.7h-0.4V87c0-1-0.4-1.6-1.2-1.6c-0.6,0-1,0.4-1.2,0.9
		c0,0.1-0.1,0.3-0.1,0.4v2.9H229v-2.8c0-0.8-0.4-1.4-1.1-1.4c-0.6,0-1.1,0.5-1.3,1c0,0.1-0.1,0.3-0.1,0.4v2.8H226V86.2z"/>
	<path class="st10" d="M233.5,89.3c0-0.2,0.2-0.4,0.4-0.4c0.2,0,0.4,0.2,0.4,0.4c0,0.2-0.1,0.4-0.4,0.4
		C233.7,89.7,233.5,89.5,233.5,89.3z"/>
</g>
</svg>
