<svg id="Layer_1" data-name="Layer 1" xmlns="http://www.w3.org/2000/svg" viewBox="0 0 31.56 31.72"><defs><style>.cls-1{fill:#fff;}</style></defs><path class="cls-1" d="M24.24,5.61h0a1.87,1.87,0,0,1,1.86,1.9,1.89,1.89,0,1,1-1.89-1.9Z"/><path class="cls-1" d="M31.33,8c.24,2.47.39,14.16-.34,16.9a8,8,0,0,1-6.94,6.29,77.42,77.42,0,0,1-8.68.35,54.09,54.09,0,0,1-8.73-.46A7.89,7.89,0,0,1,.38,24.26C0,21.61-.09,9.29.68,6.61A8,8,0,0,1,7.53.5,61.39,61.39,0,0,1,15.41.14c2.93,0,5.89.08,7.67.18a8.69,8.69,0,0,1,5.74,2.35A8.28,8.28,0,0,1,31.33,8Zm-3,15.7A112.4,112.4,0,0,0,28.5,8.3a5.29,5.29,0,0,0-4.71-5A70.73,70.73,0,0,0,15.93,3c-3.13,0-6.24.09-7.62.24A5.38,5.38,0,0,0,3.29,8a108.35,108.35,0,0,0-.11,15.87,5.12,5.12,0,0,0,3.88,4.45,49.07,49.07,0,0,0,8.46.46c3.3,0,6.54-.1,7.75-.24a5.37,5.37,0,0,0,5-4.76"/><path class="cls-1" d="M15.87,7.81a8,8,0,0,1,8,8.07,8.13,8.13,0,0,1-8.13,8,8,8,0,0,1-8-8.07A8.12,8.12,0,0,1,15.87,7.81Zm-.12,13.27A5.27,5.27,0,0,0,21,15.91a5.16,5.16,0,0,0-5.13-5.26h0a5.27,5.27,0,0,0-5.26,5.16,5.17,5.17,0,0,0,5.12,5.27h.05"/></svg>