<svg id="Layer_1" data-name="Layer 1" xmlns="http://www.w3.org/2000/svg" viewBox="0 0 26.58 31.72"><defs><style>.cls-1{fill:#fff;}</style></defs><path class="cls-1" d="M20.32,7.36h0a1.55,1.55,0,0,1,1.54,1.57,1.57,1.57,0,1,1-1.56-1.57Z"/><path class="cls-1" d="M26.2,9.37c.19,2.05.32,11.75-.29,14a6.67,6.67,0,0,1-5.76,5.22A64.62,64.62,0,0,1,13,28.9a44.15,44.15,0,0,1-7.25-.39A6.53,6.53,0,0,1,.52,22.83C.17,20.63.13,10.4.77,8.18A6.62,6.62,0,0,1,6.45,3.12,50.19,50.19,0,0,1,13,2.82c2.43,0,4.89.07,6.36.15a7.15,7.15,0,0,1,4.76,1.95A6.87,6.87,0,0,1,26.2,9.37Zm-2.51,13a94.74,94.74,0,0,0,.16-12.81,4.4,4.4,0,0,0-3.91-4.16,59.75,59.75,0,0,0-6.52-.25c-2.6,0-5.18.07-6.32.2A4.46,4.46,0,0,0,2.94,9.31a88,88,0,0,0-.09,13.16,4.24,4.24,0,0,0,3.21,3.69,41.05,41.05,0,0,0,7,.38c2.73,0,5.42-.08,6.43-.19a4.47,4.47,0,0,0,4.18-4"/><path class="cls-1" d="M13.37,9.18A6.63,6.63,0,0,1,20,15.87a6.75,6.75,0,0,1-6.74,6.68,6.63,6.63,0,0,1-6.64-6.69A6.74,6.74,0,0,1,13.37,9.18Zm-.1,11a4.37,4.37,0,0,0,4.36-4.29,4.28,4.28,0,0,0-4.25-4.36h0A4.36,4.36,0,0,0,9,15.82a4.29,4.29,0,0,0,4.25,4.37h0"/></svg>