<svg xmlns="http://www.w3.org/2000/svg" viewBox="0 0 40.14 40.15"><defs><style>.cls-1{isolation:isolate;}.cls-2{opacity:0.32;mix-blend-mode:multiply;}.cls-3{fill:#00fffb;}</style></defs><g class="cls-1"><g id="Layer_1" data-name="Layer 1"><path class="cls-2" d="M15.28,11.48a6.55,6.55,0,0,0-.74.27c-.14.06-.26.14-.4.21a4.67,4.67,0,0,0-.6.38c-.13.09-.24.19-.36.29a5.78,5.78,0,0,0-.5.49l-.19.19c-.05.06-.08.13-.13.19s-.17.25-.25.37-.12.16-.17.25a3.13,3.13,0,0,0-.15.32,2.21,2.21,0,0,0-.12.27,1.09,1.09,0,0,0-.08.15,5.92,5.92,0,0,0-.22.75v0s0,0,0,.07c0,.24-.08.47-.1.71s0,.23,0,.34,0,.42,0,.62.05.25.07.38a1.85,1.85,0,0,0,0,.23,6.2,6.2,0,0,0,.24.87l0,.07.07.15c.12.25.25.5.39.73l.13.2.09.14a5.25,5.25,0,0,0,.53.62h0l4.62,4.63c-.24,0-.48,0-.72,0a8.53,8.53,0,0,1-6.06-2.5h0l6.54,6.56A8.52,8.52,0,0,0,23.28,32a7.57,7.57,0,0,0,.95-.06l.3,0,.61-.11.35-.09.54-.16.35-.13a4.4,4.4,0,0,0,.5-.21l.33-.16a5.42,5.42,0,0,0,.48-.26l.3-.18c.17-.11.33-.23.48-.34l.25-.19c.2-.16.39-.33.57-.5l.1-.09q.32-.32.6-.66l0,0,0-.07a8.83,8.83,0,0,0,.78-1.14l0,0v0a9.41,9.41,0,0,0,.47-1,1.34,1.34,0,0,0,.06-.12.66.66,0,0,0,0-.15,8.57,8.57,0,0,0,.27-.86c0-.05,0-.09,0-.14v0a10.07,10.07,0,0,0,.17-1.1s0-.07,0-.1a6.08,6.08,0,0,0,0-.61,8.44,8.44,0,0,0,0-.87h0a8.84,8.84,0,0,0-.17-1.05c0-.1-.05-.2-.07-.3-.07-.26-.16-.52-.25-.78,0-.05,0-.11-.05-.17l0-.07a5.94,5.94,0,0,0-.43-.92L30.83,19c-.14-.24-.29-.47-.45-.7l-.09-.12a.87.87,0,0,0-.09-.11,8.19,8.19,0,0,0-.72-.84h0l-6.54-6.56a9.76,9.76,0,0,1,.73.84c0,.08.11.15.17.23.16.23.31.46.45.7l.1.17a8.63,8.63,0,0,1,.43.92c0,.08.05.16.08.24a7.08,7.08,0,0,1,.25.78c0,.1.05.2.07.29a7.55,7.55,0,0,1,.17,1.06,6.41,6.41,0,0,1,0,.88c0,.23,0,.45,0,.67l-4.62-4.64a5.54,5.54,0,0,0-3.87-1.62h0a5.32,5.32,0,0,0-1.2.14Zm3.62,8.59c.1-.14.21-.26.32-.39a5.78,5.78,0,0,1,.5-.49,3.51,3.51,0,0,1,.36-.29,6.1,6.1,0,0,1,.6-.38l.39-.21a4.74,4.74,0,0,1,.75-.26c.12,0,.24-.09.37-.12a6,6,0,0,1,1.2-.14h.05a5.69,5.69,0,0,1,1.86.36c0,.16,0,.32-.07.47a1.21,1.21,0,0,0-.05.18,8,8,0,0,1-.26.87c0,.09-.07.18-.1.27a8.51,8.51,0,0,1-.48,1,.16.16,0,0,1,0,.07,8.83,8.83,0,0,1-.78,1.14.61.61,0,0,1-.07.1q-.28.34-.6.66l-.09.08a7,7,0,0,1-.58.51l-.24.18c-.16.12-.32.24-.48.34a2.38,2.38,0,0,1-.3.18l-.48.27-.34.16a4.4,4.4,0,0,1-.5.21l-.35.13-.54.16-.34.09-.49.08a6.25,6.25,0,0,1-.23-.77,2.23,2.23,0,0,0,0-.23,5.51,5.51,0,0,1-.08-1,5.21,5.21,0,0,1,.12-1.06.17.17,0,0,0,0-.07,5.5,5.5,0,0,1,.3-.92l.13-.27a6.28,6.28,0,0,1,.31-.57Z"/><path class="cls-2" d="M9.23,37.33a9.24,9.24,0,0,0,4.32,2.35,57.16,57.16,0,0,0,9.34.49,84.34,84.34,0,0,0,9.28-.37,12.26,12.26,0,0,0,1.56-.37l.45-.17a8.15,8.15,0,0,0,1-.41l.45-.25a7.74,7.74,0,0,0,.82-.54l.37-.29a8,8,0,0,0,.87-.88l.12-.12s0,0,0,0a9.46,9.46,0,0,0,.79-1.16l0-.06c.07-.12.12-.26.18-.39s.27-.54.39-.84a.54.54,0,0,1,0-.11,9.6,9.6,0,0,0,.36-1.11l.06-.23c0-.12,0-.25.07-.38a.15.15,0,0,1,0-.07c0-.22.07-.48.1-.75,0-.07,0-.14,0-.21,0-.26,0-.53.08-.82a.38.38,0,0,1,0-.1v0c0-.33.05-.68.07-1,0-.11,0-.23,0-.34,0-.27,0-.54,0-.82s0-.29,0-.44l0-.83c0-.14,0-.29,0-.43,0-.34,0-.68,0-1v-.27c0-.43,0-.87,0-1.3V21.36c0-.14,0-.28,0-.41,0-.33,0-.65,0-1v-.27c0-.39,0-.78,0-1.15a1.48,1.48,0,0,1,0-.21c0-.29,0-.57,0-.83s0-.21,0-.31,0-.43,0-.63,0-.19,0-.28,0-.38,0-.56,0-.12,0-.17c0-.21,0-.39,0-.54v0a11.4,11.4,0,0,0-.25-1.46c0-.15-.09-.29-.14-.44s-.12-.49-.21-.72-.08-.15-.11-.23l-.18-.38a7.4,7.4,0,0,0-.5-.91l-.21-.33-.11-.16a9.07,9.07,0,0,0-.82-1L30.89,2.85A8.13,8.13,0,0,1,31.82,4c.08.11.14.22.21.33a8.13,8.13,0,0,1,.51.91c.06.12.12.25.17.37.13.31.23.63.33,1,0,.15.1.3.13.45a9.89,9.89,0,0,1,.25,1.46c0,.15,0,.35,0,.57,0,.06,0,.14,0,.2s0,.34,0,.53v0L28.75,5a6,6,0,0,0-3.39-1.63A77.1,77.1,0,0,0,17,3c-3.34,0-6.67.1-8.14.25a8.21,8.21,0,0,0-1.16.23l-.33.12a5.52,5.52,0,0,0-.71.28,3,3,0,0,0-.35.19,5.5,5.5,0,0,0-.57.36l-.31.25c-.17.15-.33.31-.49.48l-.18.18-.06.1c-.1.12-.18.26-.27.39l-.21.3,0,.12A3.54,3.54,0,0,0,4,6.63c0,.11-.11.22-.16.34s0,.13,0,.19-.09.27-.13.41-.07.2-.09.31a4,4,0,0,0-.09.48c0,.18-.06.41-.08.65,0,.08,0,.19,0,.28s0,.3,0,.47v.07c0,.08,0,.17,0,.26s0,.43,0,.65,0,.23,0,.35l0,.68c0,.13,0,.26,0,.39l0,.77c0,.12,0,.23,0,.35,0,.38,0,.77,0,1.17a1.48,1.48,0,0,0,0,.21c0,.33,0,.66,0,1,0,.14,0,.29,0,.44v.79c0,.16,0,.32,0,.48v1.22c0,.34,0,.68,0,1v.16c0,.39,0,.77,0,1.14,0,.1,0,.19,0,.29,0,.27,0,.53,0,.78s0,.23,0,.34,0,.43,0,.64,0,.21,0,.32,0,.41,0,.6,0,.15,0,.22c0,.23,0,.46,0,.65h0q0,.34.06.57a7.39,7.39,0,0,0,.34,1.29c0,.05,0,.11,0,.16a.45.45,0,0,1,.06.12A5.53,5.53,0,0,0,4.38,28s0,0,0,.05a5.11,5.11,0,0,0,.48.55l4.79,4.82A17.86,17.86,0,0,1,7,33.12a12,12,0,0,1-1.28-.41,8.91,8.91,0,0,1-3.05-1.94h0ZM33.53,10.4c0,.08,0,.15,0,.24s0,.22,0,.34,0,.5,0,.77c0,.09,0,.18,0,.27,0,.24,0,.5,0,.75l-3-3c.5,0,.94.08,1.27.13A6.87,6.87,0,0,1,33.53,10.4Zm-6.79-.76-.09.06-.1,0a2.2,2.2,0,0,1-.73.14,1.87,1.87,0,0,1-.93-.27Zm-3.25,0h1.24L31,15.85a2,2,0,0,0,2.14.45l.09,0a2,2,0,0,0,.45-.26v.13c0,.3,0,.61,0,.92v.41c0,.43,0,.86,0,1.29,0,.09,0,.17,0,.26,0,.35,0,.69,0,1,0,.14,0,.28,0,.42s0,.57,0,.84,0,.29,0,.43,0,.56,0,.83c0,.11,0,.23,0,.34,0,.37,0,.73-.07,1.06,0,0,0,.06,0,.1,0,.29,0,.56-.07.82l0,.21c0,.27-.06.53-.1.75,0,0,0,0,0,.06a5.8,5.8,0,0,1-.13.61,10.43,10.43,0,0,1-.41,1.23c-.11.29-.25.56-.38.83s-.14.31-.23.45a7.94,7.94,0,0,1-.78,1.17l-.14.14a8,8,0,0,1-.87.88l-.37.28a7.22,7.22,0,0,1-.81.55l-.46.25a10.25,10.25,0,0,1-1,.41c-.15,0-.29.12-.45.16a10.46,10.46,0,0,1-1.56.38,84.13,84.13,0,0,1-9.27.37c-2.16,0-4.31,0-6-.14h0c0-.09-.07-.19-.1-.28a6.42,6.42,0,0,1-.34-1.29c0-.15,0-.34-.07-.56s0-.43,0-.67a1.62,1.62,0,0,0,0-.22l0-.6c0-.1,0-.21,0-.33s0-.4,0-.62,0-.24,0-.36,0-.48,0-.73,0-.23,0-.34c0-.36,0-.73,0-1.11V26.1c0-.31,0-.63,0-1V23.47c0-.28,0-.56,0-.85v-.39c0-.34,0-.68,0-1V21l0-1.18c0-.1,0-.2,0-.31,0-.27,0-.55,0-.81s0-.24,0-.36,0-.48,0-.7,0-.23,0-.34,0-.46,0-.67,0-.17,0-.24,0-.39,0-.56,0-.19,0-.27c0-.24.06-.46.08-.65s.12-.53.19-.79l.12-.41c.07-.18.14-.36.22-.53s.1-.23.16-.34.17-.28.26-.42.17-.27.26-.39.17-.18.25-.28a4.45,4.45,0,0,1,.49-.48l.31-.25a5.5,5.5,0,0,1,.57-.36,3.9,3.9,0,0,1,.35-.19,5.38,5.38,0,0,1,.7-.28l.34-.11a6.11,6.11,0,0,1,1.16-.23C16.81,9.7,20.14,9.61,23.49,9.61Z"/><path class="cls-3" d="M25.84,5.85h0a2,2,0,0,1,2,2,2,2,0,0,1-2,2,2,2,0,0,1,0-4Z"/><path class="cls-3" d="M33.42,8.44c.25,2.64.41,15.14-.37,18.07a8.6,8.6,0,0,1-7.42,6.73,84.13,84.13,0,0,1-9.27.37A58.26,58.26,0,0,1,7,33.12a8.44,8.44,0,0,1-6.7-7.33C-.13,23-.18,9.77.64,6.91A8.59,8.59,0,0,1,8,.38,65.43,65.43,0,0,1,16.39,0c3.14,0,6.31.09,8.21.19A9.25,9.25,0,0,1,30.74,2.7,8.86,8.86,0,0,1,33.42,8.44ZM30.19,25.23c.48-2.95.48-13.74.21-16.51a5.66,5.66,0,0,0-5-5.36A77.1,77.1,0,0,0,17,3c-3.34,0-6.67.1-8.14.25A5.77,5.77,0,0,0,3.44,8.36a115,115,0,0,0-.12,17,5.47,5.47,0,0,0,4.15,4.75,52.56,52.56,0,0,0,9,.5c3.53,0,7-.12,8.29-.26a5.75,5.75,0,0,0,5.39-5.09"/><path class="cls-3" d="M16.89,8.19a8.54,8.54,0,0,1,8.54,8.63,8.69,8.69,0,0,1-8.69,8.61,8.54,8.54,0,0,1-8.55-8.62A8.7,8.7,0,0,1,16.89,8.19Zm-.13,14.19a5.62,5.62,0,0,0,5.62-5.52,5.52,5.52,0,0,0-5.48-5.63h0a5.63,5.63,0,0,0-5.62,5.52,5.52,5.52,0,0,0,5.48,5.63h.05"/></g></g></svg>