<svg xmlns="http://www.w3.org/2000/svg" viewBox="0 0 41.62 40.15"><defs><style>.cls-1{isolation:isolate;}.cls-2{opacity:0.32;mix-blend-mode:multiply;}.cls-3{fill:#00fffb;}</style></defs><g class="cls-1"><g id="Layer_1" data-name="Layer 1"><path class="cls-2" d="M15.64,11.48a6.86,6.86,0,0,0-.76.27c-.14.06-.27.14-.4.21a4.9,4.9,0,0,0-.62.38c-.13.09-.25.19-.37.29a5.9,5.9,0,0,0-.51.49l-.19.19-.14.19-.26.37c-.05.09-.12.16-.17.25a3.13,3.13,0,0,0-.15.32c0,.09-.09.17-.13.27l-.07.15a4.66,4.66,0,0,0-.23.75v0a.17.17,0,0,1,0,.07,5.81,5.81,0,0,0-.11.71c0,.12,0,.23,0,.34a4.24,4.24,0,0,0,0,.62c0,.13,0,.25.06.38a1.85,1.85,0,0,1,0,.23,6.25,6.25,0,0,0,.26.87l0,.07.07.15a5.18,5.18,0,0,0,.4.73l.13.2.09.14a5.41,5.41,0,0,0,.55.62h0l4.72,4.63c-.24,0-.49,0-.73,0a8.9,8.9,0,0,1-4.19-1,8.59,8.59,0,0,1-2-1.47h0l6.69,6.56A8.82,8.82,0,0,0,23.83,32a7.77,7.77,0,0,0,1-.06l.31,0,.63-.11.35-.09.56-.16.35-.13a4.71,4.71,0,0,0,.52-.21l.34-.16.49-.26.3-.18.5-.34.25-.19c.2-.16.4-.33.58-.5l.1-.09c.22-.21.42-.43.62-.66l0,0,0-.07a9,9,0,0,0,.8-1.14l0,0v0a9.48,9.48,0,0,0,.48-1,1.34,1.34,0,0,0,.06-.12s0-.1.05-.15a8.52,8.52,0,0,0,.26-.86.78.78,0,0,0,0-.14v0a8.12,8.12,0,0,0,.17-1.1.36.36,0,0,0,0-.1c0-.2,0-.4,0-.61a8.43,8.43,0,0,0,0-.87h0a8.85,8.85,0,0,0-.18-1.05c0-.1,0-.2-.08-.3a7.83,7.83,0,0,0-.25-.78c0-.05,0-.11,0-.17l0-.07a7.08,7.08,0,0,0-.44-.92l-.1-.17a7.66,7.66,0,0,0-.46-.7L31,18.22l-.09-.11a8.49,8.49,0,0,0-.75-.84h0l-6.69-6.56a10,10,0,0,1,.75.84l.17.23a7.66,7.66,0,0,1,.46.7l.1.17a7.08,7.08,0,0,1,.44.92,2.34,2.34,0,0,1,.09.24,7.08,7.08,0,0,1,.25.78c0,.1.05.2.08.29A7.55,7.55,0,0,1,26,15.94a6.41,6.41,0,0,1,0,.88c0,.23,0,.45,0,.67l-4.73-4.64a5.74,5.74,0,0,0-4-1.62h-.05a5.59,5.59,0,0,0-1.23.14Zm3.7,8.59c.1-.14.22-.26.33-.39a5.9,5.9,0,0,1,.51-.49c.12-.1.24-.2.37-.29s.41-.26.62-.38.26-.15.4-.21a5.24,5.24,0,0,1,.76-.26c.13,0,.25-.09.38-.12a6.26,6.26,0,0,1,1.23-.14h0a6,6,0,0,1,1.91.36c0,.16,0,.32-.08.47a1.21,1.21,0,0,1-.05.18,6.28,6.28,0,0,1-.27.87c0,.09-.06.18-.1.27a8.51,8.51,0,0,1-.48,1l0,.07a10.13,10.13,0,0,1-.8,1.14.61.61,0,0,0-.07.1c-.2.23-.4.45-.62.66L23.3,23c-.19.18-.39.35-.59.51l-.25.18A5.5,5.5,0,0,1,22,24a2.38,2.38,0,0,1-.3.18,4.82,4.82,0,0,1-.5.27l-.33.16c-.17.08-.35.15-.52.21L20,25l-.56.16-.35.09-.5.08a4.92,4.92,0,0,1-.24-.77,2.23,2.23,0,0,0,0-.23,5.51,5.51,0,0,1-.08-1,5.21,5.21,0,0,1,.12-1.06s0-.05,0-.07a5.5,5.5,0,0,1,.3-.92l.13-.27a6.48,6.48,0,0,1,.33-.57Z"/><path class="cls-2" d="M9.45,37.33a9.49,9.49,0,0,0,4.42,2.35,59.88,59.88,0,0,0,9.56.49,88.35,88.35,0,0,0,9.5-.37,12.9,12.9,0,0,0,1.6-.37l.45-.17a8.59,8.59,0,0,0,1-.41l.46-.25a9.23,9.23,0,0,0,.84-.54l.38-.29a8.21,8.21,0,0,0,.89-.88l.12-.12,0,0a9.53,9.53,0,0,0,.8-1.16l0-.06c.07-.12.12-.26.19-.39a7.18,7.18,0,0,0,.39-.84l.06-.11c.13-.35.26-.73.37-1.11,0-.07,0-.15,0-.23s.05-.25.07-.38a.64.64,0,0,1,0-.07c0-.22.07-.48.1-.75a1.49,1.49,0,0,0,0-.21c0-.26.06-.53.08-.82,0,0,0-.06,0-.1v0c0-.33,0-.68.07-1,0-.11,0-.23,0-.34,0-.27,0-.54,0-.82s0-.29,0-.44,0-.55,0-.83,0-.29,0-.43c0-.34,0-.68,0-1v-.27c0-.43,0-.87,0-1.3V21.36c0-.14,0-.28,0-.41,0-.33,0-.65,0-1v-.27c0-.39,0-.78,0-1.15v-.21c0-.29,0-.57,0-.83s0-.21,0-.31,0-.43,0-.63a2.62,2.62,0,0,1,0-.28c0-.2,0-.38,0-.56a1,1,0,0,1,0-.17c0-.21,0-.39,0-.54v0a11.4,11.4,0,0,0-.25-1.46c0-.15-.1-.29-.14-.44s-.13-.49-.22-.72a2.53,2.53,0,0,0-.12-.23c-.05-.13-.11-.26-.17-.38-.16-.31-.33-.61-.52-.91-.07-.11-.14-.22-.22-.33a1.4,1.4,0,0,0-.1-.16,10.82,10.82,0,0,0-.85-1L31.62,2.85A8.29,8.29,0,0,1,32.57,4l.22.33a10.19,10.19,0,0,1,.52.91c.06.12.12.25.17.37a8.28,8.28,0,0,1,.34,1c0,.15.1.3.14.45a11.4,11.4,0,0,1,.25,1.46c0,.15,0,.35,0,.57,0,.06,0,.14,0,.2s0,.34,0,.53v0L29.43,5A6.2,6.2,0,0,0,26,3.36,80.64,80.64,0,0,0,17.35,3c-3.42,0-6.83.1-8.33.25a8.22,8.22,0,0,0-1.18.23l-.35.12a5.66,5.66,0,0,0-.72.28,3.13,3.13,0,0,0-.36.19,5.65,5.65,0,0,0-.58.36,3.92,3.92,0,0,0-.32.25A5.67,5.67,0,0,0,5,5.2c-.06.07-.13.12-.19.18l-.06.1c-.1.12-.19.26-.28.39s-.14.19-.21.3l0,.12a3.54,3.54,0,0,0-.16.34A3.59,3.59,0,0,0,3.89,7a1.39,1.39,0,0,1-.06.19l-.12.41c0,.11-.07.2-.1.31l-.09.48c0,.18-.06.41-.08.65,0,.08,0,.19,0,.28s0,.3,0,.47v.07a2.46,2.46,0,0,1,0,.26c0,.21,0,.43,0,.65s0,.23,0,.35l0,.68c0,.13,0,.26,0,.39s0,.51,0,.77,0,.23,0,.35q0,.57,0,1.17a1.48,1.48,0,0,1,0,.21c0,.33,0,.66,0,1,0,.14,0,.29,0,.44v3.51a.86.86,0,0,1,0,.16c0,.39,0,.77,0,1.14a2.81,2.81,0,0,1,0,.29c0,.27,0,.53,0,.78s0,.23,0,.34,0,.43,0,.64,0,.21,0,.32,0,.41,0,.6,0,.15,0,.22c0,.23,0,.46.05.65h0c0,.23,0,.42.07.57a6.61,6.61,0,0,0,.35,1.29.94.94,0,0,0,0,.16.45.45,0,0,1,.06.12A5.57,5.57,0,0,0,4.48,28l0,.05a4.28,4.28,0,0,0,.49.55l4.9,4.82a18.93,18.93,0,0,1-2.72-.32,12.35,12.35,0,0,1-1.3-.41,8.94,8.94,0,0,1-3.12-1.94h0ZM34.32,10.4c0,.08,0,.15,0,.24s0,.22,0,.34,0,.5,0,.77V12c0,.24,0,.5,0,.75l-3-3c.52,0,1,.08,1.3.13A7.06,7.06,0,0,1,34.32,10.4Zm-6.95-.76a.33.33,0,0,1-.1.06l-.09,0a2.32,2.32,0,0,1-.75.14,2,2,0,0,1-1-.27Zm-3.32,0h1.27l6.36,6.24a2.06,2.06,0,0,0,2.19.45l.1,0a2,2,0,0,0,.45-.26v1.46c0,.43,0,.86,0,1.29V19l0,1c0,.14,0,.28,0,.42s0,.57,0,.84,0,.29,0,.43,0,.56,0,.83c0,.11,0,.23,0,.34,0,.37,0,.73-.07,1.06,0,0,0,.06,0,.1,0,.29,0,.56-.08.82,0,.07,0,.14,0,.21,0,.27-.07.53-.1.75,0,0,0,0,0,.06a5.8,5.8,0,0,1-.13.61,10.43,10.43,0,0,1-.42,1.23c-.12.29-.25.56-.39.83s-.15.31-.23.45a8.92,8.92,0,0,1-.8,1.17l-.14.14a8.21,8.21,0,0,1-.89.88c-.12.1-.26.19-.38.28a7.57,7.57,0,0,1-.84.55l-.46.25c-.32.15-.65.29-1,.41-.15,0-.3.12-.46.16a10.87,10.87,0,0,1-1.59.38,88.35,88.35,0,0,1-9.5.37c-2.21,0-4.4,0-6.19-.14h0l-.1-.28a6.42,6.42,0,0,1-.35-1.29c0-.15,0-.34-.06-.56s0-.43-.06-.67a1.62,1.62,0,0,0,0-.22q0-.29,0-.6c0-.1,0-.21,0-.33s0-.4,0-.62,0-.24,0-.36,0-.48,0-.73,0-.23,0-.34c0-.36,0-.73,0-1.11V26.1c0-.31,0-.63,0-1V23.47c0-.28,0-.56,0-.85v-.39c0-.34,0-.68,0-1V21l0-1.18c0-.1,0-.2,0-.31,0-.27,0-.55,0-.81s0-.24,0-.36,0-.48,0-.7,0-.23,0-.34,0-.46,0-.67,0-.17,0-.24,0-.39,0-.56,0-.19,0-.27c0-.24,0-.46.08-.65s.12-.53.19-.79.08-.27.13-.41a4.93,4.93,0,0,1,.22-.53c.05-.11.1-.23.16-.34a3.74,3.74,0,0,1,.27-.42,3.39,3.39,0,0,1,.27-.39,3.15,3.15,0,0,1,.25-.28,5.67,5.67,0,0,1,.5-.48,3.92,3.92,0,0,1,.32-.25,5.65,5.65,0,0,1,.58-.36l.36-.19a5.66,5.66,0,0,1,.72-.28l.35-.11a6.17,6.17,0,0,1,1.18-.23C17.21,9.7,20.62,9.61,24.05,9.61Z"/><path class="cls-3" d="M26.45,5.85h0a2,2,0,0,1,2,2,2.06,2.06,0,0,1-2.09,2,2,2,0,1,1,0-4Z"/><path class="cls-3" d="M34.21,8.44c.26,2.64.42,15.14-.38,18.07a8.72,8.72,0,0,1-7.59,6.73,88.35,88.35,0,0,1-9.5.37,61.13,61.13,0,0,1-9.56-.49A8.52,8.52,0,0,1,.33,25.79C-.13,23-.18,9.77.66,6.91A8.71,8.71,0,0,1,8.16.38,68.45,68.45,0,0,1,16.78,0c3.21,0,6.45.09,8.4.19A9.57,9.57,0,0,1,31.46,2.7,8.75,8.75,0,0,1,34.21,8.44ZM30.9,25.23c.49-2.95.5-13.74.21-16.51A5.71,5.71,0,0,0,26,3.36,80.64,80.64,0,0,0,17.35,3c-3.42,0-6.83.1-8.33.25a5.85,5.85,0,0,0-5.5,5.07,112.36,112.36,0,0,0-.12,17,5.5,5.5,0,0,0,4.25,4.75,54.92,54.92,0,0,0,9.25.5c3.61,0,7.16-.12,8.49-.26a5.82,5.82,0,0,0,5.51-5.09"/><path class="cls-3" d="M17.28,8.19A8.65,8.65,0,0,1,26,16.82a8.8,8.8,0,0,1-8.89,8.61,8.63,8.63,0,0,1-8.75-8.62A8.79,8.79,0,0,1,17.28,8.19Zm-.12,14.19a5.7,5.7,0,0,0,5.75-5.52,5.59,5.59,0,0,0-5.61-5.63h-.05a5.69,5.69,0,0,0-5.75,5.52,5.57,5.57,0,0,0,5.6,5.63h.06"/></g></g></svg>