<svg id="Layer_1" data-name="Layer 1" xmlns="http://www.w3.org/2000/svg" xmlns:xlink="http://www.w3.org/1999/xlink" viewBox="0 0 509.41 489.08"><defs><style>.cls-1{fill:url(#linear-gradient);}.cls-2{fill:url(#linear-gradient-2);}.cls-3{fill:url(#linear-gradient-3);}.cls-4{fill:aqua;}</style><linearGradient id="linear-gradient" x1="251.6" y1="379.83" x2="258.43" y2="-91.94" gradientUnits="userSpaceOnUse"><stop offset="0.5" stop-color="#3c34eb"/><stop offset="0.54" stop-color="#374def"/><stop offset="0.61" stop-color="#3171f5"/><stop offset="0.68" stop-color="#2c8bf9"/><stop offset="0.74" stop-color="#299afb"/><stop offset="0.79" stop-color="#28a0fc"/></linearGradient><linearGradient id="linear-gradient-2" x1="22.31" y1="266.39" x2="486.07" y2="266.39" gradientUnits="userSpaceOnUse"><stop offset="0" stop-color="#e9e9ea"/><stop offset="0.52" stop-color="#fff"/><stop offset="1" stop-color="#e9e9ea"/></linearGradient><linearGradient id="linear-gradient-3" x1="0.43" y1="329.01" x2="508.79" y2="329.01" gradientUnits="userSpaceOnUse"><stop offset="0" stop-color="#3c34eb"/><stop offset="0.15" stop-color="#374def"/><stop offset="0.39" stop-color="#3171f5"/><stop offset="0.63" stop-color="#2c8bf9"/><stop offset="0.84" stop-color="#299afb"/><stop offset="1" stop-color="#28a0fc"/></linearGradient></defs><path class="cls-1" d="M8.15,171.67,240.41,6.89A27.64,27.64,0,0,1,272.34,7L501.08,171.67Z"/><rect class="cls-2" x="22.31" y="46.8" width="463.76" height="439.18"/><path class="cls-3" d="M504.41,169.52H485.84v21.1h0l-53.41,39.54-.7.52-43.34,32.08-31.29,23.16-65.18,48.25-12.55,9.29-7-4.06a35.15,35.15,0,0,0-35.49.12L230,343.65l-11-8.09-67.42-49.63-31.48-23.16L76.53,230.69l-8-5.86L22.1,190.63h0V169.52H4.81a4.29,4.29,0,0,0-4.38,4.19v310.6a4.28,4.28,0,0,0,4.38,4.19h499.6a4.28,4.28,0,0,0,4.38-4.19V173.71A4.29,4.29,0,0,0,504.41,169.52Z"/><path class="cls-4" d="M490.87,467,279.36,343.47l-7-4.06a35.15,35.15,0,0,0-35.49.12L230,343.65,22.09,467,219,335.56,236.3,324a35,35,0,0,1,40.36,0l15.25,10.17Z"/></svg>