<svg id="Layer_1" data-name="Layer 1" xmlns="http://www.w3.org/2000/svg" xmlns:xlink="http://www.w3.org/1999/xlink" viewBox="0 0 239.85 489.08"><defs><style>.cls-1{fill:url(#linear-gradient);}.cls-2{fill:url(#linear-gradient-2);}.cls-3{fill:url(#linear-gradient-3);}</style><linearGradient id="linear-gradient" x1="2.5" y1="413.81" x2="186.75" y2="413.81" gradientUnits="userSpaceOnUse"><stop offset="0" stop-color="#3c34eb"/><stop offset="0.15" stop-color="#374def"/><stop offset="0.39" stop-color="#3171f5"/><stop offset="0.63" stop-color="#2c8bf9"/><stop offset="0.84" stop-color="#299afb"/><stop offset="1" stop-color="#28a0fc"/></linearGradient><linearGradient id="linear-gradient-2" x1="67.91" y1="332.22" x2="186.75" y2="332.22" xlink:href="#linear-gradient"/><linearGradient id="linear-gradient-3" x1="114.83" y1="250.63" x2="186.75" y2="250.63" xlink:href="#linear-gradient"/></defs><path class="cls-1" d="M177.81,422.36H11.44a8.56,8.56,0,1,1,0-17.1H177.81a8.56,8.56,0,1,1,0,17.1Z"/><path class="cls-2" d="M177.81,340.77h-101a8.56,8.56,0,1,1,0-17.1h101a8.56,8.56,0,1,1,0,17.1Z"/><path class="cls-3" d="M177.81,259.18h-54a8.56,8.56,0,1,1,0-17.1h54a8.56,8.56,0,1,1,0,17.1Z"/></svg>