<svg id="Layer_1" data-name="Layer 1" xmlns="http://www.w3.org/2000/svg" viewBox="0 0 32.49 31.72"><defs><style>.cls-1{fill:#fff;}</style></defs><path class="cls-1" d="M5,.45A3.68,3.68,0,0,1,8.64,4.16,3.75,3.75,0,0,1,4.9,7.87,3.68,3.68,0,0,1,1.22,4.16,3.75,3.75,0,0,1,5,.45Z"/><polygon class="cls-1" points="8.09 10.67 7.93 31.27 1.53 31.27 1.68 10.67 8.09 10.67"/><path class="cls-1" d="M24.38,10.17C30.87,10.17,32,14.42,32,20L31.9,31.27H25.51l.07-10c0-2.39,0-5.47-3.28-5.47s-3.86,2.6-3.88,5.3l-.08,10.18h-6.4l.16-20.6h6.13l0,2.82h.09A6.81,6.81,0,0,1,24.38,10.17Z"/></svg>