<svg xmlns="http://www.w3.org/2000/svg" viewBox="0 0 37.21 37.29"><defs><style>.cls-1{isolation:isolate;}.cls-2{opacity:0.32;mix-blend-mode:multiply;}.cls-3{fill:#00fffb;}</style></defs><g class="cls-1"><g id="Layer_1" data-name="Layer 1"><path class="cls-2" d="M23.75,25.91a9.23,9.23,0,0,1,.14-1c0-.16.06-.31.1-.45s.06-.21.1-.32a5.11,5.11,0,0,1,.28-.68h0a3.48,3.48,0,0,1,.43-.58l.19-.19a2.94,2.94,0,0,1,.41-.31,1.74,1.74,0,0,1,.26-.15,3.09,3.09,0,0,1,.56-.21l.28-.08a4.74,4.74,0,0,1,1-.11,3.67,3.67,0,0,1,1.31.21,2.5,2.5,0,0,1,.91.58h0l-6.54-6.56a2.45,2.45,0,0,0-1-.61L17,10.19l0,2.81,2.54,2.55a1.75,1.75,0,0,0-.34.15,1.1,1.1,0,0,0-.26.15,2.1,2.1,0,0,0-.41.31,1.8,1.8,0,0,0-.2.19.94.94,0,0,0-.1.1,2.59,2.59,0,0,0-.32.47h0a3.18,3.18,0,0,0-.24.53c0,.05,0,.1-.05.15a3,3,0,0,0-.09.32,2.13,2.13,0,0,0-.08.27,1,1,0,0,0,0,.17,9.43,9.43,0,0,0-.14,1,.69.69,0,0,1,0,.13v.05c0,.34,0,.69,0,1l-.08,10.16H13.28l.11-14-2.82-2.83a3.12,3.12,0,0,0,.44-.05l.25-.08a4.75,4.75,0,0,0,.49-.17c.09,0,.17-.1.26-.15a2.42,2.42,0,0,0,.4-.25l.24-.19.33-.32a.68.68,0,0,1,.12-.12l.09-.15.17-.24.1-.15a2.56,2.56,0,0,0,.11-.24,1.3,1.3,0,0,0,.08-.17.36.36,0,0,0,0-.09,4,4,0,0,0,.15-.49,0,0,0,0,0,0,0,.41.41,0,0,0,0-.11,2.57,2.57,0,0,0,.06-.4,2.17,2.17,0,0,0,0-.26,2.26,2.26,0,0,0,0-.37.7.7,0,0,1,0-.14A3.8,3.8,0,0,0,13.71,9s0-.08,0-.11,0,0,0,0a3.44,3.44,0,0,0-.42-.75l0-.06a4.71,4.71,0,0,0-.35-.41L6.33,1.08a2.89,2.89,0,0,1,.38.47,3.44,3.44,0,0,1,.42.75c0,.05,0,.1,0,.15a3.62,3.62,0,0,1,.17.74,4.2,4.2,0,0,1,.05.51,3.51,3.51,0,0,1-.07.66s0,.07,0,.1a4.06,4.06,0,0,1-.19.62A1.3,1.3,0,0,0,7,5.25c-.07.13-.14.26-.22.39l-.16.24a2.75,2.75,0,0,1-.22.26,3.43,3.43,0,0,1-.33.33c-.08.06-.15.13-.24.19a2.06,2.06,0,0,1-.4.25l-.26.15a4,4,0,0,1-.49.17l-.25.08a4.17,4.17,0,0,1-.8.09,3.67,3.67,0,0,1-2.6-1.08L6.83,12.1,6.69,30.73H.31l6.53,6.56h6.39l0-4,4,4h6.38l.08-10.15c0-.36,0-.7,0-1.05A1.1,1.1,0,0,1,23.75,25.91Z"/><path class="cls-2" d="M37.12,23.43l0-.16A12.89,12.89,0,0,0,36.9,22c0-.1,0-.21,0-.31a10,10,0,0,0-.38-1.31l0-.1c0-.13-.12-.25-.17-.38s-.1-.23-.15-.33-.2-.35-.31-.52-.1-.17-.16-.25,0,0,0,0a5.62,5.62,0,0,0-.55-.64l-6.53-6.56a5.33,5.33,0,0,1,.56.68c.06.08.11.17.16.25a5.33,5.33,0,0,1,.31.51l.15.34c.07.15.14.31.2.48a10,10,0,0,1,.38,1.31l.06.31c.08.42.14.85.19,1.31,0,.07,0,.15,0,.22.07.81.1,1.65.09,2.54l-.08,11.26H24.22l6.53,6.56h6.37L37.21,26c0-.88,0-1.73-.09-2.53Z"/><path class="cls-3" d="M3.73,0A3.67,3.67,0,0,1,7.4,3.7,3.74,3.74,0,0,1,3.67,7.4,3.67,3.67,0,0,1,0,3.7,3.74,3.74,0,0,1,3.73,0Z"/><polygon class="cls-3" points="6.85 10.19 6.69 30.73 0.31 30.73 0.46 10.19 6.85 10.19"/><path class="cls-3" d="M23.09,9.69c6.47,0,7.63,4.24,7.58,9.78l-.08,11.26H24.22l.07-10c0-2.39,0-5.45-3.28-5.45s-3.84,2.59-3.86,5.27l-.08,10.16H10.69l.16-20.54H17l0,2.81H17A6.78,6.78,0,0,1,23.09,9.69Z"/></g></g></svg>