<svg id="Layer_1" data-name="Layer 1" xmlns="http://www.w3.org/2000/svg" viewBox="0 0 24.75 31.61"><defs><style>.cls-1{fill:#fff;}</style></defs><path class="cls-1" d="M3.42,3.62A2.85,2.85,0,0,1,6.27,6.49,2.89,2.89,0,0,1,3.38,9.36,2.85,2.85,0,0,1,.53,6.49,2.9,2.9,0,0,1,3.42,3.62Z"/><polygon class="cls-1" points="5.84 11.53 5.72 27.46 0.77 27.46 0.89 11.53 5.84 11.53"/><path class="cls-1" d="M18.44,11.14c5,0,5.92,3.29,5.89,7.58l-.07,8.74H19.32l.05-7.74c0-1.86,0-4.23-2.54-4.23s-3,2-3,4.09l-.06,7.88H8.82l.12-15.93h4.75l0,2.17h.07A5.27,5.27,0,0,1,18.44,11.14Z"/></svg>