<svg xmlns="http://www.w3.org/2000/svg" viewBox="0 0 41.98 42.42"><defs><style>.cls-1{isolation:isolate;}.cls-2{opacity:0.32;mix-blend-mode:multiply;}.cls-3{fill:#00fffb;}</style></defs><g class="cls-1"><g id="Layer_1" data-name="Layer 1"><path class="cls-2" d="M26.55,28.56a8.39,8.39,0,0,1,.15-1,3.37,3.37,0,0,1,.12-.48,3.57,3.57,0,0,1,.1-.35,3.9,3.9,0,0,1,.31-.73v0a2.77,2.77,0,0,1,.46-.62,2.08,2.08,0,0,1,.21-.21,3,3,0,0,1,.44-.34l.28-.16a4.84,4.84,0,0,1,.61-.23l.3-.08a4.87,4.87,0,0,1,1.12-.12,4,4,0,0,1,1.42.23,2.7,2.7,0,0,1,1,.62h0L26,17.94a2.67,2.67,0,0,0-1.08-.66l-5.7-5.72,0,3,2.74,2.76c-.13,0-.25.1-.37.15a2.61,2.61,0,0,0-.28.17,3,3,0,0,0-.44.33l-.22.21-.1.11a3.54,3.54,0,0,0-.35.51h0v0a3.2,3.2,0,0,0-.26.56c0,.05,0,.11,0,.17a3.37,3.37,0,0,0-.1.34c0,.1-.07.19-.09.29l0,.19a8.68,8.68,0,0,0-.15,1,.77.77,0,0,1,0,.15v.05c0,.37,0,.75,0,1.13l-.09,11h-4.1l.11-15.11L12.29,15.6c.16,0,.33,0,.48-.06l.27-.09a4.72,4.72,0,0,0,.53-.18l.29-.16a3.87,3.87,0,0,0,.43-.27l.26-.21.35-.35.13-.13.11-.16.18-.26.11-.16.12-.26a1.42,1.42,0,0,0,.08-.18l0-.09a5.52,5.52,0,0,0,.16-.54v0s0-.07,0-.11.05-.29.07-.43,0-.19,0-.28,0-.28,0-.41,0-.09,0-.14a4.06,4.06,0,0,0-.19-.8.61.61,0,0,1,0-.13l0,0a3.82,3.82,0,0,0-.45-.82s0-.05,0-.07a3.16,3.16,0,0,0-.38-.44L7.71,1.7A4.27,4.27,0,0,1,8.58,3c0,.05,0,.11.05.16a4.06,4.06,0,0,1,.19.8,4.89,4.89,0,0,1,0,.55,4.41,4.41,0,0,1-.08.72s0,.07,0,.11A3.63,3.63,0,0,1,8.56,6a1.42,1.42,0,0,1-.08.18,4.16,4.16,0,0,1-.23.42l-.18.27-.24.28a3.85,3.85,0,0,1-.35.35c-.09.07-.17.15-.26.21L6.79,8l-.29.15A4.76,4.76,0,0,1,6,8.36l-.27.08a4.12,4.12,0,0,1-.86.1A4,4,0,0,1,2,7.37l6.24,6.26L8.1,33.77H1.2l7.07,7.1h6.9l0-4.31,4.29,4.31h6.9l.09-11c0-.38,0-.76,0-1.13C26.53,28.69,26.55,28.63,26.55,28.56Z"/><path class="cls-2" d="M41,25.88l0-.18a12.27,12.27,0,0,0-.2-1.41c0-.11,0-.23-.06-.33a11.94,11.94,0,0,0-.41-1.43.38.38,0,0,1,0-.1c-.06-.15-.13-.28-.19-.41a3.92,3.92,0,0,0-.16-.36c-.1-.2-.22-.38-.33-.56s-.11-.19-.18-.28,0,0,0,0a7.68,7.68,0,0,0-.59-.69L31.74,13a4.72,4.72,0,0,1,.61.73,2.68,2.68,0,0,1,.18.28c.11.18.23.36.33.55s.11.24.16.36.15.34.22.52a11.77,11.77,0,0,1,.41,1.42l.06.33a12.45,12.45,0,0,1,.2,1.42l0,.24a27,27,0,0,1,.1,2.74L34,33.77H27.06l7.07,7.1H41l.09-12.18A27,27,0,0,0,41,26Z"/><path class="cls-3" d="M4.9.54a4,4,0,0,1,4,4,4,4,0,0,1-4,4,4,4,0,0,1-4-4A4,4,0,0,1,4.9.54Z"/><polygon class="cls-3" points="8.27 11.56 8.1 33.77 1.2 33.77 1.37 11.56 8.27 11.56"/><path class="cls-3" d="M25.84,11c7,0,8.25,4.59,8.2,10.57L34,33.77H27.06L27.14,23c0-2.58,0-5.9-3.55-5.9s-4.15,2.8-4.17,5.71l-.09,11h-6.9l.17-22.21h6.61l0,3h.1A7.3,7.3,0,0,1,25.84,11Z"/></g></g></svg>