<svg id="Layer_1" data-name="Layer 1" xmlns="http://www.w3.org/2000/svg" xmlns:xlink="http://www.w3.org/1999/xlink" viewBox="0 0 241.98 295.71"><defs><style>.cls-1,.cls-2{fill:#fff;}.cls-2{font-size:13.19px;font-family:MontserratAlternates-Medium, MontserratAlternates Medium;font-weight:500;letter-spacing:1.24em;}.cls-3{letter-spacing:1.23em;}.cls-4{letter-spacing:1.22em;}.cls-5{fill:url(#linear-gradient);}.cls-6{fill:url(#linear-gradient-2);}.cls-7{fill:url(#linear-gradient-3);}.cls-8{fill:url(#linear-gradient-4);}</style><linearGradient id="linear-gradient" x1="184.69" y1="60.53" x2="45.86" y2="61.86" gradientUnits="userSpaceOnUse"><stop offset="0" stop-color="#8b078f"/><stop offset="0.49" stop-color="#5865c5"/><stop offset="1" stop-color="#24c7fe"/></linearGradient><linearGradient id="linear-gradient-2" x1="187.31" y1="178.66" x2="49.16" y2="174.95" xlink:href="#linear-gradient"/><linearGradient id="linear-gradient-3" x1="176.18" y1="119.19" x2="230.7" y2="119.19" gradientUnits="userSpaceOnUse"><stop offset="0.29" stop-color="#de058a"/><stop offset="0.45" stop-color="#e60b55"/><stop offset="0.66" stop-color="#e8184e"/><stop offset="0.89" stop-color="#ffa300"/><stop offset="1" stop-color="#fcee21"/></linearGradient><linearGradient id="linear-gradient-4" x1="10.75" y1="119.19" x2="65.27" y2="119.19" gradientUnits="userSpaceOnUse"><stop offset="0" stop-color="#3c34eb"/><stop offset="0.15" stop-color="#374def"/><stop offset="0.39" stop-color="#3171f5"/><stop offset="0.63" stop-color="#2c8bf9"/><stop offset="0.84" stop-color="#299afb"/><stop offset="1" stop-color="#28a0fc"/></linearGradient></defs><path class="cls-1" d="M11.26,269.87H31.15v.68H11Zm-.17,3H31.15v.29H12.06A1.34,1.34,0,0,1,11.09,272.84ZM12.4,267H31.15v.86H12.06ZM13.54,264H23l-.4,1H13.14Zm1.15-2.92h9.43l-.4,1.09H14.23Zm1.08-2.91h9.44l-.46,1.2H15.32Zm1.15-2.92h9.37l-.46,1.32H16.4Zm1.14-2.91h9.32l-.52,1.43H17.49Zm1.14-2.92h9.26L27.89,251H18.63ZM29,248.2H19.72l.63-1.65H37.9l.63,1.65H29.32l-.17-.45Zm-7.49-4.57H36.75l.69,1.77H20.8Zm14.81-1H22a5.35,5.35,0,0,1,.71-1c.29-.31.58-.61.89-.91h11A7.37,7.37,0,0,1,36.3,242.6Zm-5-3.54a11.27,11.27,0,0,1,1.94.74H24.92a12.25,12.25,0,0,1,2.06-.74,8.9,8.9,0,0,1,2.28-.29A7.57,7.57,0,0,1,31.27,239.06Zm-1.49,10.4H39l.63,1.54H30.35Zm1.09,2.92h9.26l.57,1.43H31.44ZM32,255.29h9.26l.51,1.32H32.47Zm1.08,2.92h9.32l.46,1.2H33.55Zm1.09,2.91H43.5l.46,1.09H34.58ZM35.27,264h9.37l.4,1H35.67ZM36.41,267h9.38l.34.86H36.7Zm1.09,2.92h9.43l.23.68H37.72Zm1.14,3h9.43l.12.29H38.75Z"/><path class="cls-1" d="M60,238.83v1H51.16v-1Zm-8.86,1.89H60v1.88H51.16Zm0,2.91H60v1.77H51.16Zm0,2.92H60v1.65H51.16Zm0,2.91H60V251H51.16Zm0,2.92h23l-.92,1.43H51.16Zm0,2.91H72.37L72,256l.4.63H51.16Zm0,2.92H73.34l.74,1.2H51.16Zm0,2.91H60v1.09H51.16Zm0,2.92H60v1H51.16Zm0,2.91H60v.86H51.16Zm0,2.92H60v.68H51.16Zm0,3.26v-.29H60v.29ZM66,249.46H76L75.05,251H65Zm-.91,11.66H75.17l.68,1.09H65.74Zm2.74-14.57h10l-1,1.65h-10ZM66.88,264H77l.57,1H67.51Zm2.74-20.41h10l-1.15,1.77h-10ZM68.71,267H78.77l.51.86h-10Zm2.74-26.23h10l-1.15,1.88h-10Zm-.86,29.15h10l.4.68H71ZM82,239.8H72l.63-1H82.6Zm-9.49,33h10l.17.29H72.65Z"/><path class="cls-1" d="M85.68,269.87h19.9v.68H85.46Zm-.17,3h20.07v.29H86.48A1.35,1.35,0,0,1,85.51,272.84ZM86.83,267h18.75v.86H86.48ZM88,264h9.49l-.4,1H87.57Zm1.14-2.92h9.44l-.4,1.09H88.66Zm1.09-2.91h9.43l-.45,1.2H89.74Zm1.14-2.92h9.38l-.46,1.32H90.83Zm1.15-2.91h9.31l-.51,1.43H91.92Zm1.14-2.92h9.26l-.57,1.54H93.06Zm9.78-1.26H94.14l.63-1.65h17.55l.63,1.65h-9.2l-.17-.45Zm-7.49-4.57h15.26l.69,1.77H95.23Zm14.8-1H96.37a5,5,0,0,1,.72-1c.28-.31.58-.61.88-.91h11A7.32,7.32,0,0,1,110.72,242.6Zm-5-3.54a11.07,11.07,0,0,1,2,.74H99.35a12.14,12.14,0,0,1,2.05-.74,9,9,0,0,1,2.29-.29A7.44,7.44,0,0,1,105.69,239.06Zm-1.48,10.4h9.2L114,251h-9.26Zm1.08,2.92h9.26l.57,1.43h-9.26Zm1.14,2.91h9.27l.51,1.32h-9.32Zm1.09,2.92h9.32l.46,1.2H108Zm1.09,2.91h9.31l.46,1.09H109Zm1.08,2.92h9.38l.4,1h-9.38Zm1.15,2.91h9.37l.34.86h-9.43Zm1.08,2.92h9.43l.23.68h-9.43Zm1.15,3h9.43l.11.29h-9.43Z"/><path class="cls-1" d="M125.58,244.55v-.46a1,1,0,0,1,.12-.46h29.55v1.77H125.58Zm8.87,3.6v0h-8.87v-1.65H135A2.18,2.18,0,0,0,134.45,248.15Zm.05,2.85h-8.92v-1.54h8.87v.74A3.72,3.72,0,0,0,134.5,251Zm1.6,1.38h12.58a6.17,6.17,0,0,1,1.94.43,8.6,8.6,0,0,1,1.89,1H125.58v-1.43H136.1Zm19.15,15.43H125.64V267h29.67v.46A1,1,0,0,1,155.25,267.81Zm-1.11,2.4a3.4,3.4,0,0,1-.32.34H125.64v-.68H154.4Zm-28.5,2.63h24.58a6.81,6.81,0,0,1-1.77.29H125.64Zm.29-17.55h28.18a8,8,0,0,1,.49.66c.13.21.25.43.37.66H126.73A3.69,3.69,0,0,1,125.93,255.29Zm.91-13.66c.27-.31.55-.61.86-.91h27.55v1.88H126.16A6.29,6.29,0,0,1,126.84,241.63Zm3,17.35a7.75,7.75,0,0,1-1.34-.77h26.81v1.2h-24A6.08,6.08,0,0,1,129.84,259Zm.92-19.89a5.73,5.73,0,0,1,1.68-.26h22.81v1H129.07A7.85,7.85,0,0,1,130.76,239.09Zm15.69,25h8.86v1h-9.15A2.41,2.41,0,0,0,146.45,264Zm0-2.29a2.68,2.68,0,0,0-.06-.63h8.92v1.09h-8.86Z"/><path class="cls-1" d="M167.71,238.83v1h-8.86v-1Zm-8.86,1.89h8.86v1.88h-8.86Zm0,2.91h8.86v1.77h-8.86Zm0,2.92h8.86v1.65h-8.86Zm0,2.91h8.86V251h-8.86Zm31.44,2.92v1.43H158.85v-1.43Zm-31.44,2.91h31.44v1.32H158.85Zm0,2.92h31.44v1.2H158.85Zm0,2.91h8.86v1.09h-8.86Zm0,2.92h8.86v1h-8.86Zm0,2.91h8.86v.86h-8.86Zm0,2.92h8.86v.68h-8.86Zm0,3.26v-.29h8.86v.29Zm31.44-33.33h-8.86v-1h8.86Zm-8.86.92h8.86v1.88h-8.86Zm0,2.91h8.86v1.77h-8.86Zm0,2.92h8.86v1.65h-8.86Zm0,2.91h8.86V251h-8.86Zm0,11.66h8.86v1.09h-8.86Zm0,2.92h8.86v1h-8.86Zm0,2.91h8.86v.86h-8.86Zm0,2.92h8.86v.68h-8.86Zm0,3.26v-.29h8.86v.29Z"/><path class="cls-1" d="M194,269.87h19.89v.68H193.72Zm-.17,3h20.06v.29H194.75A1.34,1.34,0,0,1,193.78,272.84Zm1.31-5.89h18.75v.86H194.75Zm1.15-2.91h9.49l-.4,1h-9.49Zm1.14-2.92h9.43l-.4,1.09h-9.49Zm1.09-2.91h9.43l-.46,1.2H198Zm1.14-2.92H209l-.46,1.32H199.1Zm1.14-2.91h9.32l-.51,1.43h-9.38Zm1.15-2.92h9.26l-.57,1.54h-9.26Zm9.77-1.26h-9.26l.63-1.65h17.55l.63,1.65H212l-.17-.45Zm-7.49-4.57h15.27l.68,1.77H203.5Zm14.81-1H204.64a5,5,0,0,1,.72-1c.28-.31.58-.61.88-.91h11A7.19,7.19,0,0,1,219,242.6Zm-5-3.54a11.27,11.27,0,0,1,1.94.74h-8.29a12.58,12.58,0,0,1,2.06-.74,9,9,0,0,1,2.29-.29A7.5,7.5,0,0,1,214,239.06Zm-1.49,10.4h9.21l.62,1.54H213Zm1.09,2.92h9.26l.57,1.43h-9.26Zm1.14,2.91H224l.52,1.32h-9.32Zm1.09,2.92h9.32l.45,1.2h-9.32Zm1.08,2.91h9.32l.46,1.09h-9.38ZM218,264h9.37l.4,1h-9.37ZM219.1,267h9.38l.34.86h-9.43Zm1.09,2.92h9.43l.23.68h-9.43Zm1.14,3h9.43l.12.29h-9.43Z"/><text class="cls-2" transform="translate(9.18 288.21)">ANI<tspan class="cls-3" x="69" y="0">M</tspan><tspan class="cls-4" x="95.83" y="0">A</tspan><tspan x="120.07" y="0">CIÓN</tspan></text><polygon class="cls-5" points="190.36 48.27 168.5 110.9 162 114.44 79.28 114.44 72.78 110.31 51.52 48.27 54.47 42.36 115.92 7.5 125.28 7.5 186.81 41.77 190.36 48.27"/><polygon class="cls-6" points="79.88 123.89 161.41 123.89 169.09 129.21 189.77 190.07 186.81 196.57 124.78 230.83 116.43 230.83 55.06 196.57 51.52 190.07 72.78 128.62 79.88 123.89"/><polygon class="cls-7" points="196.86 52.99 176.18 113.85 176.18 125.13 196.86 185.35 200.39 187.15 228.76 160.53 230.7 153.49 230.7 84.36 228.76 77.81 199.81 51.22 196.86 52.99"/><polygon class="cls-8" points="44.59 52.99 65.27 113.85 65.27 125.13 44.59 185.35 41.06 187.15 12.69 160.53 10.75 153.49 10.75 84.36 12.69 77.81 41.64 51.22 44.59 52.99"/></svg>