<svg xmlns="http://www.w3.org/2000/svg" xmlns:xlink="http://www.w3.org/1999/xlink" viewBox="0 0 667.29 786.57"><defs><style>.cls-1{isolation:isolate;}.cls-2{opacity:0.3;mix-blend-mode:multiply;}.cls-3{fill:#3c34eb;}.cls-4{fill:url(#linear-gradient);}.cls-5{fill:url(#linear-gradient-2);}.cls-6{fill:url(#linear-gradient-3);}.cls-7{fill:url(#linear-gradient-4);}</style><linearGradient id="linear-gradient" x1="500.96" y1="157.91" x2="126.43" y2="161.5" gradientUnits="userSpaceOnUse"><stop offset="0" stop-color="#8b078f"/><stop offset="0.49" stop-color="#5865c5"/><stop offset="1" stop-color="#24c7fe"/></linearGradient><linearGradient id="linear-gradient-2" x1="508.04" y1="476.6" x2="135.34" y2="466.59" xlink:href="#linear-gradient"/><linearGradient id="linear-gradient-3" x1="478" y1="316.15" x2="625.09" y2="316.15" gradientUnits="userSpaceOnUse"><stop offset="0.29" stop-color="#de058a"/><stop offset="0.45" stop-color="#e60b55"/><stop offset="0.66" stop-color="#e8184e"/><stop offset="0.89" stop-color="#ffa300"/><stop offset="1" stop-color="#fcee21"/></linearGradient><linearGradient id="linear-gradient-4" x1="31.72" y1="316.15" x2="178.81" y2="316.15" gradientUnits="userSpaceOnUse"><stop offset="0" stop-color="#3c34eb"/><stop offset="0.15" stop-color="#374def"/><stop offset="0.39" stop-color="#3171f5"/><stop offset="0.63" stop-color="#2c8bf9"/><stop offset="0.84" stop-color="#299afb"/><stop offset="1" stop-color="#28a0fc"/></linearGradient></defs><g class="cls-1"><g id="Layer_1" data-name="Layer 1"><polygon class="cls-2" points="49 579.27 117.79 610.96 150.61 617.34 312.24 628.5 343.56 628.5 490.76 615.75 505.1 612.56 564.08 580.68 565.67 575.9 521.5 547.62 492.35 540.83 430.19 539.24 141.69 527.83 63.59 545.61 57.22 550.4 47.66 575.9 49 579.27"/><path class="cls-3" d="M33.09,722.64H86.76v1.85H32.48Zm-.46,8H86.76v.77H35.25A3.6,3.6,0,0,1,32.63,730.66Zm3.55-15.88H86.76v2.31H35.25Zm3.08-7.87h25.6l-1.08,2.62H38.18Zm3.09-7.86H67.79L66.71,702H41.11Zm2.93-7.87H70.72l-1.23,3.24H44Zm3.08-7.86H73.65l-1.23,3.54H47Zm3.08-7.87H76.58l-1.39,3.86H49.9Zm3.09-7.86h25L78,671.75H53ZM80.9,664.2h-25l1.69-4.48H105l1.69,4.48H81.82L81.36,663ZM60.7,651.86h41.17l1.85,4.78H58.85Zm39.94-2.78H61.93a13.48,13.48,0,0,1,1.93-2.62c.77-.82,1.56-1.64,2.39-2.46H96A19.45,19.45,0,0,1,100.64,649.08Zm-13.57-9.56a29.61,29.61,0,0,1,5.24,2H70a33.23,33.23,0,0,1,5.55-2,24.31,24.31,0,0,1,6.17-.77A20.29,20.29,0,0,1,87.07,639.52Zm-4,28.07h24.83l1.69,4.16h-25ZM86,675.45h25l1.54,3.86h-25Zm3.08,7.87h25l1.39,3.54H90.31ZM92,691.18h25.14l1.23,3.24H93.24Zm2.93,7.87h25.14L121.3,702H96Zm2.93,7.86h25.29l1.08,2.62H98.94Zm3.09,7.87h25.29l.92,2.31H101.72Zm2.93,7.86h25.44l.62,1.85H104.49Zm3.08,8h25.45l.3.77H107.27Z"/><path class="cls-3" d="M164.63,638.91v2.62h-23.9v-2.62ZM140.73,644h23.9v5.08h-23.9Zm0,7.86h23.9v4.78h-23.9Zm0,7.86h23.9v4.48h-23.9Zm0,7.87h23.9v4.16h-23.9Zm0,7.86h62.15l-2.47,3.86H140.73Zm0,7.87h57.21l-1.07,1.85,1.07,1.69H140.73Zm0,7.86h59.84l2,3.24H140.73Zm0,7.87h23.9V702h-23.9Zm0,7.86h23.9v2.62h-23.9Zm0,7.87h23.9v2.31h-23.9Zm0,7.86h23.9v1.85h-23.9Zm0,8.79v-.77h23.9v.77Zm39.94-63.84h27l-2.47,4.16H178.05Zm-2.46,31.46H205.5l1.85,2.93H180.06Zm7.4-39.33h27l-2.77,4.48h-27Zm-2.47,47.19h27.3l1.54,2.62H184.84Zm7.4-55h27l-3.08,4.78h-27Zm-2.46,62.92h27.14l1.38,2.31h-27Zm7.4-70.78h26.83l-3.08,5.08h-27Zm-2.32,78.64h27l1.08,1.85h-27Zm30.69-81.11H197l1.7-2.62h26.83Zm-25.6,89.13h26.84l.46.77H198.72Z"/><path class="cls-3" d="M233.87,722.64h53.67v1.85H233.26Zm-.46,8h54.13v.77H236A3.6,3.6,0,0,1,233.41,730.66ZM237,714.78h50.58v2.31H236Zm3.08-7.87h25.6l-1.08,2.62H239Zm3.09-7.86h25.44L267.49,702h-25.6Zm2.93-7.87H271.5l-1.23,3.24H244.82Zm3.08-7.86h25.29l-1.23,3.54H247.75Zm3.09-7.87h25.13L276,679.31H250.68Zm3.08-7.86h25l-1.54,4.16h-25Zm26.37-3.39h-25l1.69-4.48h47.35l1.69,4.48H282.61l-.47-1.24Zm-20.2-12.34h41.17l1.85,4.78H259.63Zm39.94-2.78H262.71a13.48,13.48,0,0,1,1.93-2.62c.77-.82,1.57-1.64,2.39-2.46h29.76A19.45,19.45,0,0,1,301.42,649.08Zm-13.57-9.56a29.61,29.61,0,0,1,5.24,2H270.73a33.23,33.23,0,0,1,5.55-2,24.31,24.31,0,0,1,6.17-.77A20.29,20.29,0,0,1,287.85,639.52Zm-4,28.07h24.83l1.69,4.16h-25Zm2.93,7.86h25l1.54,3.86h-25Zm3.08,7.87h25l1.38,3.54H291.09Zm2.93,7.86h25.14l1.23,3.24H294Zm2.93,7.87h25.14l1.23,2.93H296.79Zm2.93,7.86h25.29l1.08,2.62H299.72Zm3.09,7.87H327l.92,2.31H302.5Zm2.93,7.86H330.1l.62,1.85H305.27Zm3.08,8h25.45l.3.77H308.05Z"/><path class="cls-3" d="M341.51,654.33v-1.24a2.67,2.67,0,0,1,.31-1.23h79.73v4.78h-80ZM365.42,664v.16H341.51v-4.48H366.8A5.93,5.93,0,0,0,365.42,664Zm.15,7.71H341.51v-4.16h23.91v2A10.49,10.49,0,0,0,365.57,671.75Zm4.32,3.7h33.92a17.72,17.72,0,0,1,5.25,1.16,24.75,24.75,0,0,1,5.09,2.7H341.51v-3.86h28.38Zm51.66,41.64H341.67v-2.31h80V716A2.68,2.68,0,0,1,421.55,717.09Zm-3,6.48c-.26.31-.54.61-.85.92h-76v-1.85h77.57A11.31,11.31,0,0,1,418.54,723.57Zm-76.87,7.09H408a18.07,18.07,0,0,1-4.78.77H341.67Zm.77-47.34h76a18,18,0,0,1,1.32,1.77c.35.57.69,1.16,1,1.77H344.6A9.87,9.87,0,0,1,342.44,683.32Zm2.47-36.86q1.06-1.23,2.31-2.46h74.33v5.08h-78.5A16,16,0,0,1,344.91,646.46ZM353,693.27a19.46,19.46,0,0,1-3.62-2.09H421.7v3.24H356.93A15.73,15.73,0,0,1,353,693.27Zm2.47-53.67a16.39,16.39,0,0,1,4.55-.69h61.53v2.62H350.92A20.75,20.75,0,0,1,355.47,639.6Zm42.33,67.31h23.9v2.62H397A6.62,6.62,0,0,0,397.8,706.91Zm0-6.16a7.54,7.54,0,0,0-.15-1.7H421.7V702H397.8Z"/><path class="cls-3" d="M455.16,638.91v2.62h-23.9v-2.62ZM431.26,644h23.9v5.08h-23.9Zm0,7.86h23.9v4.78h-23.9Zm0,7.86h23.9v4.48h-23.9Zm0,7.87h23.9v4.16h-23.9Zm84.82,7.86v3.86H431.26v-3.86Zm-84.82,7.87h84.82v3.54H431.26Zm0,7.86h84.82v3.24H431.26Zm0,7.87h23.9V702h-23.9Zm0,7.86h23.9v2.62h-23.9Zm0,7.87h23.9v2.31h-23.9Zm0,7.86h23.9v1.85h-23.9Zm0,8.79v-.77h23.9v.77Zm84.82-89.9H492.17v-2.62h23.91ZM492.17,644h23.91v5.08H492.17Zm0,7.86h23.91v4.78H492.17Zm0,7.86h23.91v4.48H492.17Zm0,7.87h23.91v4.16H492.17Zm0,31.46h23.91V702H492.17Zm0,7.86h23.91v2.62H492.17Zm0,7.87h23.91v2.31H492.17Zm0,7.86h23.91v1.85H492.17Zm0,8.79v-.77h23.91v.77Z"/><path class="cls-3" d="M526,722.64h53.66v1.85H525.33Zm-.47,8h54.13v.77h-51.5A3.63,3.63,0,0,1,525.48,730.66ZM529,714.78h50.58v2.31h-51.5Zm3.09-7.87h25.59l-1.08,2.62H531Zm3.08-7.86h25.44L559.56,702H534Zm2.93-7.87h25.44l-1.23,3.24H536.9Zm3.08-7.86H566.5l-1.23,3.54H539.83Zm3.09-7.87h25.13l-1.38,3.86H542.76Zm3.08-7.86h25l-1.54,4.16h-25Zm26.37-3.39h-25l1.7-4.48h47.34l1.7,4.48H574.68l-.46-1.24Zm-20.2-12.34h41.17l1.86,4.78H551.7Zm39.94-2.78H554.78a13.9,13.9,0,0,1,1.93-2.62c.77-.82,1.57-1.64,2.39-2.46h29.76A19.28,19.28,0,0,1,593.49,649.08Zm-13.57-9.56a29.61,29.61,0,0,1,5.24,2H562.8a33.23,33.23,0,0,1,5.55-2,24.37,24.37,0,0,1,6.17-.77A20.29,20.29,0,0,1,579.92,639.52Zm-4,28.07h24.83l1.69,4.16h-25Zm2.93,7.86h25l1.55,3.86h-25Zm3.08,7.87h25l1.39,3.54H583.16Zm2.94,7.86H610l1.23,3.24H586.09Zm2.93,7.87h25.13l1.24,2.93h-25.3Zm2.93,7.86H616l1.08,2.62H591.8Zm3.08,7.87h25.29l.92,2.31H594.57Zm2.93,7.86h25.44l.62,1.85H597.35Zm3.08,8h25.45l.31.77H600.12Z"/><polygon class="cls-4" points="516.26 124.83 457.28 293.78 439.75 303.34 216.61 303.34 199.07 292.19 141.69 124.83 149.66 108.89 315.43 14.85 340.7 14.85 506.69 107.3 516.26 124.83"/><polygon class="cls-5" points="218.2 328.85 438.16 328.85 458.88 343.19 514.66 507.36 506.69 524.89 339.34 617.34 316.82 617.34 151.26 524.89 141.69 507.36 199.07 341.6 218.2 328.85"/><polygon class="cls-6" points="533.79 137.58 478 301.75 478 332.19 533.79 494.65 543.31 499.5 619.86 427.67 625.09 408.7 625.09 222.19 619.86 204.52 541.76 132.8 533.79 137.58"/><polygon class="cls-7" points="123.02 137.58 178.81 301.75 178.81 332.19 123.02 494.65 113.5 499.5 36.95 427.67 31.72 408.7 31.72 222.19 36.95 204.52 115.05 132.8 123.02 137.58"/><path class="cls-3" d="M97.32,769.51l1.42-2.7a12.12,12.12,0,0,0,6.62,2c3.17,0,4.49-1,4.49-2.57,0-4.24-11.93-.57-11.93-8.08,0-3.38,3-5.66,7.87-5.66a13.68,13.68,0,0,1,6.87,1.71l-1.46,2.7a9.84,9.84,0,0,0-5.44-1.49c-3,0-4.45,1.1-4.45,2.6,0,4.45,12,.82,12,8.15,0,3.42-3.13,5.59-8.15,5.59C102,771.72,98.88,770.76,97.32,769.51Z"/><path class="cls-3" d="M198.71,770.4a6.47,6.47,0,0,1-4.13,1.32c-3.81,0-6-2.1-6-5.91v-17.3H192v4.13h5.41v2.81H192v10.22c0,2,1,3.17,3,3.17a4.31,4.31,0,0,0,2.67-.89Z"/><path class="cls-3" d="M291.66,752.64v18.87h-3.24v-2.85a7.68,7.68,0,0,1-6.41,3.06c-4.88,0-8.12-2.67-8.12-8.22V752.64h3.42V763.1c0,3.71,1.85,5.56,5.09,5.56,3.56,0,5.84-2.21,5.84-6.27v-9.75Z"/><path class="cls-3" d="M387.21,745.09v26.42h-3.28v-3a8,8,0,0,1-6.73,3.2c-5.52,0-9.54-3.88-9.54-9.65a9.15,9.15,0,0,1,9.54-9.61,8,8,0,0,1,6.59,3V745.09Zm-3.39,17c0-4-2.74-6.62-6.33-6.62a6.22,6.22,0,0,0-6.38,6.62c0,4,2.74,6.66,6.38,6.66S383.82,766.1,383.82,762.07Z"/><path class="cls-3" d="M464.31,746.8a2.26,2.26,0,0,1,2.32-2.25,2.21,2.21,0,0,1,2.31,2.17,2.32,2.32,0,0,1-4.63.08Zm.61,5.84h3.42v18.87h-3.42Z"/><path class="cls-3" d="M544.34,762.07c0-5.62,4.16-9.61,9.82-9.61s9.8,4,9.8,9.61a9.81,9.81,0,0,1-19.62,0Zm16.16,0c0-4-2.7-6.62-6.34-6.62s-6.37,2.6-6.37,6.62,2.74,6.66,6.37,6.66S560.5,766.1,560.5,762.07Z"/></g></g></svg>