<svg xmlns="http://www.w3.org/2000/svg" xmlns:xlink="http://www.w3.org/1999/xlink" viewBox="0 0 599.79 762.29"><defs><style>.cls-1{isolation:isolate;}.cls-2{opacity:0.3;mix-blend-mode:multiply;}.cls-3{fill:#fff;}.cls-4{fill:url(#linear-gradient);}.cls-5{fill:url(#linear-gradient-2);}.cls-6{fill:url(#linear-gradient-3);}.cls-7{fill:url(#linear-gradient-4);}</style><linearGradient id="linear-gradient" x1="471.82" y1="146.2" x2="97.29" y2="149.79" gradientUnits="userSpaceOnUse"><stop offset="0" stop-color="#8b078f"/><stop offset="0.49" stop-color="#5865c5"/><stop offset="1" stop-color="#24c7fe"/></linearGradient><linearGradient id="linear-gradient-2" x1="478.9" y1="464.88" x2="106.2" y2="454.88" xlink:href="#linear-gradient"/><linearGradient id="linear-gradient-3" x1="448.86" y1="304.43" x2="595.95" y2="304.43" gradientUnits="userSpaceOnUse"><stop offset="0.29" stop-color="#de058a"/><stop offset="0.45" stop-color="#e60b55"/><stop offset="0.66" stop-color="#e8184e"/><stop offset="0.89" stop-color="#ffa300"/><stop offset="1" stop-color="#fcee21"/></linearGradient><linearGradient id="linear-gradient-4" x1="2.58" y1="304.43" x2="149.66" y2="304.43" gradientUnits="userSpaceOnUse"><stop offset="0" stop-color="#3c34eb"/><stop offset="0.15" stop-color="#374def"/><stop offset="0.39" stop-color="#3171f5"/><stop offset="0.63" stop-color="#2c8bf9"/><stop offset="0.84" stop-color="#299afb"/><stop offset="1" stop-color="#28a0fc"/></linearGradient></defs><g class="cls-1"><g id="Layer_1" data-name="Layer 1"><polygon class="cls-2" points="19.86 567.55 88.64 599.25 121.47 605.62 283.1 616.78 314.42 616.78 461.61 604.03 475.96 600.84 534.93 568.97 536.53 564.18 492.36 535.91 463.21 529.12 401.05 527.52 112.55 516.11 34.45 533.9 28.08 538.68 18.51 564.18 19.86 567.55"/><path class="cls-3" d="M4,710.93H57.62v1.85H3.33Zm-.46,8H57.62v.77H6.11A3.65,3.65,0,0,1,3.49,719ZM7,703.06H57.62v2.32H6.11Zm3.08-7.86h25.6l-1.08,2.62H9Zm3.08-7.87H38.65l-1.08,2.93H12Zm2.93-7.86H41.58l-1.23,3.24H14.9Zm3.09-7.87H44.51l-1.23,3.55H17.83Zm3.08-7.86H47.44l-1.39,3.86H20.76Zm3.09-7.87h25L48.83,660h-25Zm26.37-3.39h-25L28.47,648H75.81l1.7,4.47H52.68l-.46-1.23Zm-20.2-12.34H72.73l1.85,4.79H29.7Zm39.94-2.77H32.79a12.9,12.9,0,0,1,1.93-2.62c.77-.82,1.56-1.65,2.39-2.47H66.87A19.67,19.67,0,0,1,71.5,637.37Zm-13.57-9.56a29.12,29.12,0,0,1,5.24,2H40.81a32.34,32.34,0,0,1,5.55-2,23.87,23.87,0,0,1,6.17-.77A19.89,19.89,0,0,1,57.93,627.81Zm-4,28.06H78.74l1.7,4.17h-25Zm2.93,7.87h25l1.54,3.86h-25Zm3.08,7.86h25l1.39,3.55H61.16Zm2.93,7.87H88l1.23,3.24H64.09Zm2.93,7.86H90.93l1.23,2.93H66.87Zm2.93,7.87H94l1.08,2.62H69.8Zm3.08,7.86H97.1l.92,2.32H72.58Zm2.93,7.87h25.45l.62,1.85H75.35Zm3.09,8h25.44l.31.77H78.13Z"/><path class="cls-3" d="M135.49,627.19v2.62h-23.9v-2.62Zm-23.9,5.09h23.9v5.09h-23.9Zm0,7.86h23.9v4.79h-23.9Zm0,7.87h23.9v4.47h-23.9Zm0,7.86h23.9V660h-23.9Zm0,7.87h62.15l-2.47,3.86H111.59Zm0,7.86H168.8l-1.08,1.85,1.08,1.7H111.59Zm0,7.87h59.83l2,3.24H111.59Zm0,7.86h23.9v2.93h-23.9Zm0,7.87h23.9v2.62h-23.9Zm0,7.86h23.9v2.32h-23.9Zm0,7.87h23.9v1.85h-23.9Zm0,8.79V719h23.9v.77Zm39.94-63.85h27L176.05,660H148.91Zm-2.47,31.46h27.3l1.85,2.93h-27.3ZM156.47,648h27l-2.77,4.47h-27ZM154,695.2h27.29l1.55,2.62H155.7Zm7.4-55.06h27l-3.09,4.79h-27Zm-2.47,62.92h27.15l1.38,2.32h-27Zm7.41-70.78h26.83l-3.09,5.09h-27ZM164,710.93h27l1.08,1.85h-27Zm30.69-81.12H167.88l1.69-2.62h26.84ZM169.11,719h26.83l.47.77H169.57Z"/><path class="cls-3" d="M204.73,710.93H258.4v1.85H204.12Zm-.46,8H258.4v.77H206.89A3.65,3.65,0,0,1,204.27,719Zm3.55-15.89H258.4v2.32H206.89Zm3.08-7.86h25.6l-1.08,2.62h-25.6Zm3.09-7.87h25.44l-1.08,2.93h-25.6Zm2.92-7.86h25.45l-1.23,3.24H215.68ZM220,671.6h25.29l-1.23,3.55H218.61Zm3.08-7.86h25.14l-1.39,3.86H221.54Zm3.09-7.87h25L249.61,660h-25Zm26.37-3.39h-25l1.69-4.47h47.34l1.7,4.47H253.46l-.46-1.23Zm-20.2-12.34h41.17l1.85,4.79H230.49Zm39.94-2.77H233.57a12.9,12.9,0,0,1,1.93-2.62c.77-.82,1.56-1.65,2.39-2.47h29.76A19.67,19.67,0,0,1,272.28,637.37Zm-13.57-9.56a29.12,29.12,0,0,1,5.24,2H241.59a32.34,32.34,0,0,1,5.55-2,23.87,23.87,0,0,1,6.17-.77A19.89,19.89,0,0,1,258.71,627.81Zm-4,28.06h24.83l1.69,4.17h-25Zm2.93,7.87h25l1.54,3.86h-25Zm3.08,7.86h25l1.39,3.55H262Zm2.93,7.87h25.14l1.23,3.24H264.87Zm2.93,7.86h25.14l1.23,2.93H267.65Zm2.93,7.87h25.29l1.08,2.62H270.58Zm3.09,7.86h25.29l.92,2.32H273.36Zm2.93,7.87H301l.62,1.85H276.13Zm3.08,8H304l.31.77H278.91Z"/><path class="cls-3" d="M312.37,642.61v-1.23a2.74,2.74,0,0,1,.31-1.24h79.73v4.79h-80Zm23.9,9.72v.15h-23.9V648h25.29A5.93,5.93,0,0,0,336.27,652.33Zm.16,7.71H312.37v-4.17h23.9v2A9.64,9.64,0,0,0,336.43,660Zm4.32,3.7h33.92a17.41,17.41,0,0,1,5.25,1.16,24,24,0,0,1,5.08,2.7H312.37v-3.86h28.38Zm51.66,41.64H312.53v-2.32h80v1.24A2.75,2.75,0,0,1,392.41,705.38Zm-3,6.47c-.26.31-.54.62-.85.93h-76v-1.85h77.56A9.19,9.19,0,0,1,389.4,711.85ZM312.53,719h66.31a18.49,18.49,0,0,1-4.78.77H312.53Zm.77-47.35h76a16.39,16.39,0,0,1,1.31,1.78,18.93,18.93,0,0,1,1,1.77H315.46A9.9,9.9,0,0,1,313.3,671.6Zm2.46-36.85c.72-.82,1.49-1.65,2.32-2.47h74.33v5.09h-78.5A15.16,15.16,0,0,1,315.76,634.75Zm8.1,46.8a19.1,19.1,0,0,1-3.62-2.08h72.32v3.24H327.79A15.52,15.52,0,0,1,323.86,681.55Zm2.47-53.67a16.39,16.39,0,0,1,4.55-.69h61.53v2.62H321.78A21.24,21.24,0,0,1,326.33,627.88Zm42.33,67.32h23.9v2.62H367.89A6.68,6.68,0,0,0,368.66,695.2Zm0-6.17a7,7,0,0,0-.16-1.7h24.06v2.93h-23.9Z"/><path class="cls-3" d="M426,627.19v2.62h-23.9v-2.62Zm-23.9,5.09H426v5.09h-23.9Zm0,7.86H426v4.79h-23.9Zm0,7.87H426v4.47h-23.9Zm0,7.86H426V660h-23.9Zm84.82,7.87v3.86H402.12v-3.86Zm-84.82,7.86h84.82v3.55H402.12Zm0,7.87h84.82v3.24H402.12Zm0,7.86H426v2.93h-23.9Zm0,7.87H426v2.62h-23.9Zm0,7.86H426v2.32h-23.9Zm0,7.87H426v1.85h-23.9Zm0,8.79V719H426v.77Zm84.82-89.91H463v-2.62h23.91ZM463,632.28h23.91v5.09H463Zm0,7.86h23.91v4.79H463Zm0,7.87h23.91v4.47H463Zm0,7.86h23.91V660H463Zm0,31.46h23.91v2.93H463Zm0,7.87h23.91v2.62H463Zm0,7.86h23.91v2.32H463Zm0,7.87h23.91v1.85H463Zm0,8.79V719h23.91v.77Z"/><path class="cls-3" d="M496.8,710.93h53.67v1.85H496.19Zm-.46,8h54.13v.77H499A3.66,3.66,0,0,1,496.34,719Zm3.55-15.89h50.58v2.32H499ZM503,695.2h25.6l-1.08,2.62h-25.6Zm3.09-7.87H531.5l-1.08,2.93h-25.6Zm2.93-7.86h25.44l-1.23,3.24H507.75Zm3.08-7.87h25.29l-1.23,3.55H510.68Zm3.09-7.86h25.13l-1.39,3.86H513.61Zm3.08-7.87h25L541.68,660h-25Zm26.37-3.39h-25l1.69-4.47h47.35l1.69,4.47H545.54l-.47-1.23Zm-20.2-12.34h41.17l1.85,4.79H522.56Zm39.94-2.77H525.64a13.29,13.29,0,0,1,1.93-2.62c.77-.82,1.57-1.65,2.39-2.47h29.76A19.49,19.49,0,0,1,564.35,637.37Zm-13.57-9.56a28.83,28.83,0,0,1,5.24,2H533.66a32.34,32.34,0,0,1,5.55-2,23.87,23.87,0,0,1,6.17-.77A19.89,19.89,0,0,1,550.78,627.81Zm-4,28.06H571.6l1.69,4.17h-25Zm2.93,7.87h25l1.54,3.86h-25Zm3.08,7.86h25l1.38,3.55H554Zm2.93,7.87h25.14l1.23,3.24H557Zm2.93,7.86h25.14l1.23,2.93H559.72Zm2.93,7.87h25.29l1.08,2.62H562.65Zm3.09,7.86H590l.92,2.32H565.43Zm2.93,7.87H593l.62,1.85H568.2Zm3.08,8h25.45l.3.77H571Z"/><polygon class="cls-4" points="487.12 113.11 428.14 282.06 410.61 291.63 187.47 291.63 169.93 280.47 112.55 113.11 120.52 97.17 286.29 3.14 311.56 3.14 477.55 95.58 487.12 113.11"/><polygon class="cls-5" points="189.06 317.13 409.02 317.13 429.74 331.48 485.52 495.65 477.55 513.18 310.19 605.62 287.68 605.62 122.12 513.18 112.55 495.65 169.93 329.88 189.06 317.13"/><polygon class="cls-6" points="504.65 125.86 448.86 290.04 448.86 320.47 504.65 482.93 514.16 487.79 590.72 415.95 595.95 396.98 595.95 210.47 590.72 192.81 512.62 121.08 504.65 125.86"/><polygon class="cls-7" points="93.88 125.86 149.66 290.04 149.66 320.47 93.88 482.93 84.36 487.79 7.81 415.95 2.58 396.98 2.58 210.47 7.81 192.81 85.91 121.08 93.88 125.86"/><path class="cls-3" d="M68.18,757.8l1.42-2.71a12.12,12.12,0,0,0,6.62,2c3.17,0,4.49-1,4.49-2.56,0-4.24-11.93-.57-11.93-8.09,0-3.38,3-5.66,7.87-5.66a13.7,13.7,0,0,1,6.87,1.71l-1.46,2.71a9.8,9.8,0,0,0-5.45-1.5c-3,0-4.45,1.11-4.45,2.6,0,4.45,12,.82,12,8.16C84.13,757.83,81,760,76,760A13.63,13.63,0,0,1,68.18,757.8Z"/><path class="cls-3" d="M169.56,758.69a6.43,6.43,0,0,1-4.13,1.32c-3.81,0-6-2.11-6-5.92v-17.3h3.42v4.13h5.41v2.81h-5.41V754c0,2,1,3.17,3,3.17a4.33,4.33,0,0,0,2.67-.89Z"/><path class="cls-3" d="M262.52,740.92v18.87h-3.24v-2.85a7.68,7.68,0,0,1-6.41,3.07c-4.88,0-8.12-2.67-8.12-8.23V740.92h3.42v10.47c0,3.7,1.85,5.55,5.09,5.55,3.56,0,5.84-2.2,5.84-6.26v-9.76Z"/><path class="cls-3" d="M358.06,733.37v26.42h-3.27v-3a8,8,0,0,1-6.73,3.21c-5.52,0-9.54-3.89-9.54-9.65s4-9.62,9.54-9.62a8,8,0,0,1,6.59,3v-10.4Zm-3.38,17c0-4-2.74-6.63-6.34-6.63s-6.37,2.6-6.37,6.63,2.74,6.66,6.37,6.66S354.68,754.38,354.68,750.36Z"/><path class="cls-3" d="M435.17,735.08a2.26,2.26,0,0,1,2.32-2.24A2.21,2.21,0,0,1,439.8,735a2.32,2.32,0,0,1-4.63.07Zm.61,5.84h3.42v18.87h-3.42Z"/><path class="cls-3" d="M515.19,750.36c0-5.63,4.17-9.62,9.83-9.62s9.79,4,9.79,9.62a9.81,9.81,0,0,1-19.62,0Zm16.17,0c0-4-2.71-6.63-6.34-6.63s-6.37,2.6-6.37,6.63S521.39,757,525,757,531.36,754.38,531.36,750.36Z"/></g></g></svg>