<?xml version="1.0" encoding="utf-8"?>
<!-- Generator: Adobe Illustrator 24.3.0, SVG Export Plug-In . SVG Version: 6.00 Build 0)  -->
<svg version="1.1" id="Layer_1" xmlns="http://www.w3.org/2000/svg" xmlns:xlink="http://www.w3.org/1999/xlink" x="0px" y="0px"
	 viewBox="0 0 240.02 202.12" style="enable-background:new 0 0 240.02 202.12;" xml:space="preserve">
<style type="text/css">
	.st0{fill:#FDFEFE;}
</style>
<path class="st0" d="M239.96,42.37c0.36,13.81-3.31,26.02-9.02,37.49c-20.02,40.22-46.14,75.91-80.22,105.42
	c-9.41,8.15-20.17,14.11-32.76,16.44c-8.29,1.53-14.34-1.52-19.54-7.46c-5.65-6.45-9.79-13.86-13.47-21.53
	c-11.54-24.08-19.18-49.53-26.4-75.13c-2.51-8.89-5-17.79-8.97-26.18c-5.71-12.05-10.44-13.52-21.97-6.7
	c-3.97,2.35-7.7,5.1-11.55,7.66c-4.37,2.91-7.44,2.45-10.64-1.74c-5.89-7.74-9.11-9.44,1.72-18.33
	c16.02-13.15,31.5-26.98,48.81-38.5c4.58-3.05,9.31-5.83,14.33-8.1c4.76-2.16,9.62-3.17,14.91-2.54c8.54,1.03,14.26,5.5,17.51,13.33
	c3.8,9.14,6.04,18.74,8.33,28.34c5.71,23.91,11.28,47.86,18.78,71.29c0.84,2.61,1.83,5.18,2.91,7.7c1.95,4.54,2.86,4.69,6.02,1.02
	c4.75-5.5,8.6-11.65,12.55-17.72c6.34-9.74,12.38-19.65,17.56-30.06c1.68-3.38,2.98-6.87,3.45-10.63c0.81-6.53-2.19-10.91-8.55-12.5
	c-5.22-1.3-10.42-0.95-15.57,0.35c-2.34,0.59-4.49,0.6-6.17-1.39c-1.57-1.87-1.22-3.89-0.42-5.99c5.12-13.37,11.97-25.62,23.5-34.57
	C180.2,0.61,197.41-2.41,215.74,1.8c13.23,3.04,21.51,14.08,23.41,29.38C239.65,35.13,240.2,39.09,239.96,42.37z"/>
</svg>
