<svg xmlns="http://www.w3.org/2000/svg" viewBox="0 0 138.96 142.98"><defs><style>.cls-1{isolation:isolate;}.cls-2{opacity:0.05;mix-blend-mode:multiply;}.cls-3{fill:#fff;}</style></defs><g class="cls-1"><g id="Layer_1" data-name="Layer 1"><polygon class="cls-2" points="5.68 131.1 21.55 138.42 29.13 139.89 66.43 142.47 73.66 142.47 107.62 139.52 110.93 138.79 124.54 131.43 124.91 130.33 114.72 123.8 107.99 122.23 93.65 121.87 27.07 119.23 9.05 123.34 7.57 124.44 5.37 130.33 5.68 131.1"/><polygon class="cls-3" points="113.51 26.23 99.9 65.22 95.85 67.43 44.36 67.43 40.31 64.85 27.07 26.23 28.91 22.55 67.16 0.85 73 0.85 111.3 22.18 113.51 26.23"/><polygon class="cls-3" points="44.73 73.31 95.48 73.31 100.27 76.62 113.14 114.51 111.3 118.56 72.68 139.89 67.48 139.89 29.28 118.56 27.07 114.51 40.31 76.26 44.73 73.31"/><polygon class="cls-3" points="117.56 29.17 104.68 67.06 104.68 74.08 117.56 111.58 119.75 112.7 137.42 96.12 138.63 91.74 138.63 48.7 137.42 44.62 119.39 28.07 117.56 29.17"/><polygon class="cls-3" points="22.76 29.17 35.63 67.06 35.63 74.08 22.76 111.58 20.56 112.7 2.9 96.12 1.69 91.74 1.69 48.7 2.9 44.62 20.92 28.07 22.76 29.17"/></g></g></svg>