<svg id="Layer_1" data-name="Layer 1" xmlns="http://www.w3.org/2000/svg" viewBox="0 0 28.37 31.32"><defs><style>.cls-1{fill:#fff;}</style></defs><path class="cls-1" d="M9.71,8.79a4.25,4.25,0,0,1,.79.09c.16,0,.3.25.39.42.38.89.76,1.78,1.09,2.69.18.48-.16.94-.87,1.74a.61.61,0,0,0-.1.78,9.34,9.34,0,0,0,4.77,4.12.63.63,0,0,0,.26.05.56.56,0,0,0,.46-.25c.89-1.07,1.15-1.54,1.5-1.54a.71.71,0,0,1,.31.09c2.77,1.33,3,1.38,3,1.69a3,3,0,0,1-3.19,3.11h-.2c-2.69-.09-7-2.22-9.87-7.33a4.16,4.16,0,0,1,.68-5.3A1.37,1.37,0,0,1,9.71,8.79Z"/><path class="cls-1" d="M28,12.6A13.94,13.94,0,0,1,16.68,28.78a14.3,14.3,0,0,1-2.42.21,13.93,13.93,0,0,1-6.18-1.47,1.39,1.39,0,0,0-.57-.12,1.2,1.2,0,0,0-.28,0c-3.66.92-6.1,1.6-6.84,1.75l.44-1.65c.47-1.67,1-3.34,1.4-5a1.25,1.25,0,0,0-.07-.81,13.88,13.88,0,0,1,9.19-20,14.12,14.12,0,0,1,3.25-.38A13.61,13.61,0,0,1,28,12.6Zm-11.85,14a11.63,11.63,0,0,0,9.69-13.1A11.43,11.43,0,0,0,12.41,3.82,11.6,11.6,0,0,0,4.26,20.74a2.33,2.33,0,0,1,.24,2.18c-.34,1-.56,2-.87,3.08,1.37-.35,2.64-.67,3.9-1a1.39,1.39,0,0,1,.33-.05,1.19,1.19,0,0,1,.61.18,11.35,11.35,0,0,0,5.76,1.6,12.2,12.2,0,0,0,1.88-.15"/></svg>