<svg xmlns="http://www.w3.org/2000/svg" viewBox="0 0 42.6 42.83"><defs><style>.cls-1{isolation:isolate;}.cls-2{opacity:0.32;mix-blend-mode:multiply;}.cls-3{fill:#00fffb;}</style></defs><g class="cls-1"><g id="Layer_1" data-name="Layer 1"><path class="cls-2" d="M42.32,23.56l0-.59c0-.07,0-.14,0-.2-.05-.49-.11-1-.2-1.48s-.21-1-.34-1.52c0-.15-.09-.3-.14-.46-.1-.34-.21-.69-.34-1,0-.09,0-.18-.08-.26a1.3,1.3,0,0,1-.08-.17A19.3,19.3,0,0,0,40.24,16c-.05-.1-.11-.19-.16-.28A18.51,18.51,0,0,0,38.94,14h0v0a18.61,18.61,0,0,0-1.7-2L30.69,5.4a19.74,19.74,0,0,1,1.69,2l0,0a17.35,17.35,0,0,1,1.14,1.78l.16.27a18.24,18.24,0,0,1,.86,1.85c.06.14.11.28.16.42.13.34.24.68.34,1,0,.15.1.31.14.46.14.5.26,1,.35,1.52s.16,1.12.2,1.68c0,.19,0,.39,0,.59q0,.55,0,1.11l0,.64c0,.37,0,.75-.08,1.12,0,.15,0,.3-.06.46-.07.52-.16,1-.27,1.55a.29.29,0,0,0,0,.09c-.12.48-.25,1-.4,1.42l-.15.43c-.13.37-.27.73-.42,1.09l-.18.42a15.06,15.06,0,0,1-.7,1.39c0,.09-.12.18-.17.28-.22.37-.44.74-.69,1.09l-5.79-5.82a.46.46,0,0,1,.09.14s0,0,0,0a.51.51,0,0,1,0,.13,4,4,0,0,1-.08.93.28.28,0,0,1,0,.09,3.78,3.78,0,0,1-.25.74l-.06.13a4,4,0,0,1-.4.63,3.91,3.91,0,0,1-.67.62l-.23.14a3.29,3.29,0,0,1-.55.3l-.28.12c-.19.07-.38.12-.57.17l-.24.06a4.2,4.2,0,0,1-.77.08H22.6c-2.46-.09-6-1.5-9.12-4.67L20,28.45a15.73,15.73,0,0,0,7.69,4.47l-.34.22c-.28.18-.56.34-.85.5l-.62.33c-.3.15-.62.29-.93.42l-.62.27c-.35.13-.72.25-1.09.36l-.54.18c-.56.15-1.13.29-1.71.39a18.44,18.44,0,0,1-3.12.27,17.44,17.44,0,0,1-6.09-1.1s0-.1.05-.16a2.9,2.9,0,0,0,.14-.48,1.08,1.08,0,0,0,0-.19s0-.08,0-.12a.36.36,0,0,1,0-.11,2.22,2.22,0,0,0,0-.45s0,0,0,0a2.7,2.7,0,0,0-.18-.76,0,0,0,0,0,0,0,4.73,4.73,0,0,0-.31-.65,15,15,0,0,1-.81-1.73c-.06-.13-.09-.27-.14-.41-.17-.48-.33-1-.45-1.44-.05-.22-.09-.45-.13-.67-.08-.4-.15-.8-.2-1.2s-.08-.87-.09-1.3c0-.05,0-.1,0-.15,0-.49,0-1,.07-1.45a15.8,15.8,0,0,1,.29-1.95v0a14.79,14.79,0,0,1,.55-1.83c.07-.18.15-.35.22-.53.19-.46.4-.91.64-1.36.13-.24.26-.49.4-.73l.27-.43a11.62,11.62,0,0,1,.72-1,2.48,2.48,0,0,1,.19-.26c.32-.4.67-.78,1-1.15l.29-.27.4-.35c.05.13.11.27.16.41h0a.9.9,0,0,1,.05.46v0a1.42,1.42,0,0,1-.17.47v0l-.1.15c-.1.15-.21.3-.35.48s-.33.4-.53.63l0,0a.66.66,0,0,0-.12.17h0v0l0,.08a.19.19,0,0,0,0,.1.06.06,0,0,0,0,0v0a.06.06,0,0,0,0,0v.11a.14.14,0,0,0,0,.06.29.29,0,0,0,0,.09.64.64,0,0,1,0,.07.51.51,0,0,0,.07.15,13.62,13.62,0,0,0,.82,1.26s0,0,.05.05a14.05,14.05,0,0,0,1.11,1.3l6.54,6.56a12.38,12.38,0,0,1-1.11-1.29,13.76,13.76,0,0,1-.88-1.32,1,1,0,0,1-.08-.22l0-.09a.69.69,0,0,1,0-.2v0a.68.68,0,0,1,.07-.23h0a1.11,1.11,0,0,1,.16-.24c.2-.21.37-.41.51-.59l0,0a3.94,3.94,0,0,0,.34-.48l.1-.14h0l0,0a2,2,0,0,0,.1-.21,1.21,1.21,0,0,0,.05-.18s0-.05,0-.08v0a.09.09,0,0,1,0,0,.86.86,0,0,0,0-.16.57.57,0,0,0-.06-.25h0c-.08-.23-.16-.46-.25-.69L21,19.39c-.31-.79-.64-1.57-1-2.35a3.4,3.4,0,0,0-.18-.3l-.09-.11-4-4c.3-.22.62-.45.94-.65L17,11.9c.45-.27.93-.52,1.41-.75l.42-.17c.37-.16.76-.31,1.15-.45l.46-.15A14.54,14.54,0,0,1,22,10a14.7,14.7,0,0,1,13.11,4.07L28.6,7.49A14.7,14.7,0,0,0,15.49,3.42a15.08,15.08,0,0,0-1.64.4L13.4,4c-.4.14-.78.28-1.16.45l-.41.17a15.72,15.72,0,0,0-1.41.75l-.16.1c-.4.25-.78.52-1.15.8l-.37.29c-.31.26-.61.52-.89.79l-.3.28a14.11,14.11,0,0,0-1,1.08.18.18,0,0,0,0,.07c-.07.08-.13.17-.2.26-.25.32-.49.66-.72,1-.09.14-.18.28-.26.43s-.18.27-.26.42-.1.21-.15.31c-.24.45-.45.9-.64,1.36,0,.12-.12.24-.16.36s0,.11,0,.17a16.79,16.79,0,0,0-.56,1.83v0h0a14.12,14.12,0,0,0-.3,2,1.13,1.13,0,0,1,0,.18c0,.42,0,.84,0,1.27,0,.05,0,.1,0,.16,0,.34,0,.69.05,1,0,.09,0,.17,0,.26A11.79,11.79,0,0,0,3.46,21c0,.23.08.46.13.68A14.79,14.79,0,0,0,4,23.07c0,.13.07.25.12.38l0,0A14.29,14.29,0,0,0,5,25.22a4.42,4.42,0,0,1,.31.67,3.13,3.13,0,0,1,.19.76,2.42,2.42,0,0,1,0,.6.5.5,0,0,1,0,.12A2.87,2.87,0,0,1,5.3,28c-.22.63-.4,1.27-.58,1.93s-.34,1.33-.54,2h0l2.39,2.41C3.11,35.31.8,35.94,0,36.1l6.54,6.56c1-.19,4.1-1.06,8.82-2.25a1.29,1.29,0,0,1,.35,0,1.7,1.7,0,0,1,.74.16,18,18,0,0,0,8,1.89,18.41,18.41,0,0,0,3.11-.27c.59-.1,1.15-.24,1.71-.39.19,0,.37-.12.55-.18.37-.11.73-.23,1.09-.36l.61-.26.94-.43.62-.33c.29-.16.57-.32.85-.5l.59-.38c.27-.19.53-.37.78-.57l.56-.44.72-.63.5-.48c.24-.23.46-.48.68-.72l.44-.49c0-.06.09-.11.13-.16.18-.22.34-.45.51-.68s.24-.31.35-.48c.25-.36.48-.73.7-1.11l.18-.28v0c.25-.44.48-.9.69-1.36l.18-.42c.08-.21.18-.41.26-.62s.1-.32.16-.47.1-.28.14-.43c.15-.47.29-.94.4-1.42a.29.29,0,0,0,0-.09h0c.11-.51.2-1,.27-1.54,0-.15,0-.31,0-.46s.06-.4.07-.6,0-.35,0-.52,0-.43,0-.64C42.35,24.3,42.34,23.93,42.32,23.56Z"/><path class="cls-3" d="M12,9.82a6,6,0,0,1,1,.12c.2,0,.39.32.49.54.49,1.15,1,2.29,1.41,3.47.24.62-.2,1.21-1.11,2.24a.78.78,0,0,0-.13,1,12.05,12.05,0,0,0,6.14,5.31,1.09,1.09,0,0,0,.34.07.75.75,0,0,0,.59-.33c1.15-1.38,1.48-2,1.94-2a1,1,0,0,1,.39.11C26.68,22.09,27,22.16,27,22.56a3.92,3.92,0,0,1-4.11,4H22.6c-3.46-.12-9-2.87-12.72-9.45a5.36,5.36,0,0,1,.87-6.83A1.72,1.72,0,0,1,12,9.82Z"/><path class="cls-3" d="M35.55,14.73A18,18,0,0,1,21,35.59a18.44,18.44,0,0,1-3.12.27,18,18,0,0,1-8-1.89,1.64,1.64,0,0,0-.74-.16,1.34,1.34,0,0,0-.35,0C4.1,35,1,35.91,0,36.1c.21-.77.39-1.44.57-2.12.61-2.16,1.23-4.3,1.8-6.46a1.6,1.6,0,0,0-.08-1A17.9,17.9,0,0,1,14.13.73,18.46,18.46,0,0,1,18.31.24,17.57,17.57,0,0,1,35.55,14.73Zm-15.29,18a15,15,0,0,0,12.5-16.89A14.71,14.71,0,0,0,15.49,3.42,14.94,14.94,0,0,0,5,25.22,3.05,3.05,0,0,1,5.3,28c-.44,1.26-.72,2.55-1.12,4,1.77-.46,3.4-.86,5-1.32a1.64,1.64,0,0,1,.42-.06,1.59,1.59,0,0,1,.79.23,14.55,14.55,0,0,0,7.42,2.06,15.46,15.46,0,0,0,2.42-.19"/></g></g></svg>