<svg id="Layer_1" data-name="Layer 1" xmlns="http://www.w3.org/2000/svg" viewBox="0 0 32.49 31.72"><defs><style>.cls-1{fill:#fff;}</style></defs><path class="cls-1" d="M11.06,8.54a5.51,5.51,0,0,1,.9.1c.17,0,.34.29.43.48.43,1,.86,2,1.23,3,.21.54-.17,1.06-1,2a.69.69,0,0,0-.11.89,10.47,10.47,0,0,0,5.38,4.65.84.84,0,0,0,.3.06.66.66,0,0,0,.52-.28c1-1.21,1.29-1.74,1.69-1.74a.83.83,0,0,1,.35.09c3.13,1.51,3.38,1.56,3.39,1.92a3.43,3.43,0,0,1-3.6,3.51h-.23c-3-.1-7.87-2.51-11.15-8.28a4.69,4.69,0,0,1,.76-6A1.56,1.56,0,0,1,11.06,8.54Z"/><path class="cls-1" d="M31.69,12.85A15.7,15.7,0,0,1,9.22,29.71a1.58,1.58,0,0,0-.65-.14,1.48,1.48,0,0,0-.31,0c-4.14,1-6.89,1.81-7.73,2L1,29.72c.53-1.89,1.08-3.77,1.58-5.67a1.42,1.42,0,0,0-.08-.91A15.69,15.69,0,0,1,12.92.57,16.09,16.09,0,0,1,16.58.14,15.4,15.4,0,0,1,31.69,12.85ZM18.29,28.62a13.13,13.13,0,0,0,11-14.8A12.88,12.88,0,0,0,14.11,2.93,13.09,13.09,0,0,0,4.91,22a2.66,2.66,0,0,1,.26,2.47c-.38,1.11-.63,2.24-1,3.48,1.55-.4,3-.75,4.41-1.16a1.64,1.64,0,0,1,.37,0,1.29,1.29,0,0,1,.69.21,12.81,12.81,0,0,0,8.63,1.63"/></svg>